<svg xmlns="http://www.w3.org/2000/svg" width="620" height="600" viewBox="0 0 620 600">
  <g id="logo" transform="translate(-71.463 -42.051)">
    <path id="container" d="M0,0H618a2,2,0,0,1,2,2V598a2,2,0,0,1-2,2H0a0,0,0,0,1,0,0V0A0,0,0,0,1,0,0Z" transform="translate(71.463 42.051)" fill="#00603a"/>
    <g id="Layer_1" data-name="Layer 1" transform="translate(217.463 379.005)">
      <path id="_02-7" data-name=" 02-7" d="M308.354,585.892V572.156H292.118a21.64,21.64,0,0,1-8.315-1.28,9.773,9.773,0,0,1-4.4-6.9,36.45,36.45,0,0,1-.035-5.914,9.886,9.886,0,0,1,4.241-7.085,8.323,8.323,0,0,1,3.73-1.323c.577-.058,1.141-.079,1.715-.094h17.757a9.744,9.744,0,0,1,6.491,2.632,10.324,10.324,0,0,1,2.885,7.172v9.355h11.591a4.078,4.078,0,0,0,3.772-2.754,10.124,10.124,0,0,0,.585-2.538c.07-.723.049-13.874.049-13.982h7.791s.063,13.013-.07,14.192a9.921,9.921,0,0,1-4.248,7.085,8.308,8.308,0,0,1-3.73,1.323c-.571.058-1.148.079-1.715.094H316.191v13.737ZM287.7,555.758a10.627,10.627,0,0,0-.584,2.537,30.225,30.225,0,0,0,.261,6.673v.043a4.754,4.754,0,0,0,4.515,3.723H308.34v-8.56a12.923,12.923,0,0,0-.6-4.338h0a4.012,4.012,0,0,0-3.709-2.776H291.505a4.078,4.078,0,0,0-3.8,2.7Zm75.015,30.032v-.022H362.3a8.489,8.489,0,0,1-2.057-.412,8.737,8.737,0,0,1-3.385-2.169,10.311,10.311,0,0,1-2.885-7.172V549.728h7.791v25.492a12.763,12.763,0,0,0,.606,4.338h0a4.027,4.027,0,0,0,3.716,2.784h27.264L373,560.581h0a6.508,6.508,0,0,1,4.061-11.04h21.308v4.078H375.616l20.456,21.118a6.507,6.507,0,0,1-4.054,11.047Zm70.622,0v-3.434h4.543a4.057,4.057,0,0,0,3.758-2.755,9.975,9.975,0,0,0,.584-2.537,19.716,19.716,0,0,0,.056-2.089V563.762a10.177,10.177,0,0,1-.1-1.388v-12.9h7.791v2.972c0,4.627.1,13.122.1,14v2.3h33.9l-13.1-13.947-4.913-5.227,4.913-5.22,10.559-11.221h9.854l-15.458,16.441L486.7,561.145a6.508,6.508,0,0,1-4.054,11.047H450.081v1.6a29.773,29.773,0,0,1-.07,3.5,9.922,9.922,0,0,1-4.248,7.086,8.238,8.238,0,0,1-3.737,1.323c-.571.058-1.134.079-1.708.094h-6.967Zm52.005,0v-3.434h4.536a4.068,4.068,0,0,0,3.772-2.747,10.44,10.44,0,0,0,.585-2.537,20.745,20.745,0,0,0,.049-2.1v-25.5h7.674s.116,15.761.116,16.976v.781h0v6.55a29.753,29.753,0,0,1-.07,3.5,9.907,9.907,0,0,1-4.248,7.078,8.246,8.246,0,0,1-3.73,1.323c-.571.058-1.148.08-1.715.094h-6.973Zm-83.72,0v-3.434h4.536a4.062,4.062,0,0,0,3.765-2.747,9.965,9.965,0,0,0,.592-2.537,20.88,20.88,0,0,0,.05-2.1v-25.5h7.674s.124,15.761.124,16.976v.781h0v6.55a29.661,29.661,0,0,1-.071,3.5,9.907,9.907,0,0,1-4.247,7.078,8.275,8.275,0,0,1-3.73,1.323c-.571.058-1.141.08-1.708.094h-6.973ZM226.641,572.184v-.05h-.412a8.315,8.315,0,0,1-2.057-.412,8.66,8.66,0,0,1-3.385-2.169,10.328,10.328,0,0,1-2.885-7.172V533.136h7.8v28.442a12.839,12.839,0,0,0,.6,4.338h0a4.01,4.01,0,0,0,3.716,2.776h16.663a4.082,4.082,0,0,0,3.772-2.755,10.652,10.652,0,0,0,.577-2.537c.07-.723.049-13.983.049-13.983h7.8s.063,13.014-.081,14.192a9.889,9.889,0,0,1-4.24,7.086,8.29,8.29,0,0,1-3.73,1.323c-.571.058-1.148.079-1.708.094H226.6Zm290.378,0v-.05h-.426a8.462,8.462,0,0,1-2.057-.412,8.709,8.709,0,0,1-3.374-2.169,10.288,10.288,0,0,1-2.884-7.172V533.136h7.791v28.449a12.748,12.748,0,0,0,.605,4.338h0a4.012,4.012,0,0,0,3.709,2.776h29.665l-13.1-13.939-4.913-5.227,4.913-5.227L547.5,533.093h9.854L541.9,549.534h0L552.767,561.1a6.509,6.509,0,0,1-4.047,11.047Zm-251.633,0V533.144h7.791v15.183c0,1.214-.124,23.858-.124,23.858Zm160.323-.109v-38.94h7.8v15.088c0,1.215-.116,23.859-.116,23.859ZM332.148,549.49,433.5,548.232m-117.721-3.159a3.319,3.319,0,0,1,0-6.616h13.331a3.319,3.319,0,0,1,0,6.616Zm129.323-.116a3.68,3.68,0,1,1,.042-7.317h1.543a3.666,3.666,0,1,1-.056,7.3Zm-204.738,0a3.68,3.68,0,1,1,.042-7.317h1.542a3.665,3.665,0,1,1-.063,7.3Zm225.947-4.005,7.5-7.8h4.846l-7.4,7.873Z" transform="translate(-217.67 -533.095)" fill="#fff"/>
      <path id="_03-3" data-name=" 03-3" d="M527.8,687.654a6.135,6.135,0,0,1-2.05-1.555,6.934,6.934,0,0,1-1.3-2.321,8.657,8.657,0,0,1-.447-2.841,8.313,8.313,0,0,1,.468-2.783,7.346,7.346,0,0,1,1.307-2.335,6.261,6.261,0,0,1,2.018-1.6,5.767,5.767,0,0,1,2.635-.593,8.406,8.406,0,0,1,1.444.123,5.915,5.915,0,0,1,1.24.361,5.773,5.773,0,0,1,1.081.593,9.538,9.538,0,0,1,.972.8l-.93,1.207a6.305,6.305,0,0,0-.764-.658,4.942,4.942,0,0,0-1.9-.839,5.821,5.821,0,0,0-1.24-.123,4.215,4.215,0,0,0-1.955.462,4.846,4.846,0,0,0-1.536,1.251,6.2,6.2,0,0,0-1,1.851,6.773,6.773,0,0,0-.366,2.249,7.529,7.529,0,0,0,.352,2.357,5.689,5.689,0,0,0,1.018,1.872,4.71,4.71,0,0,0,1.6,1.229,4.788,4.788,0,0,0,2.106.448,5.2,5.2,0,0,0,2.064-.412,5.865,5.865,0,0,0,1.63-1v-3.521h-3.9v-1.446h5.294v5.61a8.4,8.4,0,0,1-2.2,1.518,6.727,6.727,0,0,1-2.944.629A6.358,6.358,0,0,1,527.8,687.654Zm-113.654,0a6.412,6.412,0,0,1-2.064-1.584,7.156,7.156,0,0,1-1.328-2.32,8.415,8.415,0,0,1-.469-2.8,8.108,8.108,0,0,1,.483-2.79,7.1,7.1,0,0,1,1.334-2.328,6.2,6.2,0,0,1,9.467-.022,7.062,7.062,0,0,1,1.335,2.32,8.3,8.3,0,0,1,.461,2.8,8.08,8.08,0,0,1-.476,2.791,7.451,7.451,0,0,1-1.334,2.328,6.439,6.439,0,0,1-2.071,1.605,6.33,6.33,0,0,1-5.329,0Zm.634-12.089a4.887,4.887,0,0,0-1.588,1.243,5.978,5.978,0,0,0-1.032,1.844,6.928,6.928,0,0,0,0,4.547,5.574,5.574,0,0,0,1.053,1.858,5.054,5.054,0,0,0,1.6,1.251,4.416,4.416,0,0,0,2.018.462,4.564,4.564,0,0,0,2.025-.455,4.743,4.743,0,0,0,1.581-1.244,5.73,5.73,0,0,0,1.039-1.843,6.637,6.637,0,0,0,.384-2.27,6.768,6.768,0,0,0-.384-2.277h0a5.651,5.651,0,0,0-1.053-1.858,5.173,5.173,0,0,0-1.6-1.251,4.458,4.458,0,0,0-2.018-.463,4.554,4.554,0,0,0-2.025.434ZM263.943,688.1l-5.512-14.221h1.616l4.551,12.161,4.579-12.161h1.557L265.221,688.1Zm102.151-.1v-14.12h5.445a5.467,5.467,0,0,1,1.709.253h0a3.975,3.975,0,0,1,1.321.723,2.955,2.955,0,0,1,.845,1.106,3.516,3.516,0,0,1,.289,1.446,3.922,3.922,0,0,1-.166,1.229,3.291,3.291,0,0,1-1.109,1.6,4.452,4.452,0,0,1-.722.456,5.735,5.735,0,0,1,1.074.477,3.731,3.731,0,0,1,.866.723,3.268,3.268,0,0,1,.585.969,3.483,3.483,0,0,1,.215,1.287,3.949,3.949,0,0,1-.324,1.634,3.277,3.277,0,0,1-.937,1.222,4.345,4.345,0,0,1-1.444.723,6.537,6.537,0,0,1-1.906.267Zm1.444-1.445h4.293a3.605,3.605,0,0,0,2.3-.673h0a2.256,2.256,0,0,0,.846-1.88,2.165,2.165,0,0,0-.859-1.815,4.247,4.247,0,0,0-2.539-.636h-4.033Zm0-6.413h3.779a3.3,3.3,0,0,0,2.113-.651h0a2.274,2.274,0,0,0,.814-1.9,2.116,2.116,0,0,0-.722-1.706,3.119,3.119,0,0,0-2.1-.628h-3.888Zm180.539,7.823v-14.12h9.263v1.446h-7.812v4.822h7v1.446h-7V686.5h7.935v1.446Zm-90.162,0v-14.12h9.263v1.446h-7.819v4.822h7v1.446h-7V686.5h7.935v1.446Zm-13.221,0-4.928-6.839-2.726,3.051v3.788H435.6v-14.12h1.444v8.43l7.364-8.43h1.867l-5.5,6.167,5.727,7.953Zm-130.778,0L305.642,676.4v11.567h-1.405v-14.12h1.355l8.072,11.314V673.845h1.444v14.12Zm-92.124,0V675.32h-4.328v-1.446h10.055v1.446H223.19v12.645Zm291.879,0h-1.549l-1.5-3.731h-6.973l-1.514,3.731h-1.486l5.85-14.221h1.356Zm-9.463-5.14h5.836l-2.885-7.23Zm-165.969,5.14-1.5-3.731h-6.973l-1.514,3.731h-1.479l5.836-14.221h1.355l5.85,14.221Zm-7.935-5.14h5.843l-2.884-7.23h0Zm-39.326,5.14-1.508-3.731H282.5l-1.514,3.731H279.5l5.85-14.221h1.349l5.843,14.221Zm-7.935-5.14h5.843L286,675.594Zm-34.931,5.14-1.5-3.731h-6.98l-1.514,3.731h-1.479l5.836-14.221h1.356l5.836,14.221Zm-7.935-5.14h5.843l-2.885-7.23Zm247.925,5.14h0l-3.716-5.487H480.73v5.487h-1.444V673.852H484.8a5.7,5.7,0,0,1,1.92.3,4.181,4.181,0,0,1,1.444.861,3.817,3.817,0,0,1,.93,1.33,4.466,4.466,0,0,1,.331,1.728,4.408,4.408,0,0,1-.261,1.583,3.644,3.644,0,0,1-.722,1.215,3.975,3.975,0,0,1-1.109.86,4.821,4.821,0,0,1-1.384.485l3.93,5.784Zm-7.378-6.9h3.937a4.162,4.162,0,0,0,1.328-.2,3.161,3.161,0,0,0,1.053-.578,2.663,2.663,0,0,0,.687-.918,2.931,2.931,0,0,0,.253-1.237,2.582,2.582,0,0,0-.866-2.075h0a3.6,3.6,0,0,0-2.416-.723h-3.966Zm-83.467,6.9-3.722-5.487h-3.656v5.487h-1.444V673.852h5.512a5.758,5.758,0,0,1,1.92.3,4.228,4.228,0,0,1,1.444.861,3.69,3.69,0,0,1,.93,1.33,4.8,4.8,0,0,1,.07,3.311,3.552,3.552,0,0,1-.722,1.215,3.946,3.946,0,0,1-1.109.86,4.741,4.741,0,0,1-1.391.485L399.024,688Zm-7.378-6.9h3.945a4.172,4.172,0,0,0,1.328-.2,3.2,3.2,0,0,0,1.046-.578,2.642,2.642,0,0,0,.722-.918,2.989,2.989,0,0,0,.246-1.237,2.582,2.582,0,0,0-.867-2.075h0a3.6,3.6,0,0,0-2.416-.723h-3.966Zm7.371,6.9" transform="translate(-217.463 -599.271)" fill="#fff"/>
    </g>
    <g id="Layer_2" data-name="Layer 2" transform="translate(336.681 216.126)">
      <path id="_01-7" data-name=" 01-7" d="M576.709,269.022h0L549.693,332.7c.064-.723.1-1.446.1-2.169a23.285,23.285,0,0,0-4.7-14.185,19.925,19.925,0,0,0-9.927-7.056,18.183,18.183,0,0,0-5.464-.839,56.68,56.68,0,0,0-13.839,2.552,220.493,220.493,0,0,0-72.21,41.21l21.608-50.934,101.26-34.421,1.575-.535a45.932,45.932,0,0,0-43.531-37.8,44.6,44.6,0,0,0-40.025,27.184,48.289,48.289,0,0,1,44.724-33.662,49.8,49.8,0,0,1,47.6,46.625l-.152.347Z" transform="translate(-443.656 -222.051)" fill="#946a1e"/>
    </g>
  </g>
</svg>
