<svg width="483" height="630" viewBox="0 0 483 630" fill="none" xmlns="http://www.w3.org/2000/svg">
<path fill-rule="evenodd" clip-rule="evenodd" d="M241.369 1.57608C265.103 9.46199 283.941 28.6504 291.149 52.2821C292.5 56.7133 292.656 56.6058 287.392 54.8923C262.607 46.8277 241.308 24.4881 236.251 1.25003C235.911 -0.317791 235.613 -0.336866 241.369 1.57608ZM-3.22455 93.1009C-9.16803 117.657 -30.1705 139.173 -55.9164 147.08L-59 148.027L-58.2213 145.205C-51.5945 121.226 -31.1227 100.432 -6.84927 93.0281C-2.76843 91.7828 -2.90372 91.7811 -3.22455 93.1009ZM-55.6823 232.063C-31.7661 239.137 -12.4823 257.841 -4.5062 281.699C-2.52905 287.609 -2.32098 287.359 -7.76324 285.615C-29.4803 278.65 -47.7252 261.537 -56.0135 240.36C-57.1668 237.413 -59.189 231.022 -58.9445 231.097C-58.9081 231.109 -57.4391 231.542 -55.6823 232.063ZM361.269 233.615C361.269 234.68 359.226 240.68 357.441 244.858C348.761 265.181 330.975 281.199 309.555 287.991C304.718 289.524 304.855 289.63 306.149 285.393C313.258 262.082 331.915 242.862 355.145 234.914C360.594 233.049 361.269 232.905 361.269 233.615ZM187.64 234.204C212.004 241.535 232.271 261.971 239.196 286.19C240.186 289.649 240.434 289.572 234.55 287.628C210.476 279.68 190.096 258.474 184.261 235.307C183.654 232.895 183.479 232.952 187.64 234.204ZM432.183 327.889C456.382 335.892 477.735 358.529 482.726 381.472L483 382.733L480.109 381.921C454.984 374.869 434.894 354.559 427.105 328.334C426.366 325.849 426.09 325.873 432.183 327.889ZM371.343 327.89C395.235 335.918 413.905 354.939 421.123 378.602C422.497 383.104 422.662 383.01 416.774 381.038C396.539 374.259 380.265 359.909 371.159 340.816C369.049 336.388 366.01 328.131 366.01 326.822C366.01 326.092 365.974 326.085 371.343 327.89ZM361.269 326.85C361.269 327.904 359.231 333.901 357.505 337.927C348.688 358.501 331.997 373.806 310.504 381.033C304.489 383.053 304.751 383.282 306.577 377.59C313.899 354.765 332.469 335.859 355.145 328.14C360.61 326.281 361.269 326.142 361.269 326.85ZM128.382 328.036C153.124 336.383 173.909 358.357 178.925 381.47L179.199 382.731L175.914 381.722C151.488 374.229 132.685 355.917 124.61 331.761C122.598 325.743 122.34 325.998 128.382 328.036ZM118.508 326.817C110.045 354.495 92.3586 373.182 67.0255 381.213C61.9977 382.807 62.126 383 64.1534 376.857C70.4767 357.687 84.6339 341.354 102.799 332.269C108.762 329.288 118.821 325.797 118.508 326.817ZM-3.27484 326.942C-3.54712 327.053 -3.66504 327.314 -3.53497 327.524C-3.08752 328.247 -6.93079 338.815 -7.86038 339.415C-8.10666 339.574 -8.16211 339.708 -7.98349 339.711C-7.41635 339.722 -12.0817 348.182 -14.5912 351.694C-18.9218 357.757 -26.6707 366.087 -27.5032 365.573C-27.713 365.443 -27.8361 365.558 -27.7754 365.828C-27.7165 366.097 -28.098 366.543 -28.6235 366.815C-29.149 367.089 -29.7352 367.592 -29.926 367.934C-30.1185 368.277 -30.5139 368.556 -30.8053 368.556C-31.0966 368.556 -31.4366 368.82 -31.5597 369.143C-31.7002 369.505 -32.0419 369.63 -32.4581 369.47C-32.8795 369.307 -33.0339 369.368 -32.8726 369.63C-32.7304 369.859 -32.8414 370.235 -33.1171 370.464C-33.49 370.775 -33.6357 370.709 -33.6755 370.213C-33.705 369.845 -33.8074 369.059 -33.901 368.468C-33.9982 367.866 -33.9132 367.493 -33.7086 367.62C-33.5073 367.745 -33.4362 368.095 -33.5541 368.399C-33.6703 368.702 -33.5941 368.952 -33.3824 368.952C-33.1726 368.952 -33.0009 368.586 -33.0009 368.138C-33.0009 367.691 -32.8309 367.429 -32.6229 367.557C-32.4147 367.686 -32.3453 368.052 -32.4667 368.371C-32.5899 368.69 -32.4824 368.952 -32.2292 368.952C-31.976 368.952 -31.8684 368.789 -31.9915 368.589C-32.1147 368.392 -31.9916 368.138 -31.7193 368.029C-31.3342 367.873 -31.3395 367.821 -31.7401 367.797C-32.0245 367.779 -32.1528 367.597 -32.0262 367.391C-31.8979 367.186 -32.1633 367.089 -32.6159 367.176C-33.4588 367.337 -33.4293 366.149 -32.5673 365.225C-32.002 364.619 -31.6603 365.325 -32.2031 365.979C-32.4772 366.31 -32.5448 366.581 -32.354 366.581C-32.1615 366.581 -31.7834 366.225 -31.5112 365.79C-31.1903 365.275 -31.1642 365.001 -31.44 365.001C-31.6724 365.001 -31.7505 364.821 -31.6135 364.599C-31.4764 364.378 -31.2129 364.292 -31.0256 364.408C-30.4255 364.779 -30.2972 364.032 -30.8695 363.504C-31.3221 363.085 -31.421 363.098 -31.421 363.579C-31.421 363.901 -31.6273 364.292 -31.8823 364.45C-32.191 364.64 -32.2621 364.521 -32.0974 364.091C-31.9603 363.735 -32.0193 363.341 -32.2274 363.213C-32.6038 362.981 -32.7651 363.525 -32.6263 364.547C-32.5847 364.84 -32.7425 364.963 -32.9731 364.819C-33.3513 364.587 -33.5698 365.084 -33.4415 365.889C-33.4172 366.052 -33.5732 366.186 -33.79 366.186C-34.3467 366.186 -34.2843 364.704 -33.7206 364.517C-33.4484 364.425 -33.3859 364.149 -33.5732 363.849C-33.8195 363.449 -33.9548 363.444 -34.1872 363.82C-34.4144 364.186 -34.6641 364.195 -35.2243 363.851C-35.9319 363.419 -35.9302 363.405 -35.174 363.509C-34.6624 363.579 -34.4265 363.419 -34.5046 363.057C-34.6052 362.594 -34.5184 362.585 -34.0103 363.007C-33.6322 363.32 -33.3964 363.355 -33.3964 363.097C-33.3964 362.864 -33.0408 362.745 -32.6055 362.828C-31.6343 363.015 -31.61 362.736 -32.5067 361.68C-33.1657 360.905 -33.1657 360.892 -32.5067 361.402C-31.9118 361.862 -31.8146 361.846 -31.8146 361.297C-31.8146 360.731 -32.2448 360.488 -33.0582 360.594C-33.1987 360.613 -33.2142 360.244 -33.0911 359.774C-32.876 358.955 -32.8552 358.952 -32.5673 359.689C-32.3557 360.228 -32.2482 360.28 -32.2066 359.864C-32.1736 359.54 -31.969 359.762 -31.7505 360.358C-31.5337 360.957 -31.0984 361.446 -30.7879 361.446C-30.3786 361.446 -30.2902 361.723 -30.4671 362.433C-30.7324 363.489 -30.3995 363.669 -29.4456 362.982C-28.9565 362.632 -28.9843 362.599 -29.5999 362.8C-30.174 362.987 -30.2503 362.927 -29.9277 362.54C-29.4751 361.992 -30.2833 360.44 -30.7671 360.924C-30.9093 361.066 -31.0394 361.019 -31.0551 360.82C-31.0724 360.62 -31.1505 360.102 -31.2285 359.668C-31.3481 358.995 -31.2996 358.966 -30.9006 359.47C-30.644 359.796 -29.9884 360.096 -29.4456 360.136C-28.901 360.176 -28.6703 360.121 -28.9287 360.011C-29.1889 359.902 -29.3051 359.514 -29.1872 359.148C-29.0242 358.636 -29.064 358.605 -29.3571 359.016C-29.8462 359.699 -30.2538 357.367 -29.7769 356.616C-29.4855 356.156 -29.2825 356.468 -29.3987 357.198C-29.4681 357.639 -28.7397 357.557 -28.4536 357.093C-28.3166 356.872 -28.0096 356.812 -27.7702 356.961C-27.491 357.132 -27.4251 356.995 -27.5882 356.572C-27.8622 355.854 -27.2794 355.658 -26.8649 356.329C-26.7227 356.558 -27.0679 357.172 -27.6315 357.693C-28.1934 358.215 -28.6495 358.872 -28.6426 359.155C-28.6357 359.437 -28.4293 359.312 -28.1848 358.877C-27.9385 358.442 -27.5014 357.946 -27.2136 357.774C-26.9257 357.602 -26.4851 357.068 -26.2354 356.588C-25.9856 356.109 -25.9232 355.849 -26.0966 356.01C-26.2683 356.17 -26.6516 356.101 -26.9482 355.854C-27.2465 355.608 -27.602 355.52 -27.739 355.657C-27.876 355.795 -28.2281 355.709 -28.5195 355.467C-28.9097 355.143 -29.0502 355.145 -29.0502 355.471C-29.0502 355.716 -28.8716 355.915 -28.6548 355.915C-28.438 355.915 -28.2593 356.12 -28.2593 356.371C-28.2593 356.629 -28.6045 356.515 -29.0519 356.109C-29.978 355.272 -29.9468 355.213 -28.3131 354.744C-27.3974 354.482 -26.9308 354.534 -26.5215 354.944C-26.0446 355.421 -25.9353 355.417 -25.7446 354.921C-25.6232 354.604 -25.6492 354.363 -25.8053 354.385C-26.6256 354.508 -27.0262 354.273 -26.8372 353.782C-26.5632 353.065 -27.413 352.538 -27.9593 353.086C-28.2576 353.385 -28.6235 353.383 -29.2097 353.085C-29.9832 352.689 -29.9954 352.706 -29.3918 353.34C-28.875 353.882 -28.5836 353.929 -27.9194 353.574C-27.2673 353.223 -27.1337 353.241 -27.2916 353.648C-27.5274 354.262 -28.934 354.446 -29.267 353.907C-29.3953 353.7 -29.6815 353.643 -29.9052 353.782C-30.1428 353.929 -30.2486 353.728 -30.1584 353.294C-30.0751 352.889 -29.7023 352.582 -29.3311 352.611C-28.9565 352.642 -28.6409 352.377 -28.6235 352.018C-28.6044 351.609 -28.5195 351.553 -28.3929 351.865C-28.2836 352.136 -28.02 352.358 -27.8084 352.358C-27.5968 352.358 -27.5327 352.181 -27.6679 351.964C-28.0772 351.3 -27.3904 351.525 -26.8823 352.221C-26.5042 352.738 -26.3394 352.767 -26.0862 352.358C-25.8607 351.994 -25.9215 351.936 -26.2909 352.165C-26.6672 352.398 -26.7453 352.309 -26.5666 351.846C-26.4053 351.425 -26.6915 350.906 -27.3887 350.35L-28.457 349.495L-27.4702 349.786C-26.662 350.023 -26.5718 349.982 -26.9759 349.559C-27.2482 349.274 -27.4511 348.676 -27.4303 348.23C-27.3957 347.536 -27.3453 347.561 -27.0748 348.409C-26.851 349.108 -26.747 349.188 -26.7193 348.681C-26.6967 348.287 -26.5025 348.076 -26.2839 348.211C-26.0671 348.345 -25.8885 348.256 -25.8885 348.013C-25.8885 347.771 -25.7133 347.68 -25.5 347.812C-25.285 347.944 -24.7075 347.675 -24.2149 347.214C-23.7241 346.753 -23.5645 346.432 -23.8611 346.503C-24.1594 346.572 -24.4542 346.319 -24.5184 345.939C-24.5964 345.474 -24.3779 345.247 -23.8559 345.247C-23.3686 345.247 -23.183 345.417 -23.3599 345.703C-23.5403 345.998 -23.4674 346.052 -23.15 345.856C-22.1823 345.258 -23.4102 344.638 -24.6432 345.103C-25.533 345.44 -25.7584 345.414 -25.7584 344.973C-25.7584 344.671 -25.5486 344.503 -25.2936 344.602C-24.5045 344.904 -23.9322 344.274 -24.1716 343.362C-24.2964 342.883 -24.5392 342.578 -24.7126 342.684C-24.8843 342.791 -24.9329 342.523 -24.8185 342.087C-24.5652 341.116 -23.516 341.035 -23.5247 341.988C-23.5298 342.585 -23.5888 342.599 -23.9496 342.087C-24.3224 341.56 -24.3502 341.56 -24.1906 342.087C-24.0935 342.413 -23.7848 342.627 -23.5056 342.561C-23.2264 342.495 -22.857 342.67 -22.6835 342.953C-22.4268 343.365 -22.269 343.359 -21.8562 342.915C-21.5753 342.613 -21.5475 342.479 -21.7955 342.618C-22.5656 343.048 -23.3113 341.801 -22.713 341.081C-22.3055 340.589 -22.1355 340.57 -21.8441 340.983C-21.551 341.399 -21.5094 341.397 -21.6221 340.97C-21.6984 340.683 -21.9152 340.476 -22.1025 340.511C-22.2898 340.546 -22.6124 340.337 -22.8205 340.046C-23.1049 339.649 -23.1448 339.685 -22.9818 340.199C-22.7113 341.036 -23.1691 341.366 -23.9322 340.882C-24.3259 340.632 -24.3519 340.518 -24.012 340.513C-23.7415 340.509 -23.5195 340.063 -23.5195 339.519C-23.5195 338.248 -24.2201 338.239 -24.5392 339.508C-24.756 340.369 -24.8531 340.415 -25.3682 339.899C-25.6908 339.578 -26.0724 339.389 -26.218 339.477C-26.3637 339.567 -26.506 339.168 -26.5337 338.593C-26.5857 337.568 -26.5788 337.564 -26.1781 338.433C-25.6752 339.524 -24.8653 339.586 -24.5965 338.555C-24.4404 337.96 -24.1247 337.823 -23.1882 337.941C-21.9846 338.093 -21.9846 338.091 -22.765 337.311C-23.1951 336.879 -23.7189 336.633 -23.9287 336.763C-24.1386 336.891 -24.3085 336.829 -24.3085 336.622C-24.3085 335.908 -23.1431 335.8 -22.7095 336.473C-22.3141 337.086 -22.2968 337.08 -22.5066 336.409C-22.6939 335.819 -22.5811 335.712 -21.9447 335.878C-21.5076 335.993 -21.1487 335.927 -21.1487 335.729C-21.1487 335.532 -21.5493 335.36 -22.0384 335.346L-22.9263 335.322L-22.0123 334.954C-21.4348 334.723 -21.2041 334.404 -21.3845 334.09C-21.5423 333.816 -21.5233 333.726 -21.3446 333.889C-20.7289 334.448 -20.781 336.291 -21.4261 336.763C-21.9291 337.132 -21.9533 337.29 -21.5423 337.545C-21.1781 337.771 -21.1209 337.71 -21.3498 337.34C-21.584 336.961 -21.4938 336.886 -21.0203 337.068C-20.6613 337.205 -20.3873 337.191 -20.4099 337.035C-20.5573 336.054 -20.3318 335.691 -19.8323 336.107C-19.4352 336.437 -19.3051 336.406 -19.3051 335.979C-19.3051 335.669 -19.4091 335.426 -19.5357 335.44C-20.3353 335.526 -20.5746 335.245 -20.5191 334.285C-20.4861 333.688 -20.2572 333.242 -20.0127 333.298C-19.7681 333.352 -19.5687 333.208 -19.5687 332.977C-19.5687 332.748 -19.4057 332.66 -19.2045 332.784C-19.005 332.908 -18.5645 332.731 -18.2246 332.391C-16.9932 331.159 -5.06638 326.612 -3.32861 326.711C-2.92453 326.733 -2.90891 326.796 -3.27484 326.942ZM-21.9395 339.364C-21.9395 339.59 -21.6394 339.474 -21.2735 339.109C-20.6509 338.485 -20.5763 338.489 -20.089 339.156C-19.8028 339.548 -19.5687 339.692 -19.5687 339.475C-19.5687 339.26 -19.7733 338.881 -20.0248 338.629C-20.5347 338.119 -21.9395 338.659 -21.9395 339.364ZM-26.995 339.685C-26.4331 340.341 -26.4244 340.476 -26.9274 340.669C-27.2968 340.811 -27.4095 340.728 -27.2343 340.445C-27.0401 340.133 -27.2673 340.076 -27.9783 340.252C-28.5437 340.395 -29.1143 340.329 -29.2531 340.103C-29.3901 339.88 -29.3572 339.723 -29.1785 339.755C-28.2819 339.909 -27.4511 339.671 -27.6679 339.321C-28.0703 338.669 -27.6888 338.875 -26.995 339.685ZM-26.8216 341.988C-26.8563 342.422 -26.6187 342.66 -26.1851 342.625C-25.8053 342.595 -25.4948 342.727 -25.4948 342.922C-25.4948 343.414 -26.5788 343.36 -26.8944 342.85C-27.0366 342.618 -27.4372 342.536 -27.7841 342.67C-28.2888 342.864 -28.2697 342.753 -27.6818 342.105C-26.7938 341.123 -26.7522 341.118 -26.8216 341.988ZM-29.2479 344.063C-29.1126 344.279 -29.1473 344.475 -29.3224 344.496C-29.4994 344.519 -29.2548 344.652 -28.7813 344.793C-27.9818 345.032 -27.9645 345.107 -28.5385 345.84C-29.0363 346.477 -29.1091 346.496 -28.9184 345.939C-28.7657 345.495 -28.8784 345.247 -29.2357 345.247C-29.5479 345.247 -29.7647 344.902 -29.7318 344.458C-29.6641 343.561 -29.593 343.504 -29.2479 344.063ZM-26.4123 344.718C-26.8112 345.117 -25.8989 346.017 -25.3214 345.795C-24.9919 345.669 -24.8271 345.908 -24.8566 346.47C-24.8861 347.06 -25.1965 347.387 -25.8139 347.481C-26.3897 347.569 -26.6308 347.464 -26.4661 347.197C-26.3221 346.964 -25.9561 346.869 -25.6526 346.987C-25.3474 347.103 -25.0994 347.027 -25.0994 346.815C-25.0994 346.605 -25.3717 346.433 -25.7047 346.433C-26.0376 346.433 -26.4175 346.151 -26.5493 345.807C-26.7418 345.303 -26.8546 345.284 -27.1234 345.709C-27.602 346.465 -27.5465 346.921 -27.0141 346.593C-26.7244 346.414 -26.6655 346.486 -26.851 346.786C-27.08 347.155 -27.2725 347.157 -27.7148 346.787C-28.2403 346.352 -27.1268 344.458 -26.3481 344.458C-26.2406 344.458 -26.2701 344.574 -26.4123 344.718ZM-31.8459 347.297C-31.8268 347.717 -32.0922 347.942 -32.5621 347.908C-33.0234 347.873 -33.2281 347.642 -33.0998 347.306C-32.9437 346.898 -32.8171 346.881 -32.5986 347.235C-32.3783 347.59 -32.2534 347.573 -32.0922 347.169C-31.9378 346.782 -31.8684 346.819 -31.8459 347.297ZM-24.9191 348.901C-25.4931 348.587 -26.218 348.901 -26.3828 349.534C-26.6378 350.507 -25.3405 352.278 -24.8965 351.562C-24.7144 351.264 -24.7404 351.149 -24.9589 351.284C-25.167 351.413 -25.5503 351.173 -25.8139 350.754C-26.3516 349.89 -25.9406 349.736 -25.0908 350.481C-24.7803 350.754 -24.8774 350.558 -25.3058 350.048C-26.0429 349.168 -26.0446 349.127 -25.3526 349.257C-24.8983 349.344 -24.397 349.021 -24.0276 348.409C-23.464 347.472 -23.4657 347.462 -24.0848 348.211C-24.4438 348.645 -24.8202 348.957 -24.9191 348.901ZM-33.6235 348.851C-33.7293 349.023 -34.0953 349.057 -34.4352 348.926C-34.7769 348.796 -35.1913 348.907 -35.3561 349.174C-35.585 349.545 -35.7065 349.527 -35.8712 349.099C-36.0291 348.685 -35.7411 348.541 -34.7578 348.541C-34.0276 348.541 -33.5178 348.679 -33.6235 348.851ZM-30.6838 349.651C-30.6284 350.714 -29.7126 351.385 -28.953 350.917C-28.705 350.762 -28.6478 350.844 -28.8143 351.113C-29.5462 352.295 -31.2025 351.035 -30.9111 349.517C-30.7515 348.678 -30.7341 348.688 -30.6838 349.651ZM-32.6055 351.987C-32.6055 352.217 -32.7823 352.295 -33.0009 352.162C-33.3564 351.942 -33.5663 352.46 -33.4415 353.248C-33.4172 353.411 -33.582 353.544 -33.8074 353.544C-34.3086 353.544 -34.1456 352.276 -33.5923 351.871C-33.0252 351.454 -32.6055 351.503 -32.6055 351.987ZM-30.2659 358.622C-30.2833 358.979 -30.3804 359.07 -30.4827 358.82C-30.585 358.572 -31.0151 358.459 -31.4383 358.57C-31.8632 358.681 -32.2101 358.617 -32.2101 358.43C-32.2101 358.241 -31.7661 358.062 -31.2233 358.031C-30.5364 357.991 -30.2451 358.171 -30.2659 358.622ZM-29.8392 360.955C-29.8392 361.12 -29.4404 361.505 -28.9513 361.808C-28.1119 362.332 -28.0963 362.322 -28.6548 361.638C-29.201 360.969 -29.1785 360.931 -28.3582 361.142C-27.8691 361.269 -27.5673 361.21 -27.6905 361.014C-27.9576 360.58 -29.8392 360.53 -29.8392 360.955ZM-33.3964 361.286C-33.3964 361.359 -33.7727 361.619 -34.2341 361.865C-34.822 362.181 -34.9919 362.185 -34.8029 361.879C-34.6555 361.64 -34.7439 361.446 -34.9988 361.446C-35.2694 361.446 -35.377 361.775 -35.2556 362.237C-35.1428 362.67 -35.2104 362.927 -35.4081 362.805C-35.6041 362.684 -35.7654 362.306 -35.7654 361.966C-35.7654 361.461 -35.8746 361.439 -36.3585 361.839C-36.7678 362.179 -36.9517 362.195 -36.9517 361.888C-36.9517 361.645 -36.8182 361.423 -36.6552 361.395C-35.7932 361.253 -33.3964 361.173 -33.3964 361.286ZM-38.634 363.947C-38.3253 364.623 -38.3356 364.869 -38.6686 364.869C-38.9184 364.869 -39.149 364.455 -39.1803 363.947C-39.2531 362.792 -39.1595 362.792 -38.634 363.947ZM-39.73 364.977C-39.437 365.523 -39.4491 365.823 -39.7769 366.026C-40.0596 366.201 -40.1273 366.135 -39.9521 365.853C-39.7804 365.573 -39.9486 365.384 -40.3839 365.365C-40.8036 365.346 -40.8938 365.251 -40.6024 365.133C-40.3301 365.024 -40.207 364.77 -40.3301 364.573C-40.4532 364.373 -40.4602 364.21 -40.3458 364.21C-40.233 364.21 -39.9555 364.555 -39.73 364.977ZM-34.9919 364.606C-34.9503 364.715 -34.8514 365.141 -34.7734 365.554C-34.6971 365.967 -34.3988 366.453 -34.1126 366.635C-33.3634 367.11 -33.7709 367.042 -35.5677 366.395C-36.6239 366.016 -36.8633 365.82 -36.2892 365.807C-35.8123 365.799 -35.3475 365.483 -35.2486 365.1C-35.148 364.718 -35.0335 364.496 -34.9919 364.606ZM-31.3741 366.926C-31.3377 367.448 -31.2944 367.434 -31.1435 366.857C-30.9874 366.253 -30.8591 366.222 -30.3006 366.659C-29.7249 367.108 -29.704 367.094 -30.1324 366.545C-30.4029 366.199 -30.4914 365.761 -30.3301 365.57C-30.1688 365.379 -30.3491 365.462 -30.7289 365.754C-31.1088 366.045 -31.4001 366.572 -31.3741 366.926ZM-35.063 368.777C-34.5809 369.115 -34.1855 369.593 -34.1855 369.84C-34.1855 370.086 -34.4421 369.942 -34.756 369.521C-35.3093 368.775 -35.3232 368.778 -35.2642 369.642C-35.2296 370.131 -34.9642 370.532 -34.6711 370.532C-34.378 370.532 -34.2565 370.721 -34.3987 370.953C-34.5427 371.184 -34.7595 371.276 -34.8809 371.154C-35.0006 371.033 -35.3162 371.113 -35.5798 371.331C-35.9128 371.607 -36.3342 371.506 -36.9638 370.995C-37.661 370.431 -37.7495 370.188 -37.3489 369.94C-37.0124 369.732 -36.924 369.774 -37.0991 370.055C-37.3939 370.533 -36.0238 371.447 -35.6198 371.043C-35.481 370.906 -35.6631 370.468 -36.0238 370.07C-36.4158 369.637 -36.4956 369.345 -36.2216 369.345C-35.9718 369.345 -35.7654 369.174 -35.7654 368.964C-35.7654 368.752 -36.062 368.695 -36.4227 368.834C-36.865 369.002 -36.9864 368.934 -36.7956 368.624C-36.4175 368.014 -36.1158 368.04 -35.063 368.777ZM-39.4127 370.532C-39.685 370.965 -40.0526 371.321 -40.2295 371.321C-40.4081 371.321 -40.4411 371.503 -40.3058 371.723C-40.1688 371.943 -39.8636 372.006 -39.6277 371.86C-39.3658 371.697 -39.3138 371.779 -39.4924 372.07C-39.7214 372.439 -39.9139 372.439 -40.3578 372.072C-40.8469 371.666 -40.8036 371.467 -40.0561 370.671C-38.9878 369.533 -38.7589 369.484 -39.4127 370.532ZM-43.3027 375.14C-43.2853 375.612 -43.0495 376.087 -42.7789 376.196C-42.3922 376.352 -42.394 376.402 -42.7911 376.427C-43.3895 376.463 -43.8265 375.509 -43.5386 374.791C-43.4259 374.512 -43.3201 374.67 -43.3027 375.14ZM239.985 388.338C239.985 389.375 236.541 398.825 234.889 402.316C225.588 421.985 207.158 437.766 186.752 443.538C183.491 444.458 183.571 444.568 184.723 440.697C190.713 420.546 205.67 402.984 224.777 393.666C230.672 390.79 239.985 387.528 239.985 388.338ZM371.343 389.659C394.81 397.601 413.048 415.848 420.69 439.03C422.381 444.157 422.421 444.547 421.219 444.214C395.827 437.159 375.941 418.532 367.627 394.011C365.358 387.322 365.15 387.564 371.343 389.659ZM118.307 388.966C118.307 391.553 112.896 404.172 109.318 409.927C99.2646 426.099 82.7314 438.671 65.083 443.56L62.296 444.334L63.2689 441.111C70.6484 416.68 89.6773 397.209 113.67 389.542C118.141 388.112 118.307 388.092 118.307 388.966ZM7.49353 389.911C30.9674 397.783 50.1316 417.506 56.8607 440.716C58.0799 444.922 58.6002 444.7 52.3914 442.62C32.1936 435.858 15.6465 421.141 6.69052 401.975C5.28918 398.978 1.76508 389.344 1.76508 388.513C1.76508 388.092 2.88199 388.364 7.49353 389.911ZM118.059 451.959C110.546 477.261 92.3395 496.285 67.8024 504.471C62.1399 506.36 62.2891 506.401 63.1822 503.184C70.0501 478.437 93.6905 455.317 117.405 450.157L118.677 449.882L118.059 451.959ZM-3.16904 450.827C-9.39001 473.215 -24.234 491.013 -44.9365 500.902C-48.6444 502.672 -58.5924 506.255 -58.9133 505.935C-59.1734 505.674 -55.5452 495.463 -54.0277 492.183C-45.2816 473.29 -28.0651 458.055 -8.02509 451.474C-2.51517 449.665 -2.85858 449.712 -3.16904 450.827ZM432.183 513.17C456.597 521.365 477.722 543.762 482.726 566.753L483 568.016L480.109 567.204C455.013 560.161 434.791 539.726 427.107 513.642C426.363 511.112 426.116 511.134 432.183 513.17ZM371.179 513.097C394.408 520.746 412.649 538.841 420.518 562.045C422.741 568.601 422.927 568.389 416.775 566.313C396.416 559.447 380.377 545.316 371.168 526.127C368.997 521.602 366.01 513.512 366.01 512.154C366.01 511.38 365.908 511.363 371.179 513.097ZM361.269 512.133C361.269 514.459 356.763 525.642 353.624 531.108C343.426 548.866 327.361 561.429 307.193 567.418L305.113 568.035L305.389 566.764C310.323 544.037 331.25 521.606 355.145 513.43C360.594 511.566 361.269 511.424 361.269 512.133ZM187.64 512.721C211.166 519.799 230.562 538.793 238.422 562.454C240.392 568.382 240.474 568.169 236.674 567.031C212.012 559.657 191.976 539.674 184.698 515.196C183.576 511.427 183.514 511.481 187.64 512.721ZM126.802 512.735C150.685 520.003 170.016 538.996 177.777 562.815C179.601 568.417 179.766 568.236 174.405 566.511C150.98 558.966 132.369 540.527 124.612 517.175C122.624 511.193 122.51 511.427 126.802 512.735ZM7.25937 513.392C30.4627 521.148 48.5308 539.23 56.2953 562.468C58.1458 568.006 58.1562 567.933 55.6068 567.291C38.1631 562.9 20.0655 548.897 10.1366 532.111C6.6593 526.233 1.06439 512.532 1.82922 511.767C1.90729 511.689 4.35095 512.419 7.25937 513.392ZM-53.5438 513.37C-33.8351 519.995 -17.1944 534.622 -8.30606 553.139C-6.06015 557.818 -2.73718 567.164 -3.1673 567.595C-3.64423 568.072 -13.8507 564.338 -18.5801 561.955C-36.9049 552.728 -50.8678 536.667 -57.2795 517.443C-59.3902 511.115 -59.5931 511.337 -53.5438 513.37ZM371.343 574.953C394.576 582.629 413.125 601.18 420.7 624.313C422.379 629.444 422.419 629.83 421.219 629.497C395.742 622.414 375.762 603.661 367.561 579.133C365.414 572.709 365.216 572.928 371.343 574.953ZM239.739 574.679C233.582 600.108 211.584 622.049 184.777 629.497C183.552 629.837 183.609 629.242 185.286 624.209C192.94 601.228 211.747 582.447 234.576 574.988C239.829 573.271 240.082 573.255 239.739 574.679ZM117.64 576.851C110.16 601.263 91.8608 620.047 67.6863 628.129C61.6925 630.132 61.9648 630.41 63.9783 624.357C71.7567 600.975 90.2358 582.472 113.293 574.979C119.079 573.099 118.822 572.988 117.64 576.851ZM-3.20895 574.679C-7.70947 594.43 -24.4282 614.603 -44.2601 624.211C-48.5802 626.305 -58.5612 629.94 -58.9427 629.558C-59.0295 629.471 -58.3791 627.199 -57.4946 624.508C-49.8411 601.199 -31.2163 582.565 -7.99042 574.986C-2.85858 573.311 -2.89676 573.313 -3.20895 574.679Z" fill="#B9B9B9"/>
</svg>
