<svg width="646" height="750" viewBox="0 0 646 750" fill="none" xmlns="http://www.w3.org/2000/svg">
<path fill-rule="evenodd" clip-rule="evenodd" d="M288.14 1.82688C259.89 11.2132 237.468 34.0525 228.888 62.1805C227.28 67.4547 227.094 67.3268 233.36 65.2872C262.86 55.6883 288.212 29.0982 294.231 1.43879C294.636 -0.427329 294.991 -0.450033 288.14 1.82688ZM579.27 110.766C586.345 139.994 611.343 165.603 641.988 175.015L645.658 176.142L644.731 172.783C636.843 144.242 612.477 119.491 583.585 110.679C578.727 109.197 578.888 109.195 579.27 110.766ZM641.709 276.167C613.242 284.587 590.29 306.85 580.796 335.247C578.443 342.282 578.195 341.984 584.673 339.908C610.522 331.618 632.238 311.249 642.103 286.042C643.476 282.535 645.883 274.928 645.592 275.017C645.549 275.031 643.8 275.547 641.709 276.167ZM145.427 278.014C145.427 279.282 147.859 286.424 149.983 291.397C160.315 315.586 181.484 334.652 206.98 342.736C212.737 344.561 212.574 344.687 211.034 339.644C202.573 311.897 180.365 289.021 152.716 279.56C146.23 277.341 145.427 277.17 145.427 278.014ZM352.091 278.716C323.092 287.442 298.969 311.765 290.726 340.593C289.547 344.709 289.252 344.619 296.256 342.304C324.911 332.844 349.168 307.604 356.113 280.029C356.835 277.158 357.043 277.226 352.091 278.716ZM61.0204 390.225C32.2174 399.752 6.80185 426.695 0.860828 454.003L0.534668 455.504L3.97584 454.538C33.8812 446.144 57.7939 421.969 67.0646 390.755C67.944 387.797 68.2722 387.826 61.0204 390.225ZM133.436 390.227C104.998 399.783 82.7759 422.422 74.1844 450.587C72.5494 455.946 72.3533 455.834 79.3616 453.487C103.446 445.418 122.817 428.338 133.654 405.612C136.167 400.342 139.783 390.514 139.783 388.955C139.783 388.086 139.827 388.078 133.436 390.227ZM145.427 388.988C145.427 390.243 147.853 397.382 149.907 402.173C160.401 426.662 180.268 444.879 205.851 453.481C213.01 455.886 212.698 456.158 210.524 449.383C201.809 422.215 179.707 399.712 152.716 390.524C146.212 388.311 145.427 388.146 145.427 388.988ZM422.624 390.4C393.175 400.336 368.434 426.49 362.464 454.001L362.138 455.502L366.048 454.3C395.121 445.383 417.502 423.586 427.114 394.834C429.508 387.671 429.816 387.975 422.624 390.4ZM434.376 388.949C444.45 421.893 465.501 444.136 495.654 453.696C501.639 455.593 501.486 455.822 499.073 448.51C491.546 425.693 474.696 406.252 453.074 395.439C445.977 391.891 434.004 387.735 434.376 388.949ZM579.33 389.098C579.654 389.23 579.795 389.542 579.64 389.791C579.107 390.652 583.682 403.23 584.788 403.944C585.081 404.134 585.147 404.293 584.935 404.297C584.26 404.309 589.813 414.379 592.8 418.559C597.954 425.776 607.177 435.691 608.168 435.08C608.418 434.925 608.565 435.061 608.492 435.383C608.422 435.703 608.876 436.234 609.502 436.558C610.127 436.884 610.825 437.483 611.052 437.889C611.281 438.298 611.752 438.63 612.099 438.63C612.446 438.63 612.85 438.944 612.997 439.328C613.164 439.759 613.571 439.908 614.066 439.718C614.568 439.524 614.751 439.596 614.559 439.908C614.39 440.181 614.522 440.629 614.85 440.901C615.294 441.271 615.468 441.192 615.515 440.602C615.55 440.164 615.672 439.229 615.784 438.525C615.899 437.809 615.798 437.365 615.554 437.516C615.315 437.664 615.23 438.081 615.371 438.442C615.509 438.804 615.418 439.101 615.166 439.101C614.917 439.101 614.712 438.665 614.712 438.133C614.712 437.6 614.51 437.289 614.262 437.441C614.014 437.594 613.932 438.03 614.076 438.409C614.223 438.789 614.095 439.101 613.794 439.101C613.492 439.101 613.364 438.907 613.511 438.67C613.657 438.434 613.511 438.133 613.187 438.003C612.728 437.817 612.735 437.755 613.211 437.726C613.55 437.706 613.703 437.489 613.552 437.243C613.399 437 613.715 436.884 614.254 436.987C615.257 437.179 615.222 435.765 614.196 434.665C613.523 433.944 613.116 434.785 613.763 435.563C614.089 435.957 614.169 436.279 613.942 436.279C613.713 436.279 613.263 435.856 612.939 435.338C612.557 434.725 612.526 434.399 612.854 434.399C613.131 434.399 613.224 434.184 613.061 433.92C612.898 433.657 612.584 433.554 612.361 433.693C611.647 434.134 611.494 433.245 612.175 432.617C612.714 432.118 612.832 432.134 612.832 432.706C612.832 433.09 613.077 433.554 613.381 433.742C613.748 433.969 613.833 433.827 613.637 433.315C613.474 432.892 613.544 432.423 613.792 432.27C614.239 431.994 614.431 432.642 614.266 433.858C614.217 434.207 614.405 434.353 614.679 434.182C615.129 433.905 615.389 434.498 615.237 435.455C615.208 435.65 615.393 435.808 615.651 435.808C616.314 435.808 616.24 434.046 615.569 433.823C615.245 433.713 615.17 433.385 615.393 433.028C615.687 432.551 615.848 432.545 616.124 432.993C616.395 433.428 616.692 433.439 617.359 433.03C618.201 432.516 618.199 432.499 617.299 432.623C616.69 432.706 616.409 432.516 616.502 432.085C616.622 431.533 616.518 431.523 615.914 432.025C615.464 432.398 615.183 432.44 615.183 432.132C615.183 431.855 614.76 431.713 614.241 431.812C613.085 432.035 613.057 431.703 614.124 430.445C614.908 429.523 614.908 429.508 614.124 430.115C613.416 430.662 613.3 430.644 613.3 429.989C613.3 429.316 613.812 429.027 614.78 429.153C614.948 429.176 614.966 428.736 614.819 428.177C614.563 427.202 614.539 427.198 614.196 428.076C613.944 428.718 613.816 428.78 613.767 428.284C613.727 427.898 613.484 428.162 613.224 428.872C612.966 429.585 612.448 430.167 612.078 430.167C611.591 430.167 611.486 430.497 611.696 431.341C612.012 432.599 611.616 432.813 610.48 431.996C609.898 431.579 609.931 431.54 610.664 431.779C611.347 432.002 611.438 431.93 611.054 431.469C610.516 430.817 611.477 428.969 612.053 429.545C612.223 429.715 612.377 429.659 612.396 429.422C612.417 429.184 612.51 428.567 612.602 428.051C612.745 427.25 612.687 427.215 612.212 427.816C611.907 428.204 611.126 428.561 610.48 428.608C609.832 428.656 609.558 428.59 609.865 428.46C610.175 428.33 610.313 427.867 610.173 427.432C609.979 426.823 610.026 426.785 610.375 427.275C610.957 428.088 611.442 425.312 610.875 424.418C610.528 423.871 610.286 424.242 610.425 425.111C610.507 425.636 609.64 425.539 609.3 424.985C609.137 424.723 608.771 424.651 608.486 424.828C608.154 425.033 608.076 424.87 608.27 424.366C608.596 423.511 607.902 423.278 607.409 424.077C607.239 424.35 607.65 425.08 608.321 425.7C608.99 426.321 609.533 427.103 609.525 427.44C609.516 427.776 609.271 427.628 608.98 427.11C608.687 426.591 608.166 426.001 607.824 425.797C607.481 425.592 606.957 424.956 606.659 424.385C606.362 423.815 606.288 423.505 606.494 423.697C606.699 423.887 607.155 423.805 607.508 423.512C607.863 423.218 608.286 423.113 608.449 423.276C608.612 423.441 609.031 423.338 609.378 423.051C609.843 422.665 610.01 422.667 610.01 423.055C610.01 423.346 609.797 423.584 609.539 423.584C609.281 423.584 609.068 423.827 609.068 424.127C609.068 424.434 609.479 424.298 610.012 423.815C611.114 422.818 611.077 422.748 609.132 422.19C608.042 421.879 607.487 421.941 607 422.428C606.432 422.995 606.302 422.991 606.075 422.401C605.931 422.023 605.962 421.736 606.147 421.763C607.124 421.91 607.601 421.629 607.376 421.045C607.049 420.192 608.061 419.565 608.711 420.217C609.066 420.572 609.502 420.57 610.2 420.215C611.12 419.744 611.135 419.765 610.416 420.518C609.801 421.164 609.454 421.22 608.664 420.797C607.888 420.38 607.729 420.401 607.917 420.886C608.197 421.616 609.871 421.835 610.268 421.193C610.42 420.948 610.761 420.88 611.027 421.045C611.31 421.22 611.436 420.981 611.329 420.465C611.23 419.982 610.786 419.616 610.344 419.651C609.898 419.688 609.523 419.373 609.502 418.945C609.479 418.458 609.378 418.392 609.227 418.764C609.097 419.086 608.784 419.35 608.532 419.35C608.28 419.35 608.203 419.139 608.365 418.881C608.852 418.091 608.034 418.359 607.429 419.187C606.979 419.802 606.783 419.837 606.482 419.35C606.213 418.916 606.286 418.848 606.725 419.121C607.173 419.397 607.266 419.292 607.054 418.741C606.862 418.239 607.202 417.622 608.032 416.959L609.304 415.942L608.129 416.289C607.167 416.571 607.06 416.522 607.541 416.018C607.865 415.68 608.106 414.967 608.082 414.437C608.04 413.611 607.98 413.64 607.658 414.65C607.392 415.481 607.268 415.576 607.235 414.974C607.208 414.505 606.977 414.253 606.717 414.414C606.459 414.573 606.247 414.468 606.247 414.179C606.247 413.89 606.038 413.783 605.784 413.939C605.528 414.096 604.841 413.776 604.254 413.227C603.67 412.678 603.48 412.296 603.833 412.381C604.188 412.463 604.539 412.162 604.616 411.71C604.709 411.157 604.449 410.886 603.827 410.886C603.247 410.886 603.026 411.089 603.237 411.429C603.451 411.78 603.365 411.844 602.987 411.611C601.835 410.899 603.297 410.162 604.764 410.715C605.823 411.115 606.092 411.085 606.092 410.56C606.092 410.201 605.842 410.001 605.538 410.118C604.599 410.478 603.918 409.728 604.203 408.642C604.352 408.073 604.641 407.709 604.847 407.835C605.051 407.963 605.109 407.643 604.973 407.125C604.671 405.969 603.423 405.872 603.433 407.008C603.439 407.718 603.509 407.734 603.939 407.125C604.382 406.498 604.415 406.498 604.226 407.125C604.11 407.513 603.743 407.767 603.41 407.689C603.078 407.61 602.638 407.819 602.432 408.155C602.126 408.647 601.938 408.638 601.447 408.11C601.113 407.751 601.08 407.592 601.375 407.757C602.291 408.269 603.179 406.785 602.467 405.928C601.982 405.342 601.779 405.319 601.433 405.81C601.084 406.306 601.034 406.304 601.168 405.796C601.259 405.453 601.517 405.207 601.74 405.249C601.963 405.29 602.347 405.042 602.595 404.696C602.933 404.223 602.981 404.266 602.787 404.877C602.465 405.874 603.01 406.266 603.918 405.69C604.387 405.393 604.418 405.257 604.013 405.251C603.691 405.247 603.427 404.716 603.427 404.068C603.427 402.555 604.261 402.545 604.64 404.056C604.898 405.079 605.014 405.135 605.627 404.52C606.011 404.138 606.465 403.913 606.639 404.018C606.812 404.126 606.981 403.651 607.014 402.966C607.076 401.746 607.068 401.741 606.591 402.776C605.993 404.074 605.029 404.148 604.709 402.92C604.523 402.212 604.147 402.049 603.032 402.189C601.6 402.371 601.6 402.369 602.529 401.44C603.041 400.926 603.664 400.633 603.914 400.788C604.164 400.941 604.366 400.866 604.366 400.621C604.366 399.77 602.979 399.642 602.463 400.443C601.992 401.172 601.971 401.166 602.221 400.367C602.444 399.665 602.31 399.537 601.552 399.735C601.032 399.871 600.605 399.793 600.605 399.557C600.605 399.322 601.082 399.118 601.664 399.101L602.721 399.072L601.633 398.635C600.945 398.36 600.671 397.98 600.885 397.607C601.073 397.281 601.051 397.173 600.838 397.367C600.105 398.032 600.167 400.226 600.935 400.788C601.534 401.228 601.563 401.415 601.073 401.719C600.64 401.987 600.572 401.915 600.844 401.475C601.123 401.023 601.016 400.934 600.452 401.151C600.025 401.314 599.699 401.298 599.725 401.112C599.901 399.944 599.633 399.512 599.038 400.008C598.565 400.4 598.411 400.363 598.411 399.855C598.411 399.485 598.534 399.196 598.685 399.213C599.637 399.316 599.922 398.982 599.855 397.838C599.816 397.128 599.544 396.597 599.253 396.663C598.962 396.727 598.724 396.556 598.724 396.281C598.724 396.009 598.53 395.904 598.291 396.052C598.053 396.199 597.529 395.988 597.124 395.584C595.659 394.118 581.463 388.706 579.394 388.823C578.913 388.85 578.895 388.924 579.33 389.098ZM601.546 403.884C601.546 404.153 601.189 404.014 600.753 403.581C600.012 402.838 599.924 402.842 599.344 403.637C599.003 404.103 598.724 404.274 598.724 404.016C598.724 403.76 598.968 403.308 599.267 403.009C599.874 402.402 601.546 403.044 601.546 403.884ZM607.564 404.266C606.895 405.046 606.884 405.207 607.483 405.437C607.923 405.606 608.057 405.507 607.848 405.17C607.617 404.799 607.888 404.731 608.734 404.941C609.407 405.11 610.086 405.032 610.251 404.764C610.414 404.497 610.375 404.312 610.162 404.349C609.095 404.532 608.106 404.25 608.365 403.833C608.843 403.056 608.389 403.302 607.564 404.266ZM607.357 407.008C607.398 407.524 607.116 407.806 606.599 407.765C606.147 407.73 605.778 407.887 605.778 408.118C605.778 408.704 607.068 408.64 607.444 408.033C607.613 407.757 608.09 407.66 608.503 407.819C609.103 408.05 609.081 407.918 608.381 407.146C607.324 405.977 607.275 405.971 607.357 407.008ZM610.245 409.476C610.084 409.734 610.125 409.968 610.334 409.992C610.544 410.019 610.253 410.178 609.69 410.345C608.738 410.63 608.717 410.719 609.401 411.592C609.993 412.35 610.08 412.373 609.853 411.71C609.671 411.181 609.805 410.886 610.231 410.886C610.602 410.886 610.86 410.475 610.821 409.947C610.74 408.88 610.656 408.812 610.245 409.476ZM606.87 410.257C607.345 410.732 606.259 411.803 605.571 411.539C605.179 411.388 604.983 411.673 605.018 412.342C605.053 413.043 605.423 413.434 606.158 413.545C606.843 413.65 607.13 413.524 606.934 413.207C606.763 412.93 606.327 412.816 605.966 412.957C605.602 413.095 605.307 413.004 605.307 412.752C605.307 412.503 605.631 412.298 606.028 412.298C606.424 412.298 606.876 411.962 607.033 411.553C607.262 410.952 607.396 410.93 607.716 411.435C608.286 412.335 608.22 412.878 607.586 412.488C607.241 412.276 607.171 412.36 607.392 412.717C607.665 413.157 607.894 413.159 608.42 412.719C609.046 412.201 607.72 409.947 606.794 409.947C606.666 409.947 606.701 410.085 606.87 410.257ZM613.337 413.326C613.315 413.826 613.63 414.094 614.19 414.053C614.739 414.012 614.983 413.737 614.83 413.337C614.644 412.852 614.493 412.831 614.233 413.252C613.971 413.675 613.822 413.655 613.63 413.174C613.447 412.713 613.364 412.757 613.337 413.326ZM605.093 415.236C605.776 414.862 606.639 415.236 606.835 415.989C607.138 417.147 605.594 419.255 605.066 418.402C604.849 418.047 604.88 417.911 605.14 418.072C605.388 418.225 605.844 417.94 606.158 417.44C606.798 416.412 606.308 416.229 605.297 417.116C604.927 417.44 605.043 417.207 605.553 416.6C606.43 415.554 606.432 415.504 605.609 415.659C605.068 415.762 604.471 415.378 604.032 414.65C603.361 413.535 603.363 413.522 604.1 414.414C604.527 414.93 604.975 415.302 605.093 415.236ZM615.453 415.176C615.579 415.38 616.015 415.422 616.419 415.265C616.826 415.11 617.319 415.242 617.515 415.56C617.788 416.002 617.932 415.981 618.129 415.471C618.316 414.978 617.974 414.806 616.803 414.806C615.934 414.806 615.327 414.972 615.453 415.176ZM611.954 416.128C611.888 417.393 610.798 418.192 609.894 417.634C609.599 417.451 609.531 417.548 609.729 417.868C610.6 419.276 612.571 417.775 612.225 415.969C612.035 414.969 612.014 414.982 611.954 416.128ZM614.241 418.908C614.241 419.183 614.452 419.276 614.712 419.117C615.135 418.854 615.385 419.472 615.237 420.409C615.208 420.603 615.404 420.762 615.672 420.762C616.269 420.762 616.075 419.253 615.416 418.77C614.741 418.274 614.241 418.332 614.241 418.908ZM611.457 426.806C611.477 427.231 611.593 427.339 611.715 427.041C611.837 426.746 612.349 426.612 612.852 426.744C613.358 426.876 613.771 426.8 613.771 426.577C613.771 426.352 613.242 426.139 612.596 426.102C611.779 426.055 611.432 426.269 611.457 426.806ZM610.949 429.583C610.949 429.779 610.474 430.237 609.892 430.598C608.893 431.222 608.874 431.209 609.539 430.396C610.189 429.599 610.162 429.554 609.186 429.806C608.604 429.956 608.245 429.886 608.391 429.653C608.709 429.137 610.949 429.077 610.949 429.583ZM615.183 429.977C615.183 430.064 615.631 430.373 616.18 430.666C616.88 431.042 617.082 431.046 616.857 430.683C616.681 430.398 616.787 430.167 617.09 430.167C617.412 430.167 617.54 430.559 617.396 431.108C617.262 431.624 617.342 431.93 617.577 431.785C617.811 431.641 618.003 431.191 618.003 430.786C618.003 430.185 618.133 430.159 618.709 430.635C619.196 431.04 619.415 431.059 619.415 430.693C619.415 430.404 619.256 430.14 619.062 430.107C618.036 429.938 615.183 429.843 615.183 429.977ZM621.417 433.143C621.049 433.949 621.062 434.242 621.458 434.242C621.755 434.242 622.03 433.748 622.067 433.143C622.154 431.769 622.042 431.769 621.417 433.143ZM622.722 434.37C622.373 435.02 622.387 435.377 622.777 435.619C623.114 435.827 623.194 435.749 622.986 435.412C622.781 435.08 622.982 434.855 623.5 434.832C623.999 434.809 624.107 434.696 623.76 434.555C623.436 434.425 623.289 434.124 623.436 433.889C623.582 433.651 623.591 433.457 623.454 433.457C623.32 433.457 622.99 433.868 622.722 434.37ZM617.082 433.928C617.032 434.058 616.915 434.566 616.822 435.057C616.731 435.548 616.376 436.126 616.035 436.343C615.144 436.909 615.629 436.828 617.767 436.058C619.024 435.606 619.309 435.373 618.626 435.358C618.058 435.348 617.505 434.972 617.388 434.516C617.268 434.062 617.131 433.798 617.082 433.928ZM612.776 436.69C612.732 437.311 612.681 437.295 612.501 436.607C612.315 435.889 612.163 435.852 611.498 436.372C610.813 436.907 610.788 436.89 611.298 436.236C611.62 435.825 611.725 435.303 611.533 435.076C611.341 434.849 611.556 434.948 612.008 435.294C612.46 435.641 612.807 436.269 612.776 436.69ZM617.167 438.893C616.593 439.295 616.122 439.865 616.122 440.158C616.122 440.451 616.428 440.28 616.801 439.778C617.46 438.89 617.476 438.895 617.406 439.923C617.365 440.505 617.049 440.982 616.7 440.982C616.351 440.982 616.207 441.207 616.376 441.483C616.547 441.758 616.805 441.867 616.95 441.723C617.092 441.578 617.468 441.673 617.782 441.933C618.178 442.261 618.68 442.142 619.429 441.533C620.259 440.862 620.364 440.573 619.887 440.278C619.487 440.03 619.382 440.079 619.59 440.414C619.941 440.984 618.31 442.072 617.829 441.591C617.664 441.427 617.881 440.905 618.31 440.432C618.777 439.916 618.872 439.57 618.546 439.57C618.248 439.57 618.003 439.365 618.003 439.115C618.003 438.864 618.356 438.796 618.785 438.961C619.311 439.161 619.456 439.08 619.229 438.711C618.779 437.984 618.42 438.015 617.167 438.893ZM622.344 440.982C622.668 441.498 623.106 441.921 623.316 441.921C623.529 441.921 623.568 442.138 623.407 442.4C623.244 442.662 622.881 442.736 622.6 442.563C622.288 442.369 622.226 442.466 622.439 442.813C622.711 443.252 622.94 443.252 623.469 442.815C624.051 442.332 623.999 442.094 623.11 441.147C621.838 439.793 621.566 439.735 622.344 440.982ZM626.974 446.466C626.953 447.028 626.673 447.593 626.351 447.724C625.89 447.909 625.892 447.969 626.365 447.998C627.077 448.041 627.597 446.906 627.255 446.051C627.121 445.719 626.995 445.907 626.974 446.466ZM289.787 462.176C289.787 463.41 293.887 474.658 295.852 478.814C306.923 502.225 328.86 521.008 353.148 527.878C357.029 528.974 356.934 529.104 355.563 524.497C348.433 500.512 330.631 479.609 307.889 468.517C300.872 465.095 289.787 461.212 289.787 462.176ZM133.436 463.749C105.504 473.201 83.7957 494.919 74.7004 522.513C72.6878 528.615 72.6403 529.079 74.0708 528.683C104.294 520.285 127.963 498.115 137.859 468.928C140.559 460.966 140.807 461.255 133.436 463.749ZM434.615 462.923C434.615 466.003 441.056 481.023 445.315 487.872C457.281 507.121 476.96 522.085 497.966 527.905L501.284 528.825L500.126 524.99C491.342 495.91 468.693 472.734 440.135 463.608C434.814 461.907 434.615 461.883 434.615 462.923ZM566.513 464.048C538.573 473.418 515.763 496.893 507.753 524.519C506.302 529.525 505.683 529.261 513.073 526.786C537.113 518.737 556.809 501.22 567.469 478.407C569.137 474.84 573.331 463.373 573.331 462.384C573.331 461.883 572.002 462.207 566.513 464.048ZM434.911 537.902C443.853 568.018 465.524 590.661 494.73 600.405C501.469 602.653 501.292 602.702 500.229 598.873C492.054 569.417 463.916 541.898 435.689 535.757L434.176 535.429L434.911 537.902ZM579.204 536.554C586.609 563.202 604.277 584.386 628.919 596.156C633.332 598.264 645.173 602.529 645.555 602.147C645.864 601.837 641.546 589.683 639.74 585.779C629.329 563.291 608.837 545.158 584.984 537.324C578.426 535.171 578.835 535.227 579.204 536.554ZM61.0204 610.759C31.9614 620.513 6.8163 647.171 0.860828 674.537L0.534668 676.04L3.97584 675.074C33.8461 666.691 57.9157 642.367 67.0626 611.32C67.9481 608.309 68.2413 608.336 61.0204 610.759ZM133.632 610.672C105.983 619.776 84.2705 641.315 74.9048 668.933C72.2584 676.736 72.0375 676.484 79.3595 674.013C103.592 665.84 122.683 649.021 133.644 626.181C136.229 620.796 139.783 611.166 139.783 609.549C139.783 608.629 139.905 608.608 133.632 610.672ZM145.427 609.525C145.427 612.293 150.79 625.603 154.526 632.11C166.664 653.246 185.786 668.2 209.792 675.328L212.267 676.063L211.938 674.55C206.066 647.499 181.158 620.8 152.716 611.069C146.23 608.849 145.427 608.68 145.427 609.525ZM352.091 610.224C324.089 618.649 301.002 641.257 291.647 669.42C289.302 676.476 289.205 676.222 293.728 674.868C323.082 666.09 346.931 642.305 355.592 613.17C356.928 608.684 357.002 608.748 352.091 610.224ZM424.504 610.241C396.077 618.892 373.069 641.498 363.831 669.849C361.659 676.517 361.463 676.302 367.844 674.248C395.726 665.269 417.878 643.321 427.112 615.525C429.477 608.406 429.614 608.684 424.504 610.241ZM566.792 611.023C539.174 620.255 517.668 641.777 508.426 669.436C506.223 676.028 506.211 675.941 509.246 675.177C530.008 669.95 551.549 653.283 563.367 633.303C567.506 626.307 574.165 609.999 573.255 609.089C573.162 608.996 570.254 609.865 566.792 611.023ZM639.164 610.996C615.705 618.882 595.898 636.292 585.319 658.333C582.646 663.902 578.69 675.026 579.202 675.538C579.77 676.106 591.918 671.662 597.548 668.825C619.359 657.843 635.978 638.726 643.61 615.845C646.122 608.313 646.364 608.577 639.164 610.996ZM133.436 684.297C105.782 693.434 83.7048 715.513 74.688 743.049C72.6898 749.155 72.6423 749.615 74.0708 749.219C104.395 740.789 128.176 718.467 137.938 689.272C140.493 681.626 140.729 681.886 133.436 684.297ZM290.08 683.971C297.408 714.238 323.592 740.353 355.499 749.219C356.957 749.624 356.889 748.916 354.893 742.925C345.783 715.571 323.398 693.217 296.225 684.339C289.973 682.295 289.671 682.276 290.08 683.971ZM435.41 686.556C444.313 715.612 466.094 737.971 494.868 747.59C502.002 749.975 501.678 750.305 499.281 743.101C490.023 715.27 468.028 693.246 440.583 684.328C433.697 682.091 434.002 681.958 435.41 686.556ZM579.252 683.971C584.609 707.479 604.508 731.491 628.114 742.927C633.256 745.419 645.136 749.745 645.59 749.291C645.693 749.188 644.919 746.484 643.866 743.28C634.756 715.536 612.588 693.357 584.943 684.336C578.835 682.342 578.88 682.344 579.252 683.971Z" fill="url(#paint0_linear_1_935)"/>
<defs>
<linearGradient id="paint0_linear_1_935" x1="-50.3957" y1="468.535" x2="648.861" y2="473.836" gradientUnits="userSpaceOnUse">
<stop stop-color="#2C2C2C"/>
<stop offset="0.895972" stop-color="#2C2C2C" stop-opacity="0.55"/>
<stop offset="0.899986" stop-color="#2C2C2C" stop-opacity="0"/>
<stop offset="1" stop-color="#2C2C2C" stop-opacity="0"/>
</linearGradient>
</defs>
</svg>
