<?xml version="1.0" encoding="utf-8"?>
<!-- Generator: Adobe Illustrator 24.0.0, SVG Export Plug-In . SVG Version: 6.00 Build 0)  -->
<svg version="1.0" id="Layer_1" xmlns="http://www.w3.org/2000/svg" xmlns:xlink="http://www.w3.org/1999/xlink" x="0px" y="0px"
	 viewBox="0 0 1028 1028" style="enable-background:new 0 0 1028 1028;" xml:space="preserve">
<style type="text/css">
	.st0{display:none;}
	.st1{fill:#CCCCCC;stroke:#CCCCCC;stroke-miterlimit:10;}
</style>
<rect x="0.25" y="-2.2" class="st0" width="1028" height="1028"/>
<g>
	<path class="st1" d="M727.08,314.67c11.89,47.79,49.53,85.43,97.31,97.31C812.51,364.19,774.87,326.55,727.08,314.67z"/>
	<path class="st1" d="M517.7,314.67c11.89,47.79,49.53,85.43,97.31,97.31C603.13,364.19,565.49,326.55,517.7,314.67z"/>
	<path class="st1" d="M831.62,411.98c47.79-11.89,85.43-49.53,97.31-97.31C881.14,326.55,843.51,364.19,831.62,411.98z"/>
	<path class="st1" d="M203.73,527.5c11.89,47.79,49.53,85.43,97.31,97.31C289.15,577.03,251.51,539.39,203.73,527.5z"/>
	<path class="st1" d="M308.44,624.81c47.79-11.89,85.43-49.53,97.31-97.31C357.97,539.39,320.33,577.03,308.44,624.81z"/>
	<path class="st1" d="M517.6,420.14c11.89,47.79,49.53,85.43,97.31,97.31C603.03,469.67,565.39,432.03,517.6,420.14z"/>
	<path class="st1" d="M99.07,731.38c47.79-11.89,85.43-49.53,97.31-97.31C148.59,645.95,110.96,683.59,99.07,731.38z"/>
	<path class="st1" d="M413.04,730.8c47.79-11.89,85.43-49.53,97.31-97.31C462.57,645.38,424.93,683.02,413.04,730.8z"/>
	<path class="st1" d="M413.04,517.45c47.79-11.89,85.43-49.53,97.31-97.31C462.57,432.03,424.93,469.67,413.04,517.45z"/>
	<path class="st1" d="M405.67,420.14c-47.79,11.89-85.43,49.53-97.31,97.31C356.14,505.57,393.78,467.93,405.67,420.14z"/>
	<path class="st1" d="M308.35,633.49c11.89,47.79,49.53,85.43,97.31,97.31C393.78,683.02,356.14,645.38,308.35,633.49z"/>
</g>
</svg>
