<svg xmlns="http://www.w3.org/2000/svg" xmlns:xlink="http://www.w3.org/1999/xlink" viewBox="0 0 200 200" width="200"
     height="200" preserveAspectRatio="xMidYMid meet"
     style="width: 100%; height: 100%; transform: translate3d(0px, 0px, 0px); content-visibility: visible;"
     id="Multi Shape Loader">
    <defs>
        <clipPath id="__lottie_element_38">
            <rect width="200" height="200" x="0" y="0"/>
        </clipPath>
    </defs>
    <g clip-path="url(#__lottie_element_38)">
        <g transform="matrix(0.800000011920929,0,0,0.800000011920929,99.89800262451172,97.93299865722656)" opacity="1"
           style="display: block;">
            <g opacity="1"
               transform="matrix(0.8769718408584595,0.48054176568984985,-0.48054176568984985,0.8769718408584595,1,10)">
                <path fill="#8C50A0" fill-opacity="1"
                      d=" M-83,-24 C-67.69465637207031,-76.92967224121094 -57.891475677490234,-84.55364990234375 -2.822999954223633,-86.35399627685547 C52.24547576904297,-88.15435028076172 62.52567672729492,-81.18727111816406 81.25499725341797,-29.3700008392334 C99.98432159423828,22.44727325439453 96.53521728515625,34.3781852722168 53.04199981689453,68.2030029296875 C9.548784255981445,102.02781677246094 -2.864070415496826,102.43306732177734 -48.4739990234375,71.52100372314453 C-94.08393096923828,40.60893630981445 -98.30534362792969,28.929672241210938 -83,-24z"/>
                <path stroke-linecap="butt" stroke-linejoin="miter" fill-opacity="0" stroke-miterlimit="4"
                      stroke="rgb(42,152,176)" stroke-opacity="1" stroke-width="0"
                      d=" M-83,-24 C-67.69465637207031,-76.92967224121094 -57.891475677490234,-84.55364990234375 -2.822999954223633,-86.35399627685547 C52.24547576904297,-88.15435028076172 62.52567672729492,-81.18727111816406 81.25499725341797,-29.3700008392334 C99.98432159423828,22.44727325439453 96.53521728515625,34.3781852722168 53.04199981689453,68.2030029296875 C9.548784255981445,102.02781677246094 -2.864070415496826,102.43306732177734 -48.4739990234375,71.52100372314453 C-94.08393096923828,40.60893630981445 -98.30534362792969,28.929672241210938 -83,-24z"/>
            </g>
        </g>
    </g>
</svg>