<?xml version="1.0" encoding="utf-8"?>
<!-- Generator: Adobe Illustrator 24.0.0, SVG Export Plug-In . SVG Version: 6.00 Build 0)  -->
<svg version="1.0" id="Layer_1" xmlns="http://www.w3.org/2000/svg" xmlns:xlink="http://www.w3.org/1999/xlink" x="0px" y="0px"
	 viewBox="0 0 293.67 58.11" style="enable-background:new 0 0 293.67 58.11;" xml:space="preserve">
<style type="text/css">
	.st0{fill:#010101;}
	.st1{fill:#BDBCBC;}
</style>
	<g>
	<g>
		<path class="st0" d="M0.23,58.22h91.59c6.27,0,6.06,0,9.27-5.23l1.32-2.16H0.23V58.22z"/>
		<path class="st0" d="M9.84,44h49.82v-7.52L2.94,36.62V0.11H0.23v34.77C0.23,42.19,1.06,44,9.84,44z"/>
		<path class="st0" d="M77.29,36.48V14.67h6.97c7.39,0,7.94,0.49,9.68,8.85l1.32,6.27h4.04l-1.88-8.36
			C94.63,9.16,95.33,9.44,83,9.44h-6.83l-1.39,19.79C73.8,42.68,73.73,44,84.39,44h68.77v-7.52H77.29z"/>
		<rect x="65.65" y="0.11" class="st0" width="2.72" height="43.89"/>
		<polygon class="st0" points="130.64,29.85 138.16,29.85 145.68,29.85 145.68,22.34 138.16,22.34 130.64,22.34 123.13,22.34 
			119.37,22.34 119.37,29.85 123.13,29.85 		"/>
		<polygon class="st0" points="42.73,29.85 44.6,29.85 52.12,29.85 52.12,22.34 44.6,22.34 42.73,22.34 		"/>
	</g>
		<g>
		<polygon class="st1" points="219.85,20.16 234.24,12.07 234.24,9.44 219.85,17.53 		"/>
			<path class="st1" d="M201.78,39.92l0.08,3.23l3.15,0.57c4.41,0.81,6.47-0.04,8.93-3.64l0.45-0.65c1.13-1.66,1.86-2.71,2.1-4.12
			c1.37,0.81,3.19,0.77,6.02,0.77h25.22V30.7c0-5.7-2.26-7.44-9.42-7.44h-15.4l11.44-5.9v-3.6l-14.63,8.25v4.69h17.5
			c5.82,0,7.28,0,7.28,2.95v3.03H222.2c-5.38,0-5.62-0.2-6.31-4.41l-1.05-6.27l-2.95,1.62l2.02,11.28l-1.78,2.47
			c-2.14,2.99-3.52,3.68-6.63,3.15L201.78,39.92z"/>
			<path class="st1" d="M198.07,22.01l-2.95,1.62l2.02,11.28l-1.78,2.47c-2.14,2.99-3.52,3.68-6.63,3.15l-3.72-0.61l0.08,3.23
			l3.15,0.57c4.41,0.81,6.47-0.04,8.93-3.64l0.44-0.65c2.55-3.72,2.67-4.08,1.5-11.16L198.07,22.01z"/>
			<rect x="210.8" y="15.91" class="st1" width="4.12" height="4.12"/>
			<path class="st1" d="M258.49,30.06c0,4.65,1.54,6.02,6.51,6.02h28.9V30.7c0-5.7-2.26-7.44-9.42-7.44h-15.4l11.44-5.66v-3.84
			l-14.63,7.8v5.13h17.5c5.82,0,7.28,0,7.28,2.95v3.03H265c-2.91,0-3.31-0.36-3.31-2.63V11.83l-3.19,0.81V30.06z"/>
			<path class="st1" d="M173.85,27.92h4.89l-0.77-3.4h-5.21c-6.75,0-9.42,1.98-9.42,7.19v4.32h27.89L192,32.6h-25.42v-1.58
			C166.58,28.68,168.15,27.92,173.85,27.92"/>
			<polygon class="st1" points="203.85,12.64 203.85,36.08 207.04,36.08 207.04,11.83 		"/>
			<path class="st1" d="M253.56,22.01l-2.95,1.62l2.02,11.28l-1.78,2.47c-2.14,2.99-3.52,3.68-6.63,3.15l-3.72-0.61l0.08,3.23
			l3.15,0.57c4.41,0.81,6.47-0.04,8.93-3.64l0.45-0.65c2.55-3.72,2.67-4.08,1.49-11.16L253.56,22.01z"/>
	</g>
</g>
</svg>
