<svg width="103" height="119" viewBox="0 0 103 119" fill="none" xmlns="http://www.w3.org/2000/svg">
<path fill-rule="evenodd" clip-rule="evenodd" d="M0.190279 0.457176C0.815367 3.90254 3.93962 10.0448 6.93875 13.7239C11.4962 19.3161 19.4517 24.4419 25.2658 25.5327C25.7156 25.6171 25.7203 25.708 25.1778 23.9059C22.2454 14.1654 14.9787 6.04106 5.50854 1.91512C4.30323 1.38979 1.18251 0.297805 0.454125 0.146698L0.121218 0.0776367L0.190279 0.457176ZM67.2405 0.381622C55.7221 3.72192 46.5571 12.7966 43.2422 24.142C43.0227 24.894 42.8426 25.5415 42.8426 25.5799C42.8426 25.7588 46.0932 24.6927 48.0074 23.887C56.8118 20.1796 63.9156 12.7689 67.2269 3.83702C67.7322 2.4741 68.3225 0.546895 68.3225 0.260028C68.3225 0.0599289 68.3661 0.055207 67.2405 0.381622ZM25.7705 25.8497C26.8985 28.7898 27.0277 36.5039 26.0302 41.3706C25.8808 42.0996 25.7781 42.6957 25.8029 42.6957C25.8271 42.6957 26.4723 42.5665 27.2373 42.4083C31.6288 41.4999 36.564 41.4816 40.9632 42.3587C42.9743 42.7595 42.7942 42.8227 42.5522 41.8009C41.5051 37.3745 41.4862 31.3621 42.5044 26.8496C42.6366 26.2652 42.7446 25.7664 42.7446 25.7411C42.7446 25.7157 42.5121 25.7552 42.2282 25.8284C41.5517 26.0031 39.6729 26.3177 38.0715 26.5249C34.8404 26.9422 29.6355 26.6383 26.2846 25.8367C25.7764 25.7151 25.7191 25.7163 25.7705 25.8497ZM24.4465 43.1296C15.5879 45.5821 7.59158 52.0732 3.16756 60.4036C2.01655 62.5711 0.438779 66.5972 0.190869 68.0015L0.12594 68.368L0.653042 68.2157C12.7528 64.7243 21.5767 56.2021 25.182 44.525C25.7598 42.6532 25.8118 42.7512 24.4465 43.1296ZM42.8426 42.8404C42.8426 43.116 43.7292 45.8731 44.2067 47.0826C47.7383 56.0268 54.7931 63.1773 63.6612 66.8009C64.932 67.3197 68.303 68.4282 68.375 68.3503C68.5361 68.1768 67.1077 64.1193 66.1834 62.1254C61.94 52.9728 53.1392 45.4422 43.9417 43.0936C43.5084 42.9832 43.0834 42.8657 42.9979 42.8327C42.9129 42.8002 42.8426 42.8038 42.8426 42.8404ZM0.0881633 79.9212C-0.0505483 80.2836 0.118857 105.51 0.264652 106.149C0.648322 107.834 1.36962 108.527 3.19707 108.964C3.89063 109.13 5.01508 109.143 21.9131 109.173L39.8913 109.204V106.678V104.151L20.9049 104.222L1.91798 104.293V92.0387V79.7843H1.02963C0.359682 79.7843 0.128301 79.8179 0.0881633 79.9212ZM43.9252 94.4912V109.199H44.8106H45.6959V94.4912V79.7843H44.8106H43.9252V94.4912ZM51.0083 86.1538C51.0083 86.1945 50.8336 88.6406 50.6199 91.5895C49.5203 106.767 49.5427 107.416 51.2049 108.43C52.4881 109.213 51.7892 109.194 78.6273 109.196L102.558 109.199V106.69V104.182H77.1274H51.6965V96.8523V89.5236H54.9855C61.6808 89.5236 61.6106 89.4646 63.1051 96.3506C63.4859 98.1054 63.7969 99.5669 63.7969 99.5988C63.7969 99.6301 64.3949 99.656 65.125 99.656C65.8558 99.656 66.4531 99.6372 66.4531 99.6141C66.4531 99.5911 66.1409 98.1857 65.759 96.4911C65.3776 94.7958 64.9119 92.7228 64.7242 91.8847C63.7214 87.3957 63.0591 86.5032 60.5009 86.1892C59.5063 86.0676 51.0083 86.0357 51.0083 86.1538ZM28.5783 97.197V99.656H31.7262H34.8741V97.197V94.7374H31.7262H28.5783V97.197ZM79.9312 97.197V99.656H88.7355H97.5404V97.197V94.7374H88.7355H79.9312V97.197ZM0.0716361 116.257L0.0981968 118.692L31.2345 118.719C61.9423 118.746 64.0755 118.728 65.0058 118.432C65.7094 118.207 66.7907 116.803 68.4588 113.946C68.5167 113.847 61.6549 113.822 34.288 113.822H0.0456631L0.0716361 116.257Z" fill="white"/>
<path fill-rule="evenodd" clip-rule="evenodd" d="M0.190279 0.457176C0.815367 3.90254 3.93962 10.0448 6.93875 13.7239C11.4962 19.3161 19.4517 24.4419 25.2658 25.5327C25.7156 25.6171 25.7203 25.708 25.1778 23.9059C22.2454 14.1654 14.9787 6.04106 5.50854 1.91512C4.30322 1.38979 1.18251 0.297805 0.454125 0.146698L0.121218 0.0776367L0.190279 0.457176ZM67.2405 0.381622C55.7221 3.72192 46.5571 12.7966 43.2422 24.142C43.0227 24.894 42.8426 25.5415 42.8426 25.5799C42.8426 25.7588 46.0932 24.6927 48.0074 23.887C56.8118 20.1796 63.9156 12.7689 67.2269 3.83702C67.7322 2.4741 68.3225 0.546895 68.3225 0.260028C68.3225 0.0599289 68.3662 0.055207 67.2405 0.381622ZM25.7705 25.8497C26.8985 28.7898 27.0277 36.5039 26.0302 41.3706C25.8808 42.0996 25.7781 42.6957 25.8029 42.6957C25.8271 42.6957 26.4723 42.5665 27.2373 42.4083C31.6288 41.4999 36.564 41.4816 40.9632 42.3587C42.9743 42.7595 42.7942 42.8227 42.5522 41.8009C41.5051 37.3745 41.4862 31.3621 42.5044 26.8496C42.6366 26.2652 42.7446 25.7664 42.7446 25.7411C42.7446 25.7157 42.5121 25.7552 42.2282 25.8284C41.5517 26.0031 39.6729 26.3177 38.0715 26.5249C34.8404 26.9422 29.6355 26.6383 26.2846 25.8367C25.7764 25.7151 25.7191 25.7163 25.7705 25.8497ZM24.4465 43.1296C15.5879 45.5821 7.59158 52.0732 3.16756 60.4036C2.01655 62.5711 0.438779 66.5972 0.190869 68.0015L0.12594 68.368L0.653042 68.2157C12.7528 64.7243 21.5767 56.2021 25.182 44.525C25.7598 42.6532 25.8118 42.7512 24.4465 43.1296ZM42.8426 42.8404C42.8426 43.116 43.7292 45.8731 44.2067 47.0826C47.7383 56.0268 54.7931 63.1773 63.6612 66.8009C64.932 67.3197 68.303 68.4282 68.375 68.3503C68.5361 68.1768 67.1077 64.1193 66.1834 62.1254C61.94 52.9728 53.1392 45.4422 43.9417 43.0936C43.5084 42.9832 43.0834 42.8657 42.9979 42.8327C42.9129 42.8002 42.8426 42.8038 42.8426 42.8404ZM0.0881633 79.9212C-0.0505483 80.2836 0.118857 105.51 0.264652 106.149C0.648322 107.834 1.36962 108.527 3.19707 108.964C3.89063 109.13 5.01508 109.143 21.9131 109.173L39.8913 109.204V106.678V104.151L20.9049 104.222L1.91798 104.293V92.0387V79.7843H1.02963C0.359682 79.7843 0.128301 79.8179 0.0881633 79.9212ZM43.9252 94.4912V109.199H44.8106H45.6959V94.4912V79.7843H44.8106H43.9252V94.4912ZM51.0083 86.1538C51.0083 86.1945 50.8336 88.6406 50.6199 91.5895C49.5203 106.767 49.5427 107.416 51.2049 108.43C52.4881 109.213 51.7892 109.194 78.6273 109.196L102.558 109.199V106.69V104.182H77.1274H51.6965V96.8523V89.5236H54.9855C61.6808 89.5236 61.6106 89.4646 63.1051 96.3506C63.4859 98.1054 63.7969 99.5669 63.7969 99.5988C63.7969 99.6301 64.3949 99.656 65.125 99.656C65.8558 99.656 66.4531 99.6372 66.4531 99.6141C66.4531 99.5911 66.1409 98.1857 65.759 96.4911C65.3776 94.7958 64.9119 92.7228 64.7242 91.8847C63.7214 87.3957 63.0591 86.5032 60.5009 86.1892C59.5063 86.0676 51.0083 86.0357 51.0083 86.1538ZM28.5783 97.197V99.656H31.7262H34.8741V97.197V94.7374H31.7262H28.5783V97.197ZM79.9312 97.197V99.656H88.7355H97.5404V97.197V94.7374H88.7355H79.9312V97.197ZM0.0716361 116.257L0.0981968 118.692L31.2345 118.719C61.9423 118.746 64.0755 118.728 65.0058 118.432C65.7094 118.207 66.7907 116.803 68.4588 113.946C68.5167 113.847 61.6549 113.822 34.288 113.822H0.045663L0.0716361 116.257Z" fill="white"/>
<path fill-rule="evenodd" clip-rule="evenodd" d="M0.0566656 0.221348C0.0619779 0.369504 0.083228 0.393705 0.121005 0.295131C0.151698 0.213675 0.225481 0.115101 0.285098 0.0755537C0.351797 0.0306938 0.327596 0.0023612 0.221348 0.00177094C0.105657 0.000590415 0.0519435 0.0726022 0.0566656 0.221348ZM68.2986 0.246139C68.3246 0.381309 68.363 0.491688 68.3836 0.491688C68.4043 0.491688 68.4214 0.381309 68.4214 0.246139C68.4214 0.110969 68.383 0 68.3364 0C68.2898 0 68.2727 0.110969 68.2986 0.246139ZM68.1346 1.04122C68.0708 1.29326 68.0372 1.51815 68.0596 1.54058C68.0826 1.56301 68.1529 1.37531 68.216 1.12327C68.2798 0.871227 68.3134 0.646337 68.291 0.623907C68.2679 0.600887 68.1977 0.789181 68.1346 1.04122ZM65.0457 1.00167C64.7311 1.11146 64.4909 1.2183 64.5121 1.23955C64.557 1.28382 65.7652 0.886574 65.7652 0.826957C65.7652 0.763209 65.6531 0.790361 65.0457 1.00167ZM5.95161 2.11491C6.08737 2.19223 6.24202 2.25598 6.29633 2.25598C6.35004 2.25598 6.28393 2.19223 6.14876 2.11491C6.01359 2.03759 5.85835 1.97443 5.80405 1.97443C5.75033 1.97443 5.81644 2.03759 5.95161 2.11491ZM62.2237 2.16449C62.0342 2.26779 61.9232 2.35279 61.9775 2.35279C62.0318 2.35279 62.2307 2.26779 62.4202 2.16449C62.6097 2.06061 62.7201 1.97561 62.6664 1.97561C62.6121 1.97561 62.4126 2.06061 62.2237 2.16449ZM60.2315 3.15495C60.0285 3.26179 59.8626 3.37158 59.8626 3.39814C59.8626 3.42529 60.0397 3.35682 60.2557 3.24644C60.4724 3.13606 60.6494 3.0245 60.6494 2.99853C60.6494 2.93419 60.6489 2.93419 60.2315 3.15495ZM8.01753 3.09533C8.01753 3.12249 8.23888 3.25707 8.50981 3.39401C8.78015 3.53095 9.0015 3.62126 9.0015 3.59411C9.0015 3.56695 8.78015 3.43296 8.50981 3.29543C8.23888 3.15849 8.01753 3.06877 8.01753 3.09533ZM1.09553 3.54157C1.12858 3.67674 1.21594 3.92052 1.29031 4.08284C1.39774 4.31954 1.4125 4.32957 1.3641 4.13183C1.33104 3.99666 1.24309 3.75289 1.16931 3.59056C1.06129 3.35387 1.04712 3.34384 1.09553 3.54157ZM67.2515 3.74934C67.1913 3.92288 67.1589 4.08284 67.1795 4.1035C67.2008 4.12475 67.2675 3.99962 67.3283 3.82549C67.3885 3.65195 67.4209 3.49258 67.4003 3.47133C67.379 3.45008 67.3123 3.57522 67.2515 3.74934ZM58.2146 4.3402C57.8793 4.55446 57.7707 4.69908 58.067 4.53616C58.2925 4.41221 58.6461 4.13833 58.5835 4.13656C58.5564 4.13597 58.3905 4.22746 58.2146 4.3402ZM10.231 4.37975C10.3396 4.46769 10.5167 4.58339 10.6247 4.63651L10.8213 4.73272L10.6247 4.57276C10.5167 4.48481 10.3396 4.36912 10.231 4.316L10.0345 4.21919L10.231 4.37975ZM11.166 4.95466C11.166 4.98181 11.2988 5.09869 11.4611 5.21379C11.6234 5.32948 11.7563 5.40208 11.7563 5.37493C11.7563 5.34778 11.6234 5.2309 11.4611 5.1158C11.2988 5.00011 11.166 4.92751 11.166 4.95466ZM56.5666 5.46878L56.2715 5.722L56.5914 5.51069C56.7673 5.39441 56.9113 5.2799 56.9113 5.25629C56.9113 5.18309 56.8694 5.20847 56.5666 5.46878ZM11.8542 5.44635C11.8542 5.4735 11.987 5.59037 12.1494 5.70606C12.3117 5.82117 12.4445 5.89377 12.4445 5.86662C12.4445 5.84005 12.3117 5.72318 12.1494 5.60749C11.987 5.4918 11.8542 5.4192 11.8542 5.44635ZM2.02519 5.85363C2.02519 5.90734 2.1096 6.10685 2.21348 6.29633C2.31737 6.4858 2.40178 6.59618 2.40178 6.54188C2.40178 6.48816 2.31737 6.28865 2.21348 6.09918C2.1096 5.90971 2.02519 5.79933 2.02519 5.85363ZM13.0348 6.32112C13.0348 6.34178 13.334 6.59146 13.6988 6.87478C14.0659 7.15988 14.187 7.23012 13.9697 7.0312C13.553 6.65048 13.0348 6.25678 13.0348 6.32112ZM54.673 6.89013C54.2805 7.21536 53.96 7.50282 53.96 7.52938C53.96 7.55595 54.2917 7.30508 54.6978 6.97218C55.3477 6.43799 55.5024 6.29219 55.4109 6.29751C55.3973 6.29869 55.0656 6.5649 54.673 6.89013ZM65.7363 7.23425C65.5368 7.63799 65.3946 7.96854 65.4205 7.96854C65.486 7.96854 66.1796 6.57906 66.1353 6.53538C66.1159 6.5159 65.9364 6.83051 65.7363 7.23425ZM14.8055 7.82097C14.9891 8.01045 15.1615 8.1651 15.1886 8.1651C15.2158 8.1651 15.0877 8.01045 14.9041 7.82097C14.7205 7.6315 14.5482 7.47685 14.521 7.47685C14.4939 7.47685 14.622 7.6315 14.8055 7.82097ZM53.414 7.99333L53.025 8.41124L53.4435 8.02225C53.6731 7.80858 53.8614 7.62028 53.8614 7.60435C53.8614 7.52997 53.7758 7.60435 53.414 7.99333ZM3.24644 8.36224C3.38338 8.63258 3.51796 8.85393 3.54511 8.85393C3.57168 8.85393 3.48196 8.63258 3.34502 8.36224C3.20748 8.09131 3.07349 7.86997 3.04634 7.86997C3.01919 7.86997 3.1095 8.09131 3.24644 8.36224ZM16.4288 9.34562C16.9683 9.88689 17.431 10.3296 17.4582 10.3296C17.4853 10.3296 17.0662 9.88689 16.5273 9.34562C15.9884 8.80494 15.5251 8.36224 15.4979 8.36224C15.4708 8.36224 15.8899 8.80494 16.4288 9.34562ZM64.917 8.78015C64.8261 8.95605 64.6874 9.21045 64.6089 9.34562C64.4714 9.58173 64.472 9.5835 64.6308 9.3952C64.8249 9.16441 65.201 8.46023 65.1301 8.46023C65.1036 8.46023 65.0073 8.60425 64.917 8.78015ZM52.1892 9.10007C51.9502 9.34326 51.7766 9.54277 51.8038 9.54277C51.8309 9.54277 52.0481 9.34326 52.2872 9.10007C52.5262 8.85629 52.6998 8.65738 52.6726 8.65738C52.6455 8.65738 52.4283 8.85629 52.1892 9.10007ZM50.955 10.4034C50.5831 10.8225 50.3812 11.0775 50.507 10.9688C50.769 10.7434 51.7382 9.64075 51.6745 9.64075C51.6509 9.64075 51.3274 9.98428 50.955 10.4034ZM4.26701 10.0834C4.32013 10.1921 4.43523 10.3691 4.52377 10.4772L4.68373 10.6737L4.58693 10.4772C4.5338 10.3691 4.4187 10.1921 4.33016 10.0834L4.1702 9.88689L4.26701 10.0834ZM63.8351 10.5509C63.4963 11.1253 63.4744 11.1743 63.6468 10.9688C63.8463 10.731 64.0187 10.4282 63.9543 10.4282C63.9283 10.4282 63.8746 10.4831 63.8351 10.5509ZM18.1872 11.2433C18.4504 11.5526 18.6871 11.8052 18.7125 11.8052C18.7786 11.8052 17.9593 10.8366 17.8218 10.7522C17.7592 10.7133 17.9233 10.9346 18.1872 11.2433ZM50.0159 11.4853C49.5944 11.9558 49.4026 12.1989 49.4528 12.1989C49.4799 12.1989 49.6889 11.9776 49.9167 11.7067C50.3553 11.1866 50.4267 11.0273 50.0159 11.4853ZM5.45166 11.879C5.50479 11.9735 5.66475 12.1842 5.807 12.3465C6.00297 12.5696 5.98821 12.5277 5.7462 12.1742C5.43041 11.7126 5.26396 11.5455 5.45166 11.879ZM62.7154 12.1989C62.5997 12.3613 62.5271 12.4941 62.5542 12.4941C62.5814 12.4941 62.6982 12.3613 62.8139 12.1989C62.929 12.0366 63.0016 11.9038 62.9745 11.9038C62.9479 11.9038 62.831 12.0366 62.7154 12.1989ZM19.2821 12.5679C19.543 12.9061 19.7738 13.1823 19.7956 13.1823C19.8647 13.1823 19.2077 12.3052 19.0041 12.1252C18.8967 12.0307 19.0218 12.2296 19.2821 12.5679ZM48.9327 12.8134C48.4363 13.4586 48.4233 13.4775 48.4759 13.4775C48.503 13.4775 48.709 13.2343 48.9339 12.9368C49.1588 12.6387 49.3229 12.3955 49.2981 12.3955C49.2739 12.3955 49.1092 12.5838 48.9327 12.8134ZM61.3383 13.9697C61.1116 14.2401 60.9481 14.4614 60.9753 14.4614C61.0024 14.4614 61.2102 14.2401 61.4363 13.9697C61.6629 13.6988 61.8264 13.4775 61.7993 13.4775C61.7721 13.4775 61.5644 13.6988 61.3383 13.9697ZM20.413 14.1173C20.5807 14.3605 20.74 14.56 20.7672 14.56C20.7943 14.56 20.6792 14.3605 20.5116 14.1173C20.344 13.8735 20.1846 13.6746 20.158 13.6746C20.1309 13.6746 20.246 13.8735 20.413 14.1173ZM7.69702 14.7076C7.97267 15.0322 8.43367 15.5192 8.72112 15.7895C9.03396 16.0841 8.93067 15.9453 8.46436 15.4454C7.35112 14.2507 7.12151 14.0299 7.69702 14.7076ZM47.6867 14.5352C47.4317 14.9029 47.3491 15.0517 47.3986 15.0517C47.4217 15.0517 47.558 14.8746 47.7015 14.658C47.9924 14.2182 47.9795 14.112 47.6867 14.5352ZM60.3986 15.0765L60.0102 15.4944L60.4281 15.1054C60.8171 14.7436 60.8914 14.658 60.8171 14.658C60.8011 14.658 60.6128 14.8463 60.3986 15.0765ZM21.6396 15.9861C21.7913 16.257 21.9607 16.5226 22.0168 16.5763C22.0723 16.6306 21.9943 16.4536 21.8426 16.1832C21.6915 15.9123 21.5221 15.6467 21.4661 15.593C21.4106 15.5387 21.4885 15.7157 21.6396 15.9861ZM59.2204 16.355L58.436 17.1666L59.2476 16.3821C59.6938 15.9507 60.0592 15.5853 60.0592 15.5705C60.0592 15.4985 59.9494 15.6012 59.2204 16.355ZM46.8473 15.8143C46.8249 15.8544 46.6821 16.1094 46.5304 16.3798C46.3781 16.6501 46.2996 16.8272 46.3556 16.7735C46.4979 16.6354 47.0049 15.7405 46.9412 15.7405C46.9123 15.7405 46.8698 15.7736 46.8473 15.8143ZM10.2806 17.3637C10.5745 17.6612 10.8366 17.9044 10.8638 17.9044C10.8909 17.9044 10.6725 17.6612 10.3786 17.3637C10.0846 17.0657 9.82255 16.8225 9.7954 16.8225C9.76825 16.8225 9.98665 17.0657 10.2806 17.3637ZM57.8422 17.6341L57.354 18.1506L57.8705 17.6624C58.3504 17.2085 58.4318 17.1176 58.3586 17.1176C58.3427 17.1176 58.1107 17.3502 57.8422 17.6341ZM22.7942 18.0502C22.9116 18.2922 23.0249 18.4734 23.0456 18.4528C23.0899 18.4085 22.6926 17.6093 22.6259 17.6093C22.6005 17.6093 22.6767 17.8076 22.7942 18.0502ZM10.9688 17.9351C10.9688 17.9522 11.1129 18.0963 11.2888 18.255L11.6087 18.5443L11.3195 18.2243C11.0503 17.9263 10.9688 17.8596 10.9688 17.9351ZM12.2834 19.0625C12.3613 19.1888 12.9368 19.6144 12.9368 19.5459C12.9368 19.5217 12.7739 19.3783 12.5755 19.2266C12.3766 19.0749 12.2456 19.0011 12.2834 19.0625ZM45.0234 19.2366C44.8587 19.5985 44.89 19.6758 45.0683 19.347C45.1515 19.1936 45.2011 19.0495 45.1787 19.0271C45.1562 19.0041 45.0866 19.0991 45.0234 19.2366ZM55.7308 19.3925C55.3878 19.6929 55.3878 19.6935 55.703 19.4834C55.8772 19.3677 56.046 19.2307 56.0779 19.1788C56.1729 19.0253 56.0938 19.0737 55.7308 19.3925ZM13.527 20.0105C13.527 20.037 13.726 20.1964 13.9697 20.364C14.2129 20.5317 14.4124 20.6468 14.4124 20.6196C14.4124 20.5925 14.2129 20.4331 13.9697 20.2655C13.726 20.0984 13.527 19.9833 13.527 20.0105ZM44.1835 21.1491C43.9615 21.7039 43.9958 21.7866 44.2295 21.2595C44.3352 21.0216 44.4037 20.8097 44.3824 20.7884C44.3612 20.7672 44.2714 20.9289 44.1835 21.1491ZM52.7057 21.4578C52.3704 21.6721 52.2618 21.8167 52.5581 21.6538C52.7836 21.5298 53.1372 21.2559 53.0746 21.2542C53.0475 21.2536 52.8816 21.3451 52.7057 21.4578ZM51.279 22.2895C50.9113 22.489 50.9337 22.5722 51.3038 22.381C51.4661 22.2966 51.599 22.2074 51.599 22.1815C51.599 22.1183 51.5883 22.1218 51.279 22.2895ZM17.0686 22.2789C17.0686 22.306 17.29 22.4406 17.5603 22.5775C17.8306 22.7145 18.052 22.8048 18.052 22.7776C18.052 22.7505 17.8306 22.6165 17.5603 22.479C17.29 22.342 17.0686 22.2523 17.0686 22.2789ZM24.9539 23.1188C24.9539 23.1997 25.0354 23.4877 25.1351 23.7581C25.2349 24.0284 25.3169 24.1836 25.3169 24.1022C25.3169 24.0213 25.2349 23.7333 25.1351 23.4629C25.0354 23.1926 24.9539 23.0373 24.9539 23.1188ZM19.8724 23.7126C20.197 23.8673 20.5069 23.993 20.5606 23.9918C20.6869 23.9883 19.5111 23.4287 19.3801 23.4299C19.3264 23.4305 19.5477 23.5574 19.8724 23.7126ZM48.3029 23.7675C48.0326 23.8985 47.9222 23.9782 48.0574 23.9434C48.3378 23.872 49.0425 23.519 48.8932 23.5249C48.8395 23.5267 48.5739 23.6359 48.3029 23.7675ZM43.095 24.3052C43.0024 24.6364 42.9445 24.9256 42.967 24.9474C42.9894 24.9699 43.0832 24.7166 43.1753 24.3855C43.2674 24.0538 43.3252 23.7645 43.3034 23.7427C43.2816 23.7215 43.1883 23.9741 43.095 24.3052ZM45.4992 24.84C45.1474 24.9669 44.9066 25.0743 44.9638 25.0785C45.0954 25.0879 46.2866 24.6883 46.2866 24.6346C46.2866 24.5679 46.1685 24.5992 45.4992 24.84ZM22.7357 24.8359C22.9045 24.9138 23.1702 25.0023 23.326 25.033C23.5698 25.0808 23.5609 25.0696 23.2664 24.9539C22.7351 24.7456 22.3591 24.6623 22.7357 24.8359ZM25.6274 25.4722C25.6274 25.5223 25.5495 25.5837 25.4551 25.6085C25.3258 25.6422 25.3376 25.6563 25.504 25.6652C25.6404 25.6723 25.7254 25.6197 25.7254 25.5288C25.7254 25.4474 25.7036 25.3813 25.6764 25.3813C25.6493 25.3813 25.6274 25.4226 25.6274 25.4722ZM26.0205 25.775C26.1563 25.8181 26.3552 25.8535 26.4632 25.8535C26.6191 25.8535 26.609 25.837 26.4142 25.775C26.2791 25.7313 26.0796 25.6959 25.9715 25.6959C25.8157 25.6959 25.8257 25.7124 26.0205 25.775ZM41.4169 25.9202C41.146 25.9898 41.0132 26.0477 41.1218 26.0489C41.2298 26.05 41.5397 25.994 41.81 25.9243C42.081 25.8553 42.2138 25.7974 42.1052 25.7956C41.9972 25.7945 41.6873 25.8505 41.4169 25.9202ZM26.9059 25.9715C27.0417 26.0146 27.263 26.0495 27.3982 26.0483C27.619 26.0471 27.6136 26.0388 27.3486 25.9715C26.9325 25.8659 26.5754 25.8659 26.9059 25.9715ZM31.4563 26.6297C31.5507 26.6545 31.7059 26.6545 31.8004 26.6297C31.8948 26.6049 31.8175 26.5848 31.628 26.5848C31.4391 26.5848 31.3612 26.6049 31.4563 26.6297ZM36.7202 26.6314C36.843 26.6551 37.0201 26.6539 37.1139 26.6297C37.2078 26.6049 37.108 26.5854 36.8914 26.5866C36.6748 26.5878 36.598 26.6078 36.7202 26.6314ZM25.9367 26.8079C25.9338 26.916 25.991 27.2701 26.0642 27.5948C26.1374 27.9194 26.2 28.0965 26.2029 27.9885C26.2065 27.8799 26.1492 27.5257 26.0754 27.2011C26.0022 26.8764 25.9397 26.6993 25.9367 26.8079ZM33.5263 26.7336C33.9483 26.7519 34.6124 26.7519 35.002 26.733C35.3921 26.7147 35.0468 26.6993 34.2352 26.6993C33.4236 26.6999 33.1049 26.7147 33.5263 26.7336ZM42.1052 28.9228C42.0668 29.254 42.0562 29.5462 42.0821 29.5715C42.1075 29.5969 42.1589 29.3461 42.1967 29.0143C42.2344 28.682 42.2451 28.3898 42.2203 28.3656C42.1955 28.3408 42.1435 28.5917 42.1052 28.9228ZM41.9824 30.0544C41.9836 30.2704 42.0036 30.3477 42.0273 30.225C42.0509 30.1028 42.0503 29.9257 42.0255 29.8319C42.0007 29.7374 41.9818 29.8378 41.9824 30.0544ZM41.8862 30.9888C41.8862 31.232 41.9057 31.3317 41.9287 31.2101C41.9523 31.0885 41.9523 30.889 41.9287 30.7674C41.9057 30.6458 41.8862 30.745 41.8862 30.9888ZM26.6356 31.8252C26.6368 32.0412 26.6568 32.1185 26.6804 31.9958C26.704 31.8736 26.7035 31.6965 26.6787 31.6026C26.6539 31.5082 26.635 31.6085 26.6356 31.8252ZM41.7923 32.4644C41.7923 32.8162 41.8106 32.9602 41.8325 32.7843C41.8543 32.6084 41.8543 32.3204 41.8325 32.1445C41.8106 31.9686 41.7923 32.1126 41.7923 32.4644ZM26.7436 34.2352C26.7436 34.695 26.7607 34.8833 26.7814 34.6531C26.802 34.4235 26.802 34.0469 26.7814 33.8173C26.7607 33.5871 26.7436 33.7754 26.7436 34.2352ZM41.7923 36.006C41.7923 36.3578 41.8106 36.5018 41.8325 36.3259C41.8543 36.15 41.8543 35.862 41.8325 35.6861C41.8106 35.5102 41.7923 35.6542 41.7923 36.006ZM26.6356 36.5473C26.6368 36.7633 26.6568 36.8406 26.6804 36.7178C26.704 36.5957 26.7035 36.4186 26.6787 36.3247C26.6539 36.2303 26.635 36.3306 26.6356 36.5473ZM41.8874 37.4327C41.8885 37.703 41.9074 37.8022 41.9299 37.6522C41.9529 37.5029 41.9523 37.2815 41.9287 37.1605C41.9051 37.0395 41.8868 37.1617 41.8874 37.4327ZM41.9824 38.416C41.9836 38.6327 42.0036 38.7094 42.0273 38.5872C42.0509 38.465 42.0503 38.2879 42.0255 38.1935C42.0007 38.0997 41.9818 38.2 41.9824 38.416ZM42.0792 39.1539C42.0792 39.3433 42.0993 39.4207 42.1241 39.3262C42.1488 39.2318 42.1488 39.0765 42.1241 38.9821C42.0993 38.8871 42.0792 38.9644 42.0792 39.1539ZM33.0848 41.7853C33.7506 41.8024 34.8131 41.8024 35.4458 41.7853C36.0786 41.7681 35.5338 41.754 34.2352 41.7546C32.9366 41.7546 32.419 41.7681 33.0848 41.7853ZM30.964 41.8809C31.1127 41.9033 31.3565 41.9033 31.5052 41.8809C31.654 41.8584 31.5324 41.8396 31.2349 41.8396C30.9368 41.8396 30.8152 41.8584 30.964 41.8809ZM36.7521 41.8478C36.7745 41.8685 37.2355 41.9086 37.7768 41.9375C38.488 41.9759 38.6108 41.9682 38.2195 41.9098C37.6481 41.8254 36.6824 41.7841 36.7521 41.8478ZM30.0296 41.9783C30.1512 42.0013 30.3507 42.0013 30.4723 41.9783C30.5939 41.9547 30.4941 41.9352 30.2509 41.9352C30.0072 41.9352 29.908 41.9547 30.0296 41.9783ZM29.2918 42.0751C29.3862 42.0993 29.5414 42.0993 29.6359 42.0751C29.7309 42.0503 29.653 42.0296 29.4641 42.0296C29.2746 42.0296 29.1973 42.0503 29.2918 42.0751ZM38.9325 42.0751C39.0275 42.0993 39.1822 42.0993 39.2772 42.0751C39.3717 42.0503 39.2943 42.0296 39.1049 42.0296C38.9154 42.0296 38.8381 42.0503 38.9325 42.0751ZM42.6582 42.6884C42.5591 42.7497 42.565 42.7793 42.6842 42.8253C42.768 42.8572 42.8613 42.8448 42.8908 42.7964C42.9681 42.6712 42.8076 42.5963 42.6582 42.6884ZM25.1847 42.8406C24.732 42.9894 24.8306 43.036 25.3081 42.8991C25.5395 42.833 25.6274 42.8395 25.6286 42.9239C25.6298 43.0059 25.6516 43.0083 25.7024 42.9315C25.7425 42.8719 25.8411 42.7981 25.9225 42.7674C26.2324 42.6494 25.5631 42.7155 25.1847 42.8406ZM43.1877 42.879C43.2957 42.9262 43.5395 42.9935 43.7284 43.0278C43.9651 43.0703 44.0111 43.0632 43.876 43.0041C43.7679 42.9569 43.5242 42.8896 43.3353 42.8554C43.0986 42.8129 43.0525 42.82 43.1877 42.879ZM42.9073 43.3807C42.9723 43.7538 43.2196 44.4768 43.2284 44.3187C43.2314 44.2649 43.147 43.9551 43.0413 43.6304C42.9351 43.3058 42.8749 43.193 42.9073 43.3807ZM21.5446 44.0271C21.2984 44.1457 21.2902 44.1593 21.4956 44.1091C21.7742 44.0412 22.0876 43.8813 21.9383 43.8836C21.884 43.8842 21.7069 43.9492 21.5446 44.0271ZM43.2503 44.5648C43.2503 44.6462 43.2886 44.8009 43.3353 44.9089C43.3884 45.0329 43.4197 45.0512 43.4197 44.9585C43.4197 44.877 43.3813 44.7224 43.3353 44.6138C43.2816 44.4898 43.2503 44.4715 43.2503 44.5648ZM48.9428 44.9585C49.1317 45.0618 49.3312 45.1468 49.3855 45.1468C49.4392 45.1468 49.3288 45.0618 49.1393 44.9585C48.9499 44.8546 48.7509 44.7696 48.6966 44.7696C48.6423 44.7696 48.7533 44.8546 48.9428 44.9585ZM19.1345 45.0565C18.9451 45.1604 18.8341 45.2454 18.8884 45.2454C18.9427 45.2454 19.1416 45.1604 19.3311 45.0565C19.5206 44.9532 19.6309 44.8682 19.5772 44.8682C19.5229 44.8682 19.3234 44.9532 19.1345 45.0565ZM24.9581 45.2241C24.8128 45.6981 24.8831 45.7689 25.0372 45.3026C25.1021 45.1061 25.1357 44.926 25.1127 44.9024C25.0891 44.8794 25.0194 45.024 24.9581 45.2241ZM50.9101 45.8876C50.9101 45.9147 51.0429 46.0056 51.2052 46.0894C51.3676 46.1739 51.5004 46.2199 51.5004 46.1933C51.5004 46.1662 51.3676 46.0753 51.2052 45.9915C51.0429 45.9071 50.9101 45.861 50.9101 45.8876ZM16.7487 46.2937C16.381 46.4932 16.4034 46.5758 16.7735 46.3846C16.9358 46.3008 17.0686 46.211 17.0686 46.1857C17.0686 46.1219 17.058 46.126 16.7487 46.2937ZM51.599 46.2813C51.599 46.3084 51.7318 46.3993 51.8941 46.4831C52.0564 46.567 52.1892 46.6136 52.1892 46.5864C52.1892 46.5593 52.0564 46.469 51.8941 46.3846C51.7318 46.3008 51.599 46.2541 51.599 46.2813ZM44.1292 47.0468C44.118 47.1631 44.4385 47.9216 44.481 47.8791C44.5022 47.8573 44.4332 47.6454 44.3281 47.4075C44.2224 47.1696 44.1327 47.0073 44.1292 47.0468ZM53.2222 47.2717C53.3302 47.3603 53.5073 47.4754 53.6153 47.5285L53.8124 47.6253L53.6153 47.4653C53.5073 47.3768 53.3302 47.2617 53.2222 47.2086L53.025 47.1118L53.2222 47.2717ZM24.0201 47.7292C23.9316 47.9559 23.8749 48.1571 23.8944 48.1772C23.9139 48.1967 24.0042 48.0285 24.0939 47.803C24.1842 47.5775 24.2409 47.3762 24.2202 47.355C24.1996 47.3343 24.1093 47.5025 24.0201 47.7292ZM54.5503 48.1424C54.5503 48.1689 54.6831 48.2858 54.8454 48.4015C55.0077 48.5172 55.1405 48.5898 55.1405 48.5626C55.1405 48.5355 55.0077 48.4186 54.8454 48.3029C54.6831 48.1878 54.5503 48.1152 54.5503 48.1424ZM23.6754 48.5532C23.5107 48.915 23.542 48.9924 23.7203 48.6636C23.8035 48.5095 23.8537 48.3655 23.8307 48.3431C23.8082 48.3206 23.7386 48.4151 23.6754 48.5532ZM13.1823 48.6559L12.8872 48.9097L13.2071 48.6978C13.383 48.5815 13.527 48.4676 13.527 48.444C13.527 48.3702 13.4851 48.3962 13.1823 48.6559ZM11.9776 49.5856C11.5851 49.9108 11.264 50.1988 11.264 50.2248C11.264 50.2514 11.5963 50.0005 12.0018 49.6676C12.6523 49.134 12.8069 48.9876 12.7154 48.9935C12.7019 48.9941 12.3695 49.2609 11.9776 49.5856ZM45.1061 49.3223C45.1061 49.4291 45.7914 50.7625 45.8463 50.7625C45.8734 50.7625 45.7347 50.4414 45.5381 50.0495C45.1698 49.3135 45.1061 49.206 45.1061 49.3223ZM56.1239 49.3158C56.1239 49.3412 56.3323 49.5324 56.5867 49.7408C56.8411 49.9492 57.0176 50.0684 56.9792 50.0058C56.896 49.8718 56.1239 49.2491 56.1239 49.3158ZM58.1125 51.0476C58.5841 51.4915 59.4471 52.3509 60.0308 52.9577C60.6146 53.5645 60.9381 53.8839 60.7492 53.666C60.097 52.9141 58.4336 51.2383 57.8457 50.7407C57.521 50.4662 57.6409 50.6044 58.1125 51.0476ZM9.81842 51.5252C8.99973 52.3273 8.92772 52.4111 9.58291 51.8002C11.0887 50.3948 11.1158 50.3688 11.055 50.3688C11.0237 50.3688 10.4671 50.8895 9.81842 51.5252ZM22.43 51.0577C22.3461 51.22 22.2995 51.3528 22.3267 51.3528C22.3538 51.3528 22.4441 51.22 22.5285 51.0577C22.6124 50.8954 22.659 50.7625 22.6318 50.7625C22.6047 50.7625 22.5138 50.8954 22.43 51.0577ZM46.237 51.5494C46.3214 51.7117 46.4117 51.8445 46.4389 51.8445C46.466 51.8445 46.4194 51.7117 46.3356 51.5494C46.2518 51.387 46.1609 51.2542 46.1337 51.2542C46.1066 51.2542 46.1532 51.387 46.237 51.5494ZM21.6803 52.361C21.616 52.4832 21.4991 52.6933 21.4206 52.8285C21.2837 53.0646 21.2849 53.0663 21.443 52.8775C21.6396 52.6443 21.9147 52.1396 21.8456 52.1396C21.819 52.1396 21.7447 52.2394 21.6803 52.361ZM7.91424 53.4925L7.57483 53.8614L7.94375 53.5226C8.28728 53.2068 8.35811 53.1236 8.28315 53.1236C8.26662 53.1236 8.10076 53.2895 7.91424 53.4925ZM47.4341 53.5185C47.5309 53.682 47.7127 53.9364 47.8384 54.0845C47.9641 54.2321 47.9033 54.0987 47.7038 53.7876C47.3254 53.198 47.1295 53.0026 47.4341 53.5185ZM6.97218 54.5745C6.71305 54.8855 6.4374 55.2178 6.35889 55.3123C6.28039 55.4073 6.23907 55.4846 6.26681 55.4846C6.29456 55.4846 6.58969 55.1529 6.9226 54.7468C7.25609 54.3413 7.50931 54.009 7.4857 54.009C7.46209 54.009 7.23071 54.2634 6.97218 54.5745ZM61.4746 54.6282C61.683 54.8832 61.8742 55.0909 61.899 55.0909C61.9663 55.0909 61.3436 54.3189 61.2096 54.2362C61.147 54.1973 61.2663 54.3738 61.4746 54.6282ZM48.7439 55.3831C48.8584 55.5443 49.0018 55.7066 49.0632 55.7444C49.1246 55.7821 49.0508 55.6511 48.8997 55.4522C48.5709 55.0213 48.4469 54.9664 48.7439 55.3831ZM5.65648 56.2715C5.54138 56.4338 5.46878 56.5666 5.49593 56.5666C5.52249 56.5666 5.63936 56.4338 5.75506 56.2715C5.87075 56.1091 5.94335 55.9763 5.9162 55.9763C5.88905 55.9763 5.77217 56.1091 5.65648 56.2715ZM62.8139 56.37C62.929 56.5324 63.0459 56.6652 63.0731 56.6652C63.1002 56.6652 63.0276 56.5324 62.9119 56.37C62.7968 56.2077 62.6799 56.0749 62.6528 56.0749C62.6256 56.0749 62.6982 56.2077 62.8139 56.37ZM49.9261 56.8617C50.1522 57.1321 50.3889 57.3847 50.4515 57.4231C50.5146 57.462 50.35 57.2407 50.0867 56.932C49.8229 56.6227 49.5862 56.37 49.5608 56.37C49.5354 56.37 49.6995 56.5914 49.9261 56.8617ZM17.8914 57.5258C16.9689 58.5446 16.4128 59.2275 17.1093 58.4849C17.8661 57.6798 18.6706 56.7637 18.6216 56.7637C18.5997 56.7637 18.271 57.1067 17.8914 57.5258ZM63.5476 57.4278C63.6993 57.6574 63.8422 57.8457 63.8652 57.8457C63.936 57.8457 63.5594 57.2472 63.4119 57.125C63.3351 57.0612 63.3965 57.1976 63.5476 57.4278ZM4.73331 57.5996C4.64595 57.7353 4.50311 57.9673 4.41516 58.116L4.25579 58.387L4.45412 58.1473C4.68786 57.8646 4.99775 57.354 4.93577 57.354C4.91157 57.354 4.82067 57.4644 4.73331 57.5996ZM52.0416 59.1248C52.8515 59.9364 53.5368 60.6004 53.5639 60.6004C53.5911 60.6004 52.9501 59.9364 52.1396 59.1248C51.3298 58.3132 50.6445 57.6491 50.6173 57.6491C50.5902 57.6491 51.2312 58.3132 52.0416 59.1248ZM64.7323 59.3214C64.8161 59.4837 64.907 59.6165 64.9342 59.6165C64.9607 59.6165 64.9147 59.4837 64.8303 59.3214C64.7464 59.159 64.6555 59.0262 64.6284 59.0262C64.6018 59.0262 64.6479 59.159 64.7323 59.3214ZM15.4436 60.0668L14.658 60.8129L15.4696 60.0975C16.208 59.4471 16.3349 59.3214 16.2552 59.3214C16.2405 59.3214 15.8751 59.6566 15.4436 60.0668ZM3.39401 59.813C3.28363 60.0297 3.21516 60.2067 3.24231 60.2067C3.26946 60.2067 3.3822 60.0297 3.49258 59.813C3.60296 59.597 3.67084 59.4199 3.64369 59.4199C3.61713 59.4199 3.50439 59.597 3.39401 59.813ZM2.4549 61.5933C2.36813 61.7603 2.31501 61.915 2.33626 61.9362C2.35751 61.9575 2.44841 61.8205 2.53872 61.6322C2.74118 61.2078 2.67094 61.1754 2.4549 61.5933ZM65.8721 61.4363C65.8721 61.4906 65.9789 61.7337 66.1094 61.9775C66.2398 62.2207 66.3466 62.376 66.3466 62.3217C66.3466 62.2679 66.2398 62.0242 66.1094 61.781C65.9789 61.5372 65.8721 61.3825 65.8721 61.4363ZM54.9434 61.7149C54.9434 61.742 55.1205 61.9043 55.3371 62.0761C55.5537 62.2473 55.7308 62.3653 55.7308 62.3382C55.7308 62.3116 55.5537 62.1487 55.3371 61.9775C55.1205 61.8064 54.9434 61.6877 54.9434 61.7149ZM12.9368 62.1369C12.3058 62.6304 12.2143 62.7555 12.7691 62.3671C13.1823 62.0767 13.5229 61.7709 13.4161 61.7857C13.396 61.7886 13.18 61.9468 12.9368 62.1369ZM2.13085 62.3258C1.96616 62.6876 1.99745 62.7649 2.17571 62.4362C2.25893 62.2827 2.30911 62.1387 2.28609 62.1162C2.26366 62.0932 2.194 62.1882 2.13085 62.3258ZM11.3348 63.2979C10.754 63.6999 10.6159 63.8404 11.0444 63.5937C11.3749 63.4036 11.9422 62.9668 11.8542 62.9703C11.8277 62.9715 11.5933 63.1185 11.3348 63.2979ZM67.1004 64.24C67.1364 64.3758 67.2073 64.5522 67.2574 64.6337C67.3206 64.7364 67.3283 64.7063 67.2828 64.5351C67.2462 64.4 67.176 64.2229 67.1258 64.142C67.0626 64.0393 67.0544 64.0694 67.1004 64.24ZM9.66436 64.3752C9.19215 64.6662 9.05993 64.8031 9.44419 64.6048C9.75231 64.4448 10.1684 64.1479 10.0834 64.1479C10.0569 64.1479 9.868 64.25 9.66436 64.3752ZM58.7311 64.387C58.9507 64.5694 59.574 64.9064 59.4199 64.7588C59.3656 64.7075 59.1443 64.5658 58.9276 64.4442C58.7116 64.3226 58.6231 64.2967 58.7311 64.387ZM0.994593 65.0888C0.907824 65.3444 0.839353 65.6017 0.843485 65.6596C0.847617 65.7174 0.935566 65.525 1.04004 65.2316C1.14393 64.9389 1.21181 64.6815 1.19115 64.6609C1.17049 64.6402 1.08195 64.8326 0.994593 65.0888ZM7.52584 65.5681C7.17405 65.7523 6.92082 65.9051 6.96273 65.9081C7.0678 65.9146 8.21468 65.3314 8.21468 65.2718C8.21468 65.2057 8.2377 65.1956 7.52584 65.5681ZM60.6494 65.4689C60.6494 65.5362 61.2515 65.8349 61.297 65.79C61.3182 65.7688 61.1813 65.6773 60.9924 65.5876C60.8041 65.4973 60.6494 65.4441 60.6494 65.4689ZM5.21379 66.6483C4.94345 66.7758 4.76637 66.8808 4.82067 66.882C4.87438 66.8832 5.14 66.7799 5.41093 66.6524C5.68127 66.5249 5.85835 66.4198 5.80405 66.4187C5.75033 66.4175 5.48472 66.5208 5.21379 66.6483ZM68.0413 66.9948C68.0413 67.0762 68.0797 67.2309 68.1263 67.3389C68.1794 67.4628 68.2107 67.4811 68.2107 67.3885C68.2107 67.307 68.1723 67.1524 68.1263 67.0437C68.0726 66.9198 68.0413 66.9015 68.0413 66.9948ZM68.2414 67.6836C68.2461 67.9392 68.4014 68.3589 68.4043 68.1263C68.4061 68.0177 68.3695 67.8406 68.3228 67.7326C68.2709 67.6122 68.2396 67.5933 68.2414 67.6836ZM66.2569 67.8312C66.4464 67.9038 66.6677 67.9634 66.7486 67.9634C66.8301 67.9634 66.7415 67.9038 66.5521 67.8312C66.3626 67.758 66.1412 67.6983 66.0604 67.6983C65.9789 67.6983 66.0675 67.758 66.2569 67.8312ZM1.62322 67.9291C1.43375 68.0023 1.34521 68.062 1.42666 68.062C1.50753 68.062 1.72888 68.0023 1.91835 67.9291C2.10783 67.8565 2.19637 67.7969 2.11491 67.7969C2.03404 67.7969 1.8127 67.8565 1.62322 67.9291ZM45.7205 94.4626L45.6963 109.191L44.8351 109.224L43.9745 109.256L44.8387 109.276C45.4543 109.291 45.7158 109.262 45.7489 109.174C45.7748 109.106 45.7843 102.455 45.7701 94.393L45.7447 79.7344L45.7205 94.4626ZM50.9491 86.1198C50.9201 86.196 50.9142 86.4061 50.9367 86.5867C50.9733 86.8848 50.9786 86.876 50.9927 86.4988L51.0087 86.0821L55.2633 86.0555L59.5179 86.0284L55.2603 86.0053C51.6786 85.9853 50.9939 86.0036 50.9491 86.1198ZM60.1341 86.1494C60.2563 86.173 60.4334 86.1724 60.5278 86.1476C60.6217 86.1228 60.5214 86.1039 60.3053 86.1045C60.0887 86.1057 60.012 86.1258 60.1341 86.1494ZM62.4692 86.7325C62.5235 86.7803 62.7224 86.9515 62.9119 87.1138L63.2554 87.4078L63.0099 87.1286C62.8753 86.9745 62.6758 86.8034 62.5678 86.7473C62.4598 86.6918 62.4155 86.6853 62.4692 86.7325ZM50.8422 87.7029C50.8428 88.0276 50.8611 88.1486 50.883 87.9721C50.9048 87.795 50.9042 87.5294 50.8818 87.3818C50.8594 87.2337 50.8416 87.3783 50.8422 87.7029ZM63.5718 88.0937C63.717 88.39 63.8522 88.6155 63.8723 88.5954C63.9165 88.5511 63.4207 87.5554 63.354 87.5554C63.3286 87.5554 63.4266 87.798 63.5718 88.0937ZM50.7401 89.2282C50.7401 89.4714 50.7596 89.5711 50.7826 89.4495C50.8062 89.3273 50.8062 89.1284 50.7826 89.0068C50.7596 88.8846 50.7401 88.9844 50.7401 89.2282ZM51.6969 96.852V104.181H77.1278H102.558V106.69V109.198L79.4888 109.223L56.419 109.248H79.513L102.607 109.247V106.69V104.132L77.2016 104.107L51.7955 104.083V96.8532V89.6242L55.2143 89.5971L58.6325 89.5699L55.1647 89.5463L51.6969 89.5233V96.852ZM50.6398 90.5563C50.641 90.7723 50.661 90.8496 50.6846 90.7268C50.7082 90.6047 50.7071 90.4276 50.6829 90.3337C50.6581 90.2393 50.6386 90.3396 50.6398 90.5563ZM60.846 90.2422C60.846 90.2593 60.99 90.4034 61.1659 90.5622L61.4858 90.8514L61.1966 90.5315C60.9275 90.2334 60.846 90.1667 60.846 90.2422ZM64.7028 91.7368C64.7028 91.8448 64.7382 92.0443 64.7813 92.1795C64.8438 92.3743 64.8598 92.3843 64.8598 92.2285C64.8598 92.1204 64.8244 91.9209 64.7813 91.7858C64.7187 91.591 64.7028 91.5809 64.7028 91.7368ZM50.5394 91.9823C50.5394 92.1718 50.5595 92.2491 50.5843 92.1547C50.6091 92.0602 50.6091 91.905 50.5843 91.8106C50.5595 91.7155 50.5394 91.7928 50.5394 91.9823ZM64.8993 92.6222C64.8993 92.7302 64.9347 92.9297 64.9778 93.0649C65.0404 93.2597 65.0569 93.2697 65.0569 93.1139C65.0569 93.0058 65.0215 92.8063 64.9778 92.6712C64.9159 92.4764 64.8993 92.4663 64.8993 92.6222ZM50.4432 93.3104C50.4444 93.527 50.4645 93.6038 50.4881 93.4816C50.5111 93.3594 50.5105 93.1823 50.4857 93.0879C50.4609 92.994 50.442 93.0944 50.4432 93.3104ZM50.3464 94.6385C50.3464 94.8823 50.3659 94.982 50.3895 94.8598C50.4125 94.7383 50.4125 94.5393 50.3895 94.4172C50.3659 94.2956 50.3464 94.3953 50.3464 94.6385ZM28.5457 94.704C28.5097 94.7406 28.4802 95.8916 28.4802 97.2622V99.7543L31.7018 99.7313L34.924 99.7077L31.7514 99.6805L28.5787 99.6534V97.1967V94.74L31.7514 94.7123L34.924 94.6851L31.7673 94.6621C30.0314 94.6491 28.5817 94.668 28.5457 94.704ZM88.7117 94.7123L97.5408 94.7383V97.1967V99.6551L88.7117 99.6805L79.8819 99.7059L88.7607 99.7301L97.6394 99.7543V97.1967V94.6385L88.7607 94.6627L79.8819 94.6869L88.7117 94.7123ZM50.2496 95.9666C50.2502 96.2375 50.2697 96.3361 50.2921 96.1868C50.3145 96.0374 50.3139 95.8161 50.2909 95.6951C50.2673 95.5741 50.249 95.6963 50.2496 95.9666ZM65.8833 96.9506C65.8833 97.0586 65.9187 97.2581 65.9618 97.3933C66.0244 97.588 66.0403 97.5981 66.0403 97.4422C66.0403 97.3342 66.0049 97.1353 65.9618 96.9995C65.8992 96.8048 65.8833 96.7947 65.8833 96.9506ZM50.1528 97.3933C50.1528 97.6907 50.1711 97.8123 50.1935 97.6636C50.216 97.5149 50.216 97.2717 50.1935 97.1229C50.1711 96.9742 50.1528 97.0958 50.1528 97.3933ZM63.4249 98.1311C63.4237 98.2391 63.4797 98.549 63.5494 98.8199C63.619 99.0903 63.6769 99.2231 63.6781 99.1151C63.6793 99.0065 63.6232 98.6966 63.5535 98.4262C63.4845 98.1559 63.4266 98.0231 63.4249 98.1311ZM50.0554 98.8199C50.056 99.1446 50.0743 99.2656 50.0961 99.0885C50.118 98.9114 50.1174 98.6458 50.095 98.4982C50.0725 98.3507 50.0548 98.4953 50.0554 98.8199ZM63.7306 99.5082C63.7519 99.7153 66.2723 99.8765 66.4659 99.6835C66.5084 99.6416 65.9287 99.6203 65.1785 99.6363C63.9342 99.6634 63.8091 99.6504 63.7619 99.4887C63.7194 99.3423 63.7141 99.3458 63.7306 99.5082ZM49.9586 100.197C49.9592 100.576 49.9769 100.719 49.9982 100.515C50.0194 100.31 50.0188 100 49.9976 99.8257C49.9757 99.651 49.958 99.8181 49.9586 100.197ZM49.8618 101.673C49.8618 102.105 49.8795 102.271 49.9002 102.039C49.9208 101.808 49.9208 101.454 49.8996 101.252C49.8783 101.051 49.8612 101.24 49.8618 101.673ZM49.7691 104.181C49.7691 105.02 49.7845 105.363 49.8028 104.944C49.8211 104.524 49.8211 103.838 49.8028 103.419C49.7845 103 49.7691 103.343 49.7691 104.181ZM0.0844084 104.575C0.0844084 105.089 0.101526 105.299 0.121595 105.042C0.141664 104.785 0.141664 104.364 0.121595 104.107C0.101526 103.851 0.0844084 104.061 0.0844084 104.575ZM35.3154 104.156L39.8887 104.183L39.9171 106.666L39.946 109.15L39.9436 106.641L39.9413 104.132L35.3419 104.131L30.7426 104.129L35.3154 104.156ZM5.83592 104.255C8.01812 104.27 11.5597 104.27 13.7065 104.255C15.8533 104.24 14.0677 104.228 9.73933 104.228C5.41093 104.228 3.65431 104.24 5.83592 104.255ZM49.8376 106.059C49.8429 106.244 49.8842 106.506 49.9297 106.641C49.9828 106.8 49.9917 106.695 49.9557 106.346C49.8919 105.727 49.8234 105.56 49.8376 106.059ZM0.640434 107.452C0.638663 107.574 1.34462 108.316 1.56538 108.425C1.67871 108.48 1.62853 108.41 1.455 108.268C1.28146 108.126 1.02765 107.868 0.890705 107.695C0.753764 107.52 0.641024 107.412 0.640434 107.452ZM50.7112 108.163C50.854 108.335 51.4968 108.746 51.5405 108.693C51.5564 108.674 51.3493 108.513 51.0795 108.336C50.8092 108.16 50.6439 108.082 50.7112 108.163ZM4.40218 109.168C4.49721 109.193 4.65186 109.193 4.74689 109.168C4.84133 109.143 4.76401 109.123 4.57453 109.123C4.38506 109.123 4.30773 109.143 4.40218 109.168ZM53.8862 109.168C53.9807 109.193 54.1359 109.193 54.2303 109.168C54.3248 109.143 54.2474 109.123 54.058 109.123C53.8685 109.123 53.7912 109.143 53.8862 109.168ZM14.789 109.272C19.406 109.286 26.9319 109.286 31.5129 109.272C36.0945 109.258 32.3169 109.246 23.1188 109.246C13.9202 109.246 10.172 109.258 14.789 109.272ZM34.2653 113.798C60.1117 113.816 68.5141 113.85 68.461 113.936C68.4173 114.007 68.4344 114.023 68.5058 113.978C68.8895 113.741 66.522 113.725 34.2541 113.748L0 113.773L34.2653 113.798ZM67.1801 116.011C66.8413 116.586 66.8189 116.635 66.9918 116.429C67.1913 116.191 67.3637 115.888 67.2993 115.888C67.2734 115.888 67.2196 115.943 67.1801 116.011ZM66.1902 117.487C66.081 117.609 65.9559 117.774 65.9128 117.856C65.8296 118.012 65.8526 117.991 66.251 117.536C66.3815 117.387 66.4659 117.266 66.4387 117.266C66.4116 117.266 66.3 117.365 66.1902 117.487ZM64.5351 118.544C64.263 118.614 64.2595 118.62 64.4861 118.63C64.6213 118.635 64.7984 118.597 64.8799 118.544C65.0469 118.436 64.9607 118.436 64.5351 118.544ZM0.132808 118.766C0.173536 118.806 14.2601 118.829 31.4368 118.815L62.6664 118.79L31.3624 118.741C14.1456 118.714 0.09208 118.725 0.132808 118.766ZM63.2808 118.714C63.4567 118.736 63.7448 118.736 63.9207 118.714C64.0966 118.692 63.9525 118.674 63.6007 118.674C63.249 118.674 63.1049 118.692 63.2808 118.714Z" fill="#616161"/>
</svg>
