<svg width="222" height="188" viewBox="0 0 222 188" fill="none" xmlns="http://www.w3.org/2000/svg">
<path d="M21.7451 149.501C21.7451 149.501 21.7564 157.347 21.711 157.756C21.6543 158.278 21.5293 158.778 21.3363 159.255C20.9389 160.242 19.951 160.878 18.8836 160.878H8.05092C6.98355 160.878 6.02973 160.231 5.64366 159.232L5.6323 159.209C5.303 158.38 5.23488 157.517 5.23488 156.643V146.423C5.23488 146.071 5.23488 142.495 5.23488 139.849H0.170532V156.336C0.170532 156.597 0.170532 156.847 0.170532 157.108C0.181887 158.71 0.84048 160.254 2.0214 161.344C2.64593 161.923 3.40671 162.355 4.21292 162.604C4.64441 162.741 5.09861 162.82 5.55282 162.843C5.64366 162.854 5.7345 162.854 5.82534 162.854V162.888H20.462C20.8367 162.877 21.2114 162.865 21.5748 162.831C22.4264 162.752 23.2667 162.491 24.0048 162.048C25.5036 161.151 26.5369 159.595 26.764 157.869C26.8549 157.188 26.8094 149.489 26.8094 149.489H21.7451V149.501Z" fill="white"/>
<path d="M31.0222 139.849C31.0222 142.756 31.0222 146.991 31.0222 148.07C31.0222 148.762 31.0222 162.899 31.0222 162.899H36.0071C36.0071 162.899 36.0866 149.534 36.0866 148.819V145.31C36.0866 144.629 36.0866 141.972 36.0866 139.837H31.0222V139.849Z" fill="white"/>
<path d="M14.7732 142.494C13.3197 142.483 12.1274 143.448 12.1274 144.652C12.1274 145.844 13.297 146.809 14.7391 146.809C15.0797 146.809 15.4204 146.809 15.7383 146.809C17.1804 146.809 18.35 145.844 18.35 144.652C18.35 143.471 17.2031 142.517 15.7838 142.494C15.4885 142.506 15.1479 142.506 14.7732 142.494Z" fill="white"/>
<path d="M63.7928 142.983C62.7141 142.983 61.8397 143.857 61.8397 144.936C61.8397 146.015 62.7141 146.889 63.7928 146.889H72.4567C73.5354 146.889 74.4097 146.015 74.4097 144.936C74.4097 143.857 73.5354 142.983 72.4567 142.983H63.7928Z" fill="white"/>
<path d="M147.934 142.494C146.48 142.483 145.288 143.448 145.288 144.652C145.288 145.844 146.458 146.809 147.9 146.809C148.24 146.809 148.581 146.809 148.899 146.809C150.341 146.809 151.511 145.844 151.511 144.652C151.511 143.471 150.364 142.517 148.944 142.494C148.638 142.506 148.297 142.506 147.934 142.494Z" fill="white"/>
<path d="M169.724 139.849H166.567L161.685 144.459L164.909 144.504L169.724 139.849Z" fill="white"/>
<path d="M172.313 162.899C175.719 162.899 177.4 158.743 174.947 156.382L167.873 149.557L177.922 139.849H171.518L164.66 146.469L161.469 149.557L164.66 152.646L173.187 160.878H151.136V159.981C151.136 159.868 151.136 159.822 151.136 159.822V159.516C151.136 158.993 151.09 153.986 151.068 151.249C151.068 150.193 151.068 149.489 151.068 149.489H146.003C146.003 149.489 146.003 156.847 146.003 157.108C146.003 157.381 146.026 157.653 146.071 157.926V164.546C146.071 164.955 146.083 165.375 146.037 165.783C145.981 166.306 145.856 166.805 145.663 167.282C145.265 168.27 144.277 168.906 143.21 168.906H140.258V170.939H144.788C145.163 170.927 145.538 170.916 145.901 170.882C146.753 170.802 147.593 170.541 148.331 170.098C149.83 169.201 150.863 167.646 151.09 165.92C151.181 165.238 151.136 164.534 151.136 163.853V162.911H172.313V162.899Z" fill="white"/>
<path d="M74.4438 149.5C74.4438 149.5 74.4552 157.347 74.4097 157.755C74.353 158.278 74.2281 158.777 74.035 159.254C73.6376 160.242 72.6497 160.878 71.5823 160.878L64.0426 160.867C64.0426 160.651 64.0426 155.598 64.0426 155.348C64.0312 153.747 63.3726 152.203 62.1917 151.113C61.5672 150.534 59.9434 149.557 57.9676 149.557C54.9813 149.557 46.4196 149.557 46.4196 149.557C46.0449 149.568 45.6701 149.58 45.3068 149.614C44.4552 149.693 43.6149 149.955 42.8768 150.397C41.3779 151.294 40.3446 152.85 40.1175 154.576C40.0267 155.257 40.0267 157.358 40.1402 158.073C40.4241 159.777 41.4915 161.31 43.0017 162.15C44.5119 162.99 48.4067 162.911 48.4067 162.911H58.9669V171.007H64.0312V162.911C64.088 162.911 73.1493 162.911 73.1493 162.911C73.524 162.899 73.8988 162.888 74.2621 162.854C75.1137 162.774 75.954 162.513 76.6921 162.07C78.191 161.173 79.2243 159.618 79.4514 157.892C79.5422 157.21 79.4968 149.512 79.4968 149.512H74.4438V149.5ZM58.9669 160.867H48.2704C46.9078 160.867 45.6929 159.981 45.3295 158.675C45.3295 158.664 45.3295 158.664 45.3181 158.652C45.0116 157.54 45.1024 155.121 45.1478 154.712C45.2046 154.19 45.3295 153.69 45.5225 153.213C45.92 152.226 46.9078 151.59 47.9752 151.59H56.1395C57.2069 151.59 58.1607 152.237 58.5468 153.236L58.5581 153.259C58.8874 154.088 58.9555 154.951 58.9555 155.825V160.867H58.9669Z" fill="white"/>
<path d="M210.874 149.557L220.924 139.849H214.519L207.661 146.469L204.47 149.557L207.661 152.646L216.188 160.878H196.896C195.829 160.878 194.875 160.231 194.489 159.243L194.478 159.22C194.148 158.391 194.08 157.528 194.08 156.654C194.08 156.098 194.08 145.208 194.08 139.86H189.016C189.016 145.401 189.016 156.927 189.016 157.12C189.027 158.721 189.686 160.265 190.867 161.355C191.491 161.934 192.252 162.366 193.058 162.615C193.49 162.752 193.944 162.831 194.398 162.854C194.489 162.865 194.58 162.865 194.671 162.865V162.899H215.314C218.721 162.899 220.401 158.743 217.949 156.382L210.874 149.557Z" fill="white"/>
<path d="M184.962 159.981C184.962 159.868 184.962 159.822 184.962 159.822V159.516C184.962 158.8 184.883 149.489 184.883 149.489H179.898C179.898 149.489 179.898 156.824 179.898 157.528V164.546C179.898 164.955 179.909 165.375 179.864 165.784C179.807 166.306 179.682 166.805 179.489 167.282C179.092 168.27 178.104 168.906 177.036 168.906H174.084V170.939H178.615C178.989 170.927 179.364 170.916 179.728 170.882C180.579 170.802 181.419 170.541 182.158 170.098C183.656 169.201 184.69 167.646 184.917 165.92C185.008 165.239 184.962 164.534 184.962 163.853V159.981Z" fill="white"/>
<path d="M140.36 148.762V145.254C140.36 144.572 140.36 141.972 140.36 139.849H135.295C135.295 142.755 135.295 146.934 135.295 148.001C135.295 148.694 135.295 162.831 135.295 162.831H140.28C140.28 162.843 140.36 149.478 140.36 148.762Z" fill="white"/>
<path d="M101.037 156.075L114.277 168.929L96.5408 168.906C95.4734 168.906 94.5196 168.259 94.1335 167.26L94.1222 167.237C93.7929 166.408 93.7247 165.545 93.7247 164.671C93.7247 164.183 93.7247 149.625 93.7247 149.625H88.6604C88.6604 149.625 88.6604 164.887 88.6604 165.148C88.6718 166.749 89.3303 168.293 90.5113 169.383C91.1358 169.962 91.8966 170.394 92.7028 170.644C93.1343 170.78 93.5885 170.859 94.0427 170.882C94.1335 170.893 94.2244 170.893 94.3152 170.893V170.927L113.403 170.95C116.81 170.95 118.49 166.794 116.037 164.432L102.741 151.965H117.536V149.557H103.683C100.265 149.557 98.5847 153.702 101.037 156.075Z" fill="white"/>
<path d="M130.515 159.981C130.515 159.868 130.515 159.822 130.515 159.822V159.516C130.515 158.8 130.435 149.489 130.435 149.489H125.45C125.45 149.489 125.45 156.824 125.45 157.528V164.546C125.45 164.955 125.462 165.375 125.416 165.784C125.36 166.306 125.235 166.805 125.042 167.282C124.644 168.27 123.656 168.906 122.589 168.906H119.637V170.939H124.167C124.542 170.927 124.917 170.916 125.28 170.882C126.132 170.802 126.972 170.541 127.71 170.098C129.209 169.201 130.242 167.646 130.469 165.92C130.56 165.239 130.515 164.534 130.515 163.853V159.981Z" fill="white"/>
<path d="M3.73581 187.665H2.79334V180.205H0V179.33H6.5405V180.205H3.74716V187.665H3.73581Z" fill="white"/>
<path d="M20.9502 187.665H19.9396L18.9631 185.462H14.4211L13.4332 187.665H12.468L16.2606 179.273H17.1463L20.9502 187.665ZM16.7034 180.375L14.7958 184.622H18.5884L16.7034 180.375Z" fill="white"/>
<path d="M33.6336 179.33H34.6442L31.056 187.722H30.2271L26.6389 179.33H27.6836L30.6472 186.507L33.6336 179.33Z" fill="white"/>
<path d="M48.8153 187.665H47.8047L46.8282 185.462H42.2862L41.2983 187.665H40.3331L44.1257 179.273H45.0114L48.8153 187.665ZM44.5686 180.375L42.6609 184.622H46.4535L44.5686 180.375Z" fill="white"/>
<path d="M62.5437 179.33H63.4635V187.665H62.714L57.3317 180.829V187.665H56.412V179.33H57.2977L62.5437 186.007V179.33V179.33Z" fill="white"/>
<path d="M79.542 187.665H78.5314L77.5549 185.462H73.0129L72.025 187.665H71.0598L74.8524 179.273H75.7381L79.542 187.665ZM75.2839 180.375L73.3762 184.622H77.1688L75.2839 180.375Z" fill="white"/>
<path d="M101.321 179.478C101.65 179.58 101.934 179.716 102.173 179.898C102.411 180.08 102.593 180.296 102.718 180.557C102.843 180.818 102.911 181.102 102.911 181.42C102.911 181.692 102.877 181.942 102.797 182.146C102.718 182.351 102.616 182.532 102.491 182.691C102.366 182.85 102.218 182.987 102.071 183.089C101.912 183.191 101.753 183.282 101.594 183.361C101.843 183.43 102.071 183.532 102.286 183.645C102.502 183.759 102.695 183.895 102.854 184.054C103.013 184.213 103.138 184.406 103.229 184.622C103.32 184.849 103.376 185.099 103.376 185.383C103.376 185.735 103.308 186.064 103.161 186.348C103.013 186.632 102.809 186.87 102.547 187.063C102.286 187.256 101.968 187.404 101.594 187.506C101.219 187.608 100.81 187.665 100.356 187.665H96.6542V179.33H100.197C100.617 179.33 100.98 179.376 101.321 179.478ZM101.435 182.657C101.787 182.408 101.968 182.033 101.968 181.533C101.968 181.113 101.809 180.772 101.491 180.523C101.173 180.273 100.719 180.148 100.129 180.148H97.5966V183.032H100.049C100.617 183.043 101.083 182.919 101.435 182.657ZM101.889 186.439C102.252 186.177 102.434 185.803 102.434 185.326C102.434 184.86 102.252 184.508 101.877 184.258C101.503 184.009 100.958 183.884 100.231 183.884H97.608V186.836H100.401C101.026 186.825 101.525 186.7 101.889 186.439Z" fill="white"/>
<path d="M116.945 187.665L114.527 184.429H112.142V187.665H111.2V179.33H114.788C115.254 179.33 115.662 179.387 116.037 179.512C116.412 179.626 116.718 179.796 116.98 180.023C117.241 180.239 117.445 180.5 117.581 180.807C117.729 181.113 117.797 181.454 117.797 181.828C117.797 182.18 117.74 182.487 117.627 182.76C117.513 183.032 117.354 183.271 117.161 183.475C116.957 183.679 116.718 183.85 116.446 183.986C116.173 184.122 115.867 184.213 115.537 184.27L118.092 187.676H116.945V187.665ZM116.298 180.636C115.924 180.341 115.401 180.205 114.72 180.205H112.142V183.6H114.709C115.015 183.6 115.31 183.566 115.572 183.486C115.833 183.407 116.06 183.293 116.253 183.146C116.446 182.998 116.593 182.816 116.696 182.601C116.798 182.385 116.855 182.146 116.855 181.874C116.866 181.329 116.673 180.92 116.298 180.636Z" fill="white"/>
<path d="M133.592 185.133C133.388 185.655 133.092 186.109 132.718 186.507C132.343 186.904 131.9 187.222 131.378 187.449C130.855 187.688 130.276 187.801 129.64 187.801C129.004 187.801 128.425 187.688 127.903 187.46C127.381 187.233 126.938 186.915 126.563 186.529C126.188 186.132 125.905 185.678 125.7 185.155C125.496 184.633 125.394 184.088 125.394 183.509C125.394 182.93 125.496 182.385 125.7 181.862C125.905 181.34 126.2 180.886 126.574 180.489C126.949 180.091 127.392 179.773 127.914 179.546C128.437 179.308 129.016 179.194 129.652 179.194C130.288 179.194 130.867 179.308 131.389 179.535C131.911 179.762 132.354 180.08 132.729 180.466C133.104 180.863 133.388 181.317 133.592 181.84C133.796 182.362 133.898 182.907 133.898 183.486C133.898 184.065 133.796 184.61 133.592 185.133ZM132.683 182.158C132.525 181.738 132.297 181.374 132.002 181.056C131.707 180.75 131.355 180.5 130.958 180.318C130.56 180.136 130.117 180.046 129.64 180.046C129.163 180.046 128.721 180.136 128.323 180.318C127.926 180.5 127.574 180.738 127.29 181.056C127.006 181.363 126.779 181.726 126.62 182.146C126.461 182.566 126.37 183.009 126.37 183.486C126.37 183.963 126.45 184.406 126.62 184.826C126.779 185.246 127.006 185.61 127.301 185.928C127.596 186.234 127.937 186.484 128.346 186.666C128.743 186.847 129.186 186.938 129.663 186.938C130.14 186.938 130.583 186.847 130.98 186.666C131.378 186.484 131.73 186.245 132.014 185.928C132.297 185.621 132.525 185.258 132.683 184.837C132.842 184.417 132.933 183.974 132.933 183.498C132.922 183.032 132.842 182.578 132.683 182.158Z" fill="white"/>
<path d="M148.944 187.665H147.763L144.561 183.623L142.79 185.417V187.654H141.847V179.319H142.79V184.293L147.581 179.319H148.796L145.22 182.964L148.944 187.665Z" fill="white"/>
<path d="M162.388 180.182H157.301V183.032H161.855V183.895H157.301V186.814H162.445V187.676H156.359V179.342H162.388V180.182Z" fill="white"/>
<path d="M176.026 187.665L173.607 184.429H171.223V187.665H170.28V179.33H173.868C174.334 179.33 174.743 179.387 175.118 179.512C175.492 179.626 175.799 179.796 176.06 180.023C176.321 180.239 176.526 180.5 176.662 180.807C176.809 181.113 176.878 181.454 176.878 181.828C176.878 182.18 176.821 182.487 176.707 182.76C176.594 183.032 176.435 183.271 176.242 183.475C176.037 183.679 175.799 183.85 175.526 183.986C175.254 184.122 174.947 184.213 174.618 184.27L177.173 187.676H176.026V187.665ZM175.39 180.636C175.015 180.341 174.493 180.205 173.812 180.205H171.234V183.6H173.8C174.107 183.6 174.402 183.566 174.663 183.486C174.924 183.407 175.152 183.293 175.345 183.146C175.538 182.998 175.685 182.816 175.787 182.601C175.89 182.385 175.946 182.146 175.946 181.874C175.946 181.329 175.765 180.92 175.39 180.636Z" fill="white"/>
<path d="M192.615 187.665H191.605L190.628 185.462H186.086L185.098 187.665H184.133L187.926 179.273H188.812L192.615 187.665ZM188.369 180.375L186.461 184.622H190.254L188.369 180.375Z" fill="white"/>
<path d="M205.503 187.438C204.936 187.688 204.3 187.813 203.596 187.813C202.937 187.813 202.347 187.699 201.824 187.483C201.302 187.268 200.859 186.961 200.496 186.564C200.132 186.166 199.849 185.723 199.656 185.19C199.463 184.667 199.36 184.111 199.36 183.509C199.36 182.941 199.463 182.385 199.667 181.863C199.871 181.34 200.155 180.875 200.519 180.477C200.882 180.08 201.325 179.762 201.836 179.535C202.347 179.296 202.914 179.183 203.539 179.183C203.891 179.183 204.209 179.205 204.493 179.251C204.788 179.296 205.049 179.376 205.299 179.467C205.549 179.557 205.787 179.682 206.003 179.819C206.219 179.955 206.435 180.114 206.639 180.284L206.037 181C205.878 180.852 205.708 180.727 205.537 180.613C205.367 180.5 205.174 180.398 204.97 180.318C204.765 180.239 204.55 180.171 204.3 180.125C204.061 180.08 203.789 180.057 203.494 180.057C203.028 180.057 202.608 180.148 202.222 180.33C201.836 180.511 201.495 180.761 201.223 181.068C200.95 181.374 200.723 181.738 200.564 182.158C200.405 182.578 200.326 183.021 200.326 183.486C200.326 183.986 200.405 184.451 200.553 184.872C200.712 185.303 200.927 185.666 201.211 185.973C201.495 186.28 201.847 186.529 202.245 186.7C202.653 186.87 203.108 186.961 203.618 186.961C204.095 186.961 204.538 186.881 204.958 186.711C205.379 186.552 205.731 186.348 206.014 186.121V184.043H203.482V183.214H206.923V186.529C206.548 186.881 206.071 187.177 205.503 187.438Z" fill="white"/>
<path d="M221.037 180.182H215.95V183.032H220.504V183.895H215.95V186.814H221.094V187.676H215.008V179.342H221.037V180.182Z" fill="white"/>
<path d="M170.439 38.0848L170.45 38.0961L146.378 89.7275C146.434 89.1484 146.469 88.5466 146.469 87.9448C146.469 83.5617 144.89 79.542 142.279 76.4421C140.008 73.7282 136.93 71.6957 133.433 70.7192C131.889 70.2763 130.254 70.0379 128.562 70.0379C127.676 70.0379 121.771 70.4466 116.23 72.1045C84.5495 81.5746 60.7607 98.5049 51.8925 105.522L71.1506 64.2241L161.378 36.3134L162.786 35.8819C158.573 18.3043 142.801 5.23467 123.997 5.23467C108.406 5.23467 94.9167 14.2052 88.3308 27.2748C94.5192 11.321 110.008 0 128.153 0C150.091 0 168.145 16.5216 170.575 37.8009L170.439 38.0848Z" fill="#C7A991"/>
</svg>
