<svg width="112" height="90" viewBox="0 0 112 90" fill="black" xmlns="http://www.w3.org/2000/svg">
<g clip-path="url(#clip0_1_2)">
<path fill-rule="evenodd" clip-rule="evenodd" d="M0.8 0.200001C8 2.2 14.1 7.3 17.4 14C18.2 15.6 18.8 17.1 19.3 19C19.3 19 19.3333 19.0333 19.4 19.1C19.4 19.1667 19.4333 19.2333 19.5 19.3C19.6 19.5 19.8 19.5 20.5 19.6C20.5 19.6667 20.5333 19.7 20.6 19.7C23.8 20.3 27.4 20.4 30.7 19.8C31.6 19.6 32.3 19.4 32.4 19.4C32.4 19.4 32.5 18.9 32.6 18.4C33.5 15.4 35 12.4 36.9 9.9C40.4 5.2 45.1 2 50.6 0.299999C51.1 0.0999992 51.6 0 51.6 0C51.8 0 51.7 0.200001 51.4 1.4C48.8 9.7 42.3 16.3 34 18.9C33.4 19.1 32.8 19.3 32.7 19.3C32.5667 19.3667 32.5 19.4 32.5 19.4C32.3 19.5 32.3 19.7 32.1 20.5V20.6C31.6 22.8 31.5 25.5 31.6 27.8C31.8 29.2 32.1 31.1 32.3 32.1C32.4 32.3 32.4 32.4 32.8 32.5C37.2 33.7 40.8 35.7 44.1 38.8C46.3 40.8 48.4 43.6 49.8 46.4C50.5 47.7 51.2 49.7 51.6 51.2C51.8 51.8 51.8 51.8 51.7 51.8C48.4 50.9 46.1 49.8 43.6 48.2C38.2 44.7 34.2 39.1 32.6 33C32.5 32.7 32.4 32.4 32.3 32.4C32.2 32.3 30.2 31.9 29.3 31.8C26.6 31.4 23.4 31.5 20.6 32.1H20.5C19.7 32.3 19.5 32.3 19.4 32.5C19.4 32.5 19.4 32.5333 19.4 32.6V32.7C18.9 34.6 17.8 37.2 16.8 39.1C14.9 42.5 12.2 45.4 8.9 47.7C7.1 49 4.8 50.3 2.6 51C1.8 51.3 0.1 51.8 0.1 51.8C0 51.8 0.2 51.4 0.3 50.9C1.7 46.1 4.5 41.6 8.2 38.3C11.2667 35.6333 14.7 33.7333 18.5 32.6C19 32.5 19.4 32.4 19.4 32.3C19.6 32.2 20.1 29.2 20.2 27.7C20.3 25.8 20.2 24 19.9 22C19.8 20.9 19.5 19.5 19.4 19.4C19.4 19.4 19 19.3 18.5 19.1C15.9 18.4 13.3 17.2 11 15.6C5.7 12.1 1.9 6.7 0.2 0.5C0.2 0.5 0.2 0.466668 0.2 0.400002C0.133333 0.200002 0.1 0.0999985 0.1 0.0999985C0.2 -1.52737e-06 0.3 7.59959e-07 0.7 0.200001C0.766667 0.200001 0.8 0.200001 0.8 0.200001ZM1.4 79H15.8L30.2 78.9V82.8H17C8.7 82.8 3.6 82.8 3.2 82.7C1.2 82.5 0.5 82 0.2 80.5C0.1 80.1 0.1 79 0.1 70.2L0 60.5H1.4V79ZM34.6 71.5V82.7H33.2V60.4H33.9H34.6V71.5ZM103.1 60.8V61.3L101 62.4C100.2 62.9 99.4 63.3 98.9 63.6C98.7 63.7333 98.5667 63.8 98.5 63.8L98.1 64.1V63.1L100.6 61.8C101.9 61 103 60.4 103.1 60.4C103.1 60.4 103.1 60.6 103.1 60.8ZM103.1 63.3C103.1 63.3 102.2 63.8 101.1 64.4L99.1 65.4L104.5 65.5C109.4 65.5 109.9 65.5 110.3 65.6C111.1 65.8 111.6 66.2333 111.8 66.9C111.9 67 111.9 67.7 111.9 68.5L112 69.9H104.7C97.9 69.9 97.4 69.9 97.1 69.8C97.1 69.8 97.0667 69.7667 97 69.7C96.9333 69.7 96.9 69.7 96.9 69.7C96.9 69.7 96.8 69.8 96.8 69.9C96.6 70.6 96 71.5 95.4 72C94.8 72.6 93.9 72.8 92.5 72.6L91.8 72.4L91.7 71.3L92.4 71.4C93.2 71.6 93.9 71.6 94.2 71.5C94.6 71.3 95 70.9 95.5 70.2L96 69.6L95.7 67.7C95.5 66.7 95.3 65.8 95.3 65.7C95.3 65.6 95.4 65.5 95.8 65.3C96 65.2 96.2 65.1 96.2 65.1C96.3 65.1 96.4 65.7 96.5 66.6C96.7 67.4 96.8 68.2 96.9 68.3C96.9 68.4 97.1 68.5 97.2 68.6C97.4 68.7 97.9 68.7 104.2 68.7H110.9V68.1C110.9 67.2 110.8 67 110.4 66.8L110 66.6H104.1H98.1V65L100.6 63.5L103.1 62.1V62.7C103.1 63 103.1 63.2 103.1 63.3ZM84.9 65.1C85.7 65.3 86.1 65.7 86.2 66.4C86.3 66.7 86.6 69.3 86.6 69.8V69.9H85C82.4 69.9 82.4 69.9 82.7 67.6C82.8 66.9 82.9 66.3 82.9 66.2C82.9 66 82.9 66 82.7 66L82.6 65.9V65.5C82.6 65.2 82.7 65 82.7 64.9C82.7 64.8 82.7 64.8 83.6 64.9C84.1 65 84.7 65.1 84.9 65.1ZM45.2 65.1C46.6 65.2 47.1 65.4 47.6 65.9C48.3 66.6 48.5 67.3 49.5 72C49.9 73.8 50.3 75.2 50.3 75.3C50.3 75.4 50.2 75.4 49.3 75.4C48.7 75.4 48.2 75.4 48.2 75.4C48.2 75.3 47.3 71.1 47.2 70.5C46.8 69.2 46.4 68.5 45.9 68.2C45.3 67.8 45 67.8 41.9 67.8L39.1 67.7V78.8H77.7V82.6H59C41.9 82.6 40.3 82.6 39.9 82.5C38.9 82.3 38.4 82 38.1 81.4C37.5 80.5 37.5 79.3 38.1 71.6C38.3 68.5 38.5 65.7 38.5 65.5L38.6 65.1H41.4C43 65.1 44.7 65.1 45.2 65.1ZM90.8 65.2C91.6 65.6 91.9 66.3 91.9 68.5C91.9 69.4 91.9 69.7 91.8 69.9C91.8 70.0333 91.7667 70.1667 91.7 70.3C91.4 70.9 90.8 71.8 90.5 72.1C89.8 72.7 88.9 72.9 87.5 72.6L86.7 72.4V71.9C86.7 71.3 86.7 71.3 86.8 71.3C87.1 71.4 88.1 71.6 88.5 71.6C89.2 71.6 89.6 71.4 90.2 70.8C90.5 70.5 90.7 70.2 90.8 70.1L90.9 69.9H89.9C88.8 69.9 88.5 69.9 88.2 69.6C87.9 69.3 87.9 69.1 88.1 67.2C88.1 66.2 88.2 65.3 88.2 65.2V65L89.4 65.1C90.3 65.1 90.6 65.1 90.8 65.2ZM98.3 74.7C98.3 77.1 98.2 78.2 98.2 78.4C98.1 78.7 97.7 79.1 97.5 79.3H97.4C97.3333 79.3667 97.3 79.4 97.3 79.4C96.8 79.6 96.2 79.6 91 79.6C87.3333 79.6 85.3667 79.6333 85.1 79.7C84.3 79.8 84.1 80.2 84 80.9V81.4H92.4C99.6 81.4 100.9 81.4 100.8 81.5C100.8 81.5 100.8 81.8 100.7 82.1L100.6 82.6H82.8V81.7C82.8 81.2 82.9 80.6 82.9 80.4C83.1 79.7 83.5 79.1 84.1 78.8C84.8 78.4 85 78.4 91.1 78.4C95.1 78.4 96.8 78.4 96.9 78.3L97.1 78.2V71.5L97.4 71.4C97.4667 71.4 97.5667 71.3667 97.7 71.3H97.8C97.8 71.3 97.8333 71.3 97.9 71.3C98 71.3 98.1 71.2 98.2 71.2C98.2 71.2 98.3 71.9 98.3 74.7ZM100.6 74.8C100.6 78.2 100.6 78.4 100.7 78.5L100.9 78.7H103.9H106.9L107.1 78.5C107.3 78.3 107.4 77.9 108 75.8C108.3 74.8 108.5 74 108.5 74C108.5 74 109.7 74.2 110.4 74.4C111.6 74.7 111.9 75.1 111.9 76.2C111.9 76.6 111.6 79.5 111.6 79.5C111.6 79.6 108.6 79 108.3 78.9C108.2 78.9 108.1 79 108 79.2C107.5 79.9 107.3 79.9 103.8 79.9C101.3 79.9 101 79.9 100.7 79.8C100.2 79.7 99.8 79.4 99.6 79C99.5 78.7 99.5 78.6 99.5 75.1V71.5L99.7 71.4C99.8 71.4 100 71.4 100.1 71.3C100.167 71.3 100.2 71.3 100.2 71.3C100.3 71.3 100.5 71.2 100.5 71.2C100.6 71.2 100.6 72 100.6 74.8ZM26.4 75.4H21.6V73.6C21.6 72.5 21.6 71.7 21.6 71.7C21.6 71.6 22.7 71.6 24 71.6H26.4V75.4ZM73.8 73.5L73.9 75.4H60.5V71.6H67.2H73.8V73.5ZM51.8 86.2C51.8 86.2 50.4 88.5 50.1 88.8C49.8 89.3 49.4 89.6 49 89.7C48.7 89.8 46.9 89.8 24.3 89.9H0V86.1H25.9C40.2 86.1 51.8 86.1 51.8 86.2ZM83.5 68.7C83.5 68.7 83.8 68.7 84.5 68.7H85.5V68.5C85.5 68 85.3 66.8 85.2 66.6C85.2 66.5 85 66.4 84.9 66.3C84.8 66.3 84 66.1 83.8 66.1C83.8 66.1 83.7 66.7 83.6 67.4C83.6 67.6 83.6 67.7667 83.6 67.9C83.5 68.3 83.5 68.6 83.5 68.7ZM89 67.2C88.9 67.8 88.9 68.4 88.9 68.5V68.7H89.9C90.0333 68.7 90.1333 68.7 90.2 68.7C90.6 68.8 90.8 68.8 90.8 68.7C90.9 68.6 90.9 68.4 90.9 68C90.8333 67.8667 90.8 67.7333 90.8 67.6C90.6 66.3 90.6 66.3 89.7 66.2H89.1L89 67.2ZM110.6 78.1C110.6 78 110.8 76.5 110.8 76.2C110.8 75.7 110.7 75.7 109.9 75.5C109.6 75.4 109.2 75.3 109.2 75.3C109.2 75.3 109.1 75.5 109.1 75.7C108.9 76.4 108.5 77.7 108.6 77.7C108.6 77.8 110.6 78.1 110.6 78.1Z" fill="black"/>
</g>
<defs>
<clipPath id="clip0_1_2">
<rect width="112" height="90" fill="black"/>
</clipPath>
</defs>
</svg>
