<svg width="24" height="30" viewBox="0 0 24 30" fill="none" xmlns="http://www.w3.org/2000/svg">
<path d="M24 10.41C23.9844 10.2722 23.9542 10.1364 23.91 10.005V9.87C23.8379 9.71577 23.7417 9.574 23.625 9.45L14.625 0.45C14.501 0.333324 14.3592 0.237121 14.205 0.165C14.1602 0.15864 14.1148 0.15864 14.07 0.165C13.9176 0.0776119 13.7493 0.0215163 13.575 0H4.5C3.30653 0 2.16193 0.474106 1.31802 1.31802C0.474106 2.16193 0 3.30653 0 4.5V25.5C0 26.6935 0.474106 27.8381 1.31802 28.682C2.16193 29.5259 3.30653 30 4.5 30H19.5C20.6935 30 21.8381 29.5259 22.682 28.682C23.5259 27.8381 24 26.6935 24 25.5V10.5C24 10.5 24 10.5 24 10.41ZM15 5.115L18.885 9H16.5C16.1022 9 15.7206 8.84196 15.4393 8.56066C15.158 8.27936 15 7.89782 15 7.5V5.115ZM21 25.5C21 25.8978 20.842 26.2794 20.5607 26.5607C20.2794 26.842 19.8978 27 19.5 27H4.5C4.10218 27 3.72064 26.842 3.43934 26.5607C3.15804 26.2794 3 25.8978 3 25.5V4.5C3 4.10218 3.15804 3.72064 3.43934 3.43934C3.72064 3.15804 4.10218 3 4.5 3H12V7.5C12 8.69347 12.4741 9.83807 13.318 10.682C14.1619 11.5259 15.3065 12 16.5 12H21V25.5ZM15 18H13.5V16.5C13.5 16.1022 13.342 15.7206 13.0607 15.4393C12.7794 15.158 12.3978 15 12 15C11.6022 15 11.2206 15.158 10.9393 15.4393C10.658 15.7206 10.5 16.1022 10.5 16.5V18H9C8.60218 18 8.22064 18.158 7.93934 18.4393C7.65804 18.7206 7.5 19.1022 7.5 19.5C7.5 19.8978 7.65804 20.2794 7.93934 20.5607C8.22064 20.842 8.60218 21 9 21H10.5V22.5C10.5 22.8978 10.658 23.2794 10.9393 23.5607C11.2206 23.842 11.6022 24 12 24C12.3978 24 12.7794 23.842 13.0607 23.5607C13.342 23.2794 13.5 22.8978 13.5 22.5V21H15C15.3978 21 15.7794 20.842 16.0607 20.5607C16.342 20.2794 16.5 19.8978 16.5 19.5C16.5 19.1022 16.342 18.7206 16.0607 18.4393C15.7794 18.158 15.3978 18 15 18Z" fill="black"/>
</svg>
