<svg id="Layer_1" data-name="Layer 1" xmlns="http://www.w3.org/2000/svg" viewBox="0 0 448.84 621.18"><defs><style>.cls-1{fill:#be9c39;}.cls-2{fill:#031c45;}</style></defs><path class="cls-1" d="M347.76,31.89c27.95,19.14,51.4,46.89,59.92,80.19,9,39.06-.46,81.44-23.47,114a166.75,166.75,0,0,1-25.81,27.1c-28.74,24.62-63.15,42.08-89.76,69.28-11.49,12.05-22.16,25.42-28.11,41.14-9,23-8.89,49.88,2.26,72.13-30-21.76-50.67-56.05-55.2-92.87-1.13-9.72-1.52-19.64.22-29.31,4.08-25.76,14.18-50.87,30.82-71.12a162.12,162.12,0,0,1,23.07-22.9c17.54-14.12,37.62-24.51,56.62-36.43,21.25-14.5,39.53-33.87,51.14-56.95A108.19,108.19,0,0,0,361,68.79c-1.49-13.16-7.63-25.11-13.25-36.9m-32.4,332.56c25.42-6.15,52.55,14.73,54.87,40.39.62,10.44-1,21.41-6.87,30.3-9.09,14.52-26.65,23.83-43.86,21.41a42,42,0,0,1-22.79-8.5c-14.87-11.4-22.55-31.88-17.79-50.14,4.41-17,19.56-29.76,36.44-33.46Z" transform="translate(-41.44 -31.89)"/><path class="cls-2" d="M329,300c7.27-2.86,15.31-4.55,23.08-2.89C367,300,379.28,309.9,393.92,313.6a40.28,40.28,0,0,0,19.06.26c8.32-2.4,13.82-9.54,19.31-15.74-3.81,12.87-8.33,27.12-20.05,35a44.75,44.75,0,0,1-30.88,5.43c-15.16-2.82-28.32-11.41-42.85-16.12-11.77-3.29-23.6,1.77-34.18,6.57,4.49-12.06,12.51-23.7,24.66-29m55.68,45.12a50.79,50.79,0,0,1,35.6.41c11.55,4.84,21.42,14,26.28,25.63,5.44,12.43,6.82,26.2,6.86,39.64.41,14.51,4.93,29.65,15.43,40.1,6.34,5.12,14.25,7.64,21.44,11.29-17.56,6.69-39.39,5-53.58-8.11-6.23-6.39-12-13.6-14.9-22.14-6.74-19-3.71-39.81-10.19-58.84-2.21-6.17-5.19-12.33-10.16-16.76s-11.1-7.62-16.78-11.22M97.35,361.28c34.83-7.72,72.83,6.37,95.71,33.4,13.77,16.41,23.78,35.48,36.12,52.91,9,12.73,19.5,24.73,32.86,33,5.43,3.09,10.81,6.5,16.84,8.32,13.43,4.09,27.65,2,41.27.13-12.27,13.21-27.57,23.87-44.8,29.43-13.91,4.61-29,5.19-43.34,2.62-19-3.69-36.06-14.27-49.64-27.78a141.89,141.89,0,0,1-24-32.14c-8.75-15.35-16.69-31.73-30-43.82-14.82-14.39-34.64-24.4-55.51-25a58.92,58.92,0,0,0-31.45,8c14.68-17.61,33.32-33.23,55.91-39.07m315.73,64.07c9.9,16.15,14.83,35.53,12.73,54.44-1.61,15-8.49,29.23-18.46,40.47-16.31,18-39.89,27.43-63.3,31.9-16.43,3.59-32.51,10.33-45.28,21.45a71.55,71.55,0,0,0-17.6,23.45c-4.15,9.74-3.6,20.55-5,30.86-9.29-15.42-17.3-32.73-16.6-51.14,1.58-31.24,23.31-59.7,52-71.43,18.93-7.56,39-11.83,57.62-20.3,13.12-5.88,25.29-14.41,34-26,6.91-9.83,8.42-22.12,9.88-33.73M286.94,653.07" transform="translate(-41.44 -31.89)"/></svg>