<svg id="Layer_1" data-name="Layer 1" xmlns="http://www.w3.org/2000/svg" viewBox="0 0 191.38 192.17"><defs><style>.cls-1{fill:#cf9d2a;}.cls-2{fill:#522d1d;}</style></defs><path class="cls-1" d="M218.51,209.89H374c2.68,1.25,5.38,2.47,8,3.92,4.22,2.41,7.1,6.66,8.78,11.14,1.91,5.09,1.33,10.62,1.41,15.94q0,69,0,138c0,8.2-4,17.05-11.76,20.54-5.45,2.86-11.75,2.26-17.68,2.3q-60.51-.06-121,0c-8.13.1-16.35,1-24.41-.51-9.31-2.47-16.77-11.47-16.45-21.28-.09-49,0-98.07-.05-147.1a20.42,20.42,0,0,1,3.57-12.32c3.41-5,8.81-8.07,14.15-10.62m-1.24,8.51c-7.1,3.63-11.4,11.56-11.21,19.45.08,25.36,0,50.73,0,76.09,2.7-3.68,4.63-7.82,7-11.7,5.39-8.64,11.69-16.87,19.75-23.2,10.55-8.61,24.75-12.9,38.27-10.46,10.86,2.72,20.68,8.28,30.58,13.32,13.59,7.26,27,15.12,41.45,20.49,8.19,2.63,17.36,5.09,25.72,1.74,7.55-2.81,12.21-10.23,14.4-17.65,1.71-6.38,3.29-12.9,3.21-19.56q0-15.54,0-31.09c.08-10.38-9.31-19.84-19.72-19.74q-66.52.1-133.07,0c-5.51.07-11.47-.7-16.43,2.28m160.81,94.83c-6,9.41-13.66,17.92-23.17,23.85-9.78,5.9-21.7,8.77-33,6.62-12.2-2.84-23.09-9.24-34.15-14.86-15.45-8.11-30.76-17.37-48.05-20.94-8.21-1.89-17.86-.15-23.55,6.46-6.63,7.34-8.17,17.59-9.82,27-.56,10.85,0,21.73-.27,32.6a21.7,21.7,0,0,0,12.22,20.45c4.78,2.39,10.27,1.68,15.43,1.74q63,0,126,0c4.44-.08,9,.39,13.32-1.06,8.11-3,14-11.44,13.5-20.14-.12-25.07.17-50.14-.14-75.21-3.16,4.25-5.26,9.17-8.3,13.5Z" transform="translate(-200.79 -209.89)"/><path class="cls-2" d="M217.27,218.4c5-3,10.92-2.21,16.43-2.28q66.54,0,133.07,0c10.41-.1,19.8,9.36,19.72,19.74s0,20.73,0,31.09c.08,6.66-1.5,13.18-3.21,19.56-2.19,7.42-6.85,14.84-14.4,17.65-8.36,3.35-17.53.89-25.72-1.74-14.49-5.37-27.86-13.23-41.45-20.49-9.9-5-19.72-10.6-30.58-13.32-13.52-2.44-27.72,1.85-38.27,10.46-8.06,6.33-14.36,14.56-19.75,23.2-2.38,3.88-4.31,8-7,11.7,0-25.36,0-50.73,0-76.09-.19-7.89,4.11-15.82,11.21-19.45m160.81,94.83c3-4.33,5.14-9.25,8.3-13.5.31,25.07,0,50.14.14,75.21.5,8.7-5.39,17.18-13.5,20.14-4.29,1.45-8.88,1-13.32,1.06q-63,0-126,0c-5.16-.06-10.65.65-15.43-1.74a21.7,21.7,0,0,1-12.22-20.45c.24-10.87-.29-21.75.27-32.6,1.65-9.39,3.19-19.64,9.82-27,5.69-6.61,15.34-8.35,23.55-6.46,17.29,3.57,32.6,12.83,48.05,20.94,11.06,5.62,21.95,12,34.15,14.86,11.32,2.15,23.24-.72,33-6.62,9.51-5.93,17.19-14.44,23.17-23.85" transform="translate(-200.79 -209.89)"/></svg>