<svg id="Layer_4" data-name="Layer 4" xmlns="http://www.w3.org/2000/svg" viewBox="0 0 469.33 244.16"><defs><style>.cls-1{fill:#008a9f;}</style></defs><path class="cls-1" d="M315.07,76c19.33-10.77,42.07-18,64.29-14,0,9,.39,65.9.39,65.9-1.68,1.28-4,.81-5.92,1.28-15.33,2.81-29.8,9.07-43.37,16.6-26.74,15.14-50,35.68-70.77,58.22-25.4,28.65-52.27,56.67-84.57,77.64-22.53,14.61-49,24.8-76.24,23.28a101.24,101.24,0,0,1-59.12-26.41,77,77,0,0,1-24-52.08,59.45,59.45,0,0,1-.13-15.36C17.14,192,23,172.41,36.33,158.19c17.75-19.51,45.16-27.37,70.88-27,35.72.91,68.76,17.84,96.72,39,2.18.8.5,3-.32,4.15-4.32,6.48-8.39,13.12-12.74,19.57-21-14.56-44.2-27-69.57-31.81-15.17-2.72-31.57-2.48-45.51,4.77C58.28,175.81,47.42,194.57,45,213.69a42.55,42.55,0,0,0,4,24.79C57,255.37,72.87,269.05,91.58,272c7.75,1.36,15.63.24,23.23-1.37a118,118,0,0,0,41.78-15.71c13.89-8.57,25.83-19.94,36.47-32.25C209.26,203.71,222.6,182.55,235,161,255.18,127.5,280.79,95.82,315.07,76Z" transform="translate(-15.19 -60.89)"/><path class="cls-1" d="M379.39,130.4c22.88-1.85,47.24.61,67,13.19,20.26,12.54,33.16,34.79,37.08,58,1.54,6.27.87,12.59.87,19.09-1.71,22.72-10.43,45.7-27.32,61.5-14.59,13.83-34.46,20.89-54.26,22.57-18.5,1.19-36.84-3.58-53.89-10.44-34-14.06-64.34-35.68-92-59.7l-.32-1.12c6.62-7.14,13.4-14.13,20.27-21,3.46,2.22,7.69,6.23,11.65,9,20.07,15.48,41.06,30,63.81,41.32,8.53,3.92,17.3,7.92,26.71,9.09a47.62,47.62,0,0,0,25.29-8.76c13.51-9.9,18.13-30,10.71-44.93-7-13.32-21.93-19.49-35.79-22.91C379.25,190.89,379.39,133.48,379.39,130.4Z" transform="translate(-15.19 -60.89)"/></svg>