<svg id="Layer_1" data-name="Layer 1" xmlns="http://www.w3.org/2000/svg" viewBox="0 0 508.43 477.92"><defs><style>.cls-1{fill:#701e72;}</style></defs><path class="cls-1" d="M110.2,285.39c28.81-1.75,58,11.37,75.91,33.93,18,21.78,24.55,52.24,17.6,79.57-6.45,26.56-25.67,49.57-50.51,60.89a91.43,91.43,0,1,1-43-174.39m171.74,4.07a45.87,45.87,0,0,1,2.63-4.57q-42.79,198-85.71,396c-5.94,27.15-11.68,54.34-17.71,81.47q-75.52-.06-151,0Q156.18,526,281.94,289.46m18.95-4.27c17.7,0,35.4,0,53.09,0Q310.42,486,267,686.75c-5.39,25.22-11,50.4-16.3,75.63-17.73,0-35.46,0-53.2,0q51.72-238.6,103.37-477.22m70,0q75.53,0,151.06,0Q394.82,524,267.71,762.81c2.14-11.88,5-23.63,7.5-35.45Q323,506.28,370.9,285.21m4.66,321.52c17.73-18.49,43.73-28.5,69.26-27.26a91.47,91.47,0,1,1-83.06,137.74,91.23,91.23,0,0,1,13.8-110.48" transform="translate(-23.57 -284.89)"/></svg>