<svg id="Layer_4" data-name="Layer 4" xmlns="http://www.w3.org/2000/svg" viewBox="0 0 290.89 254.25"><defs><style>.cls-1{fill:#b01117;}.cls-2{fill:#00aec5;}</style></defs><path class="cls-1" d="M337.79,273.83h-88c-3.86,0-57.51-91.28-57.51-96.24s23.49-36.79,21.13-37.07c-3.64-.43-36.57,0-36.57,0S129.69,218.15,129.69,221s45.72,83.72,47.15,83.72H212.6c2,0-46.13-79.31-45.52-82.1.47-2.14,5.69-11.31,7.93-14s55.74,96.12,59.12,96.12h89.23S342.66,273.83,337.79,273.83Z" transform="translate(-106.55 -50.48)"/><path class="cls-1" d="M289.24,56.48l44.59,75.86c2,3.33-49.55,95.85-53.82,98.36s-43.62-1.61-42.67.56c1.48,3.37,18.54,31.54,18.54,31.54s90.82,1.3,93.27-.14,49-81.85,48.29-83.08-17.1-29.08-18.13-30.83-45,80-47.71,80.85c-2.09.68-12.63.83-16.1.27s54.61-96.77,52.9-99.68L323.18,53.27S286.77,52.28,289.24,56.48Z" transform="translate(-106.55 -50.48)"/><path class="cls-1" d="M125.87,205.32c2.47-4.2,42.64-72.53,44.59-75.86s107.85-3.31,112.12-.8,19.81,38.89,21.24,37c2.23-2.92,18.54-31.53,18.54-31.53s-43-80-45.48-81.43-95.35-3-96.08-1.78L162.68,81.75c-1,1.75,91.76.42,93.85,2.36,1.61,1.5,6.87,10.64,8.07,13.94s-111.12-.65-112.83,2.26l-45.22,76.92S123.4,209.53,125.87,205.32Z" transform="translate(-106.55 -50.48)"/><path class="cls-1" d="M214.63,304.72" transform="translate(-106.55 -50.48)"/><path class="cls-2" d="M286.58,178.73a35,35,0,1,0-35,35A35,35,0,0,0,286.58,178.73Z" transform="translate(-106.55 -50.48)"/></svg>