<svg id="Layer_1" data-name="Layer 1" xmlns="http://www.w3.org/2000/svg" viewBox="0 0 280.37 281.32"><defs><style>.cls-1{fill:#5613a2;}.cls-2{fill:#ff0087;}</style></defs><path class="cls-1" d="M229,227.85c15.37-10.65,33.52-17.51,52.25-18.7,14.65-.7,29.61-.19,43.72,4.23a136.51,136.51,0,0,1,73.55,49.67c-6.12-3.55-11.75-7.94-18.14-11.05-15.58-7.79-32.58-13-50-14.17-9.75-1.61-19.56.17-29.25,1.26-13.24,2.56-26.26,7-37.77,14.09-13.3,8.72-25.19,19.92-33.4,33.66-14.92,24.51-18.76,55-12.14,82.75,1.77,7.73,4.54,15.16,7.27,22.58a143.46,143.46,0,0,1-23.84-38.89,126.28,126.28,0,0,1-8.43-62.72c2.22-16.12,8.22-31.85,18.1-44.84,5.47-6.48,11.19-12.89,18.1-17.87M186,249.9c4-3.66,7.6-7.89,12.32-10.68-2.25,4-5.14,7.61-7.26,11.68-5,10.13-9.88,20.43-12.34,31.5a121.06,121.06,0,0,0-4.07,25.71c.08,8.68-.4,17.48,1.55,26,4,24.2,16.3,47.15,35,63.13,16.91,14,38,23.16,60,24.56,5.17.45,10.39,1,15.56.09a117.91,117.91,0,0,0,32.43-6.72c3.75-1.27,7.29-3.1,11.12-4.14-9.68,9.54-21.63,16.39-33.68,22.46a120.48,120.48,0,0,1-64.4,11.43A90.84,90.84,0,0,1,196,434.31c-9.34-5.59-18.42-12-25.5-20.34-6.75-8.68-13.13-17.88-16.71-28.37-10.14-27.31-9-58,.65-85.3A137,137,0,0,1,186,249.9m93.53,14.51c24-10.61,51.57-14.68,77.18-7.74,16.08,4.6,31.63,12.55,43,25,11.45,11.36,19,26.17,23.44,41.56,11.28,43.08-2.79,90.69-32.76,123.06-5,5-9.89,10.34-15.91,14.16,19.69-28.42,29-64.72,22.14-98.9-4.52-23.14-16.61-44.85-34.66-60.14-19-16.93-44.67-24.72-69.77-25.05-13.78,1-27.61,3.16-40.57,8.15-2.49,1-4.94,2-7.51,2.75a116.16,116.16,0,0,1,35.4-22.87M348.15,306c6,5.61,10.59,12.5,14.83,19.48,9.25,15.54,16,32.73,18.49,50.71,2.61,21.29.79,43.77-9,63.16-6.43,12.27-15.3,23.47-26.8,31.35-11,8.65-24.24,13.85-37.73,17.08-12.77,1.87-25.82,3.59-38.68,1.48-22.82-1.76-44.51-11.07-63.42-23.67-8-5.09-14.85-11.73-21.46-18.49-2.64-2.85-5.56-5.54-7.49-9,9.54,5.5,19,11.3,29.47,15a123,123,0,0,0,55.83,8.57c19.84-1.49,39-8.88,55.23-20.31,13.08-10,24.22-22.85,31.26-37.82,7.37-15.32,10.68-32.45,10.56-49.4A127.84,127.84,0,0,0,351.49,315c-1-3-2.4-5.93-3.34-9" transform="translate(-146.69 -208.89)"/><path class="cls-2" d="M278.62,297.56c23.8-3.79,50,9.48,59,32.19a50.05,50.05,0,0,1-1,40.78c-2.83,7.24-8.48,12.76-13.93,18.07-19.87,17.13-52.19,17.44-72.05.11-5.16-4.94-10.3-10.22-13.26-16.82-6.64-13.32-7.14-29.69-.74-43.19,7.3-16.74,24.14-28.27,41.92-31.14Z" transform="translate(-146.69 -208.89)"/></svg>