<svg id="Layer_1" data-name="Layer 1" xmlns="http://www.w3.org/2000/svg" viewBox="0 0 391.87 391.58"><defs><style>.cls-1{fill:#157215;}.cls-2{fill:#aa7346;}</style></defs><path class="cls-1" d="M297.15,138.89q43.68,43.7,87.37,87.37c3.49,3.58,7.2,7,10.49,10.74-24.65.46-49.33.07-74,.2-40.4,0-80.79.06-121.19,0,1.46-2.67,3.88-4.57,6-6.71q42-42,84-84c2.5-2.49,5.06-4.92,7.38-7.58m-98.56,98.67c.19,2.41.26,4.83.24,7.25-.13,62.54.15,125.09-.15,187.63q-48.9-48.6-97.51-97.5,48.9-48.49,97.42-97.38m196.5,42.21c.09-14.33-.21-28.67.16-43,29.84,30.36,60.18,60.24,90.2,90.43,2.54,2.74,5.67,5,7.59,8.29-3.6,2.82-6.58,6.3-9.86,9.45q-28.47,28.5-57,57c-10.16,10.39-20.79,20.34-30.64,31a30.41,30.41,0,0,1-.5-4.25q0-74.44,0-148.91M199.81,433.5c64.76-.25,129.53-.09,194.3-.08a62.77,62.77,0,0,1-5.51,6.12l-70.9,70.89c-6.53,6.67-13.37,13-19.63,19.95l-1.61.09c-32-32.49-64.64-64.45-96.65-97Z" transform="translate(-101.17 -138.89)"/><path class="cls-2" d="M260.78,266.43A78.2,78.2,0,0,1,306,257.59a116.87,116.87,0,0,1,16.42,3.86q1.67.78,3.36,1.5c2.27.75,4.39,1.87,6.69,2.51l-.12.68c1.08.41,2.17.84,3.25,1.27,3,2.09,6.1,3.95,9.06,6.08,2,1.87,4.16,3.55,6.28,5.29l1.92,2.06c2.65,2.88,5,6.08,7.71,8.87,0,.38-.13,1.15-.17,1.54l1-.11a17.42,17.42,0,0,0,3.14,4.61l-.16,1.5,1.29.12-.32,2,1.56-.12-.64,2h1.51c-.12.5-.37,1.52-.5,2l1.05,0c.67,2.75,2.28,5.21,2.41,8.09h.6c1.46,6.06,3.45,12.12,3.31,18.43,0,5.27.27,10.58-.32,15.84a96.52,96.52,0,0,1-3.5,13.8c-.51,1.6-1.05,3.19-1.53,4.8l-.59,0c-.27,2.64-1.81,4.88-3,7.17-.44,1-.87,2-1.3,3l-1.58,1.48-.6,1.8a49.48,49.48,0,0,0-4.89,6.72l-.46-.18a45.92,45.92,0,0,1-11.43,11.29l.12.48c-2.51,1.54-4.82,3.4-7.46,4.73l-1.32,1.39-3.34,1.14-.12.77c-2.89,1.56-6.29,2-8.92,4l-2.64.38c-11.52,4.78-24.33,4.65-36.57,3.55-7.31-1.62-14.64-3.44-21.34-6.91-2.19-.86-3.93-2.74-6.38-2.92l.2-.67a57.81,57.81,0,0,1-6.26-3.46l.26-.51a16.72,16.72,0,0,1-3.85-2.71,22,22,0,0,1-2.69-2.09c-.67-.68-1.35-1.34-2.05-2s-1.28-1.4-1.9-2.11a3.53,3.53,0,0,1-1.83-2.46l-.52.18a19.83,19.83,0,0,0-3.06-3.94,3.6,3.6,0,0,0-2.46-2.61c.09-.3.27-.9.37-1.2-2.14-.85-2.64-3.37-4.09-4.94l.08-1.43-1.25-.15c.09-.49.25-1.45.34-1.93l-1.51.08c.12-.49.38-1.47.5-2l-1.32-.17c.09-.48.26-1.43.35-1.91h-1c-5.1-13.4-8-28-5.62-42.29,1.08-5.28,2.07-10.61,4.08-15.64a82.48,82.48,0,0,1,7.46-15.1,44.94,44.94,0,0,0,4-6l.46.13c1.44-2.56,3.72-4.47,5.74-6.55,2.45-2.36,4.64-5.06,7.64-6.76l-.17-.49c3.88-2.2,7.32-5.15,11.39-7" transform="translate(-101.17 -138.89)"/></svg>