<svg xmlns="http://www.w3.org/2000/svg" xmlns:xlink="http://www.w3.org/1999/xlink" viewBox="0 0 333.32 404.02"><defs><style>.cls-1,.cls-2,.cls-3{fill-rule:evenodd;}.cls-1{fill:url(#GradientFill_1);}.cls-2{fill:#202d14;stroke:#373435;stroke-miterlimit:22.93;stroke-width:0.22px;}.cls-3{fill:#eff1bf;}</style><linearGradient id="GradientFill_1" x1="52.3" y1="232.22" x2="570.51" y2="568.75" gradientUnits="userSpaceOnUse"><stop offset="0" stop-color="#b6762a"/><stop offset="0.63" stop-color="#f1ef9a"/><stop offset="1" stop-color="#b6762a"/></linearGradient></defs><g id="_Layer_3" data-name="#Layer 3"><path class="cls-1" d="M289.7,216.14l-.37-21.65h33.28l-.08,21.56H345l.05,43.39h43.75l23.35,27.44-12.12.35L388.51,304.3l8.41.11,0,15.45,15.54.14.08,20.62,15.43-.07v28c8-.23,13.64,2.52,16.51,11.42,15.13-1,24,17.47,28.64,36.53l-10.64-4.74-36.28-.17-3.41,7,15.54-.08.16,13.72h12l.12,15.73-12.26,0,0,10.27-19,.22v6.67l-15.51.17,0,77.87-65.74,0-.07,31H324.28v24.24l-36.36,0V574.27H274.08v-31.1l-65.82-.06.19-77.89-15.62,0,.22-6.88-19.27-.05-.09-10.4-11.95-.13-.05-15.46h12l.13-13.7,16.79,0-3.19-7.1-34.06-.19a27.05,27.05,0,0,0-13.53,5.62c2.52-14.76,7.33-35.3,28.28-36.89,1.79-6.53,6-12.19,16.17-11.7l-.18-27.74,15.76.05-.06-20.69,15.42-.1.06-13.81,8.5,0L211.85,287l-11.94,0L224,261h43.12l0-44.71Z" transform="translate(-139.84 -194.49)"/><polygon class="cls-2" points="163.58 170.39 163.63 187.87 146.37 177.33 146.37 90.9 134.38 72.72 134.21 30.3 156.75 30.3 156.73 7.78 175.79 7.86 175.66 30.57 198.32 30.57 198.32 72.72 186.25 90.77 186.29 177.24 170.6 187.7 170.79 170.31 175.75 164.77 175.92 40.75 156.84 40.71 156.82 165.18 163.58 170.39"/><polygon class="cls-2" points="80.67 82.17 85.86 75.28 129.02 75.26 139.43 94.33 139.52 184.09 161.88 198.13 161.96 258.57 136 258.57 136.04 201.53 108.29 175.22 108.2 108.21 92.67 82.26 80.67 82.17"/><polygon class="cls-2" points="82.31 92.66 89.43 92.66 101.63 113.35 101.5 173.77 94.65 173.82 94.57 113.3 82.31 92.66"/><polygon class="cls-2" points="80.71 156.61 87.49 156.63 87.58 173.83 80.62 173.89 80.71 156.61"/><path class="cls-2" d="M154.77,402.82c1.33-5.76,5.12-11.88,10.32-13.61l11.81-.07c-.82-5.16.85-9,5.62-12.05l62.1-.17,22.62,22.61,0,53.67-20.74-.14-32.91-50Z" transform="translate(-139.84 -194.49)"/><polygon class="cls-2" points="58.05 217.16 68.47 217.12 96.17 258.48 84.21 258.62 58.05 217.16"/><polygon class="cls-2" points="52.95 241.41 53.13 248.07 68.55 248.16 63.2 241.31 52.95 241.41"/><polygon class="cls-2" points="251.76 82.17 246.58 75.28 203.41 75.26 193 94.33 192.92 184.09 170.56 198.13 170.47 258.57 196.44 258.57 196.39 201.53 224.14 175.22 224.23 108.21 239.77 82.26 251.76 82.17"/><path class="cls-2" d="M457.63,402.69c-1.33-5.76-5.12-11.88-10.32-13.61L435.5,389c.81-5.15-.85-9-5.62-12l-62.1-.17-22.66,22.76.08,53.52,20.73-.14,32.92-50Z" transform="translate(-139.84 -194.49)"/><polygon class="cls-2" points="275 217.25 264.58 217.21 236.88 258.57 248.84 258.7 275 217.25"/><polygon class="cls-2" points="279.49 241.45 279.6 248.23 264.21 248.3 269.26 241.4 279.49 241.45"/><polygon class="cls-2" points="142.81 348.56 142.99 371.1 156.82 371.13 156.73 395.24 175.93 395.24 175.89 371.16 189.68 371.08 189.58 348.66 175.77 348.66 175.7 362.21 156.88 362.33 156.69 348.6 142.81 348.56"/><polygon class="cls-2" points="75.45 267.31 75.62 339.84 257.07 339.87 257.04 267.33 75.45 267.31"/><polygon class="cls-2" points="244.95 156.61 251.73 156.63 251.82 173.83 244.86 173.89 244.95 156.61"/><polygon class="cls-2" points="250.23 92.66 243.11 92.66 230.91 113.35 231.04 173.77 237.89 173.82 237.98 113.3 250.23 92.66"/><path class="cls-3" d="M363.58,508.73v.87a3.76,3.76,0,0,0,1.32,3.3,3.26,3.26,0,0,0,1.87.52c.56,0,1.06-.6,1.5-1.79l.27-.93c.1-.35.23-.52.39-.52s.3.19.3.58a3.92,3.92,0,0,1-.09.69l-.15.76a17.06,17.06,0,0,1-2,5.29c-.81,1.25-1.63,1.88-2.47,1.88a2.75,2.75,0,0,1-2.74-1.73,11.18,11.18,0,0,1-.75-4.4Z" transform="translate(-139.84 -194.49)"/><path class="cls-3" d="M368.31,527.91a2.42,2.42,0,0,1-.09,1.24,8.8,8.8,0,0,1-.66,1.51,5.39,5.39,0,0,1-1.24,1.53,1.34,1.34,0,0,1-.78.47c-.12,0-.39-.18-.81-.53s-.8-.64-1.14-.89a7.58,7.58,0,0,1-.87-.73.89.89,0,0,1-.36-.57c.23-.51.42-.89.54-1.16.4-.85.7-1.47.9-1.85q.54-.87,1.08-1.8l.36-.52a2.29,2.29,0,0,0,.36.29c.12.08.28.18.48.29a11.72,11.72,0,0,1,1.69,1.5A2.65,2.65,0,0,1,368.31,527.91Z" transform="translate(-139.84 -194.49)"/><path class="cls-3" d="M363.58,508.73c-.32,1-.64,2-1,2.95s-1,1.57-1.57,1.57c0-.47.22-2.48.66-6.05s.81-6.3,1.09-8.19q.06-.22,1-2.37t1.44-3.24l.24-.12a2.77,2.77,0,0,1-.06.93l-.24,1.5-1,7.06c-.2,1.43-.34,2.67-.42,3.71S363.58,508.27,363.58,508.73Z" transform="translate(-139.84 -194.49)"/><path class="cls-3" d="M352,508.73v.87a3.76,3.76,0,0,0,1.32,3.3,3.28,3.28,0,0,0,1.87.52c.56,0,1.06-.6,1.5-1.79l.27-.93c.1-.35.23-.52.39-.52s.3.19.3.58a3.92,3.92,0,0,1-.09.69l-.15.76a17.06,17.06,0,0,1-2,5.29c-.8,1.25-1.63,1.88-2.47,1.88a2.73,2.73,0,0,1-2.73-1.73,11.17,11.17,0,0,1-.76-4.4Z" transform="translate(-139.84 -194.49)"/><path class="cls-3" d="M356.57,483a2.42,2.42,0,0,1-.09,1.24,8.18,8.18,0,0,1-.67,1.51,5.53,5.53,0,0,1-1.23,1.53,1.34,1.34,0,0,1-.78.47,2.23,2.23,0,0,1-.81-.52q-.63-.52-1.14-.9a9,9,0,0,1-.88-.72c-.24-.24-.36-.43-.36-.58.24-.5.42-.89.54-1.16.41-.85.71-1.47.91-1.85q.54-.87,1.08-1.8l.36-.52a2.29,2.29,0,0,0,.36.29c.12.08.28.18.48.29a12.16,12.16,0,0,1,1.69,1.51A2.57,2.57,0,0,1,356.57,483Z" transform="translate(-139.84 -194.49)"/><path class="cls-3" d="M352,508.73c-.13.47-.24.95-.37,1.45a8.53,8.53,0,0,1-.57,1.59,3.6,3.6,0,0,1-.87,1.25c-.32.27-.56.34-.72.23a25.2,25.2,0,0,1,.21-3c.14-1.14.23-1.88.27-2.23l.06-.63a.35.35,0,0,0-.06-.24s-.12,0-.24.12-.42.54-.78,1c-.76,1-1.33,1.74-1.69,2.2a22.58,22.58,0,0,1-4.51,4.11,24.41,24.41,0,0,1-5.77,3,50.22,50.22,0,0,1-7,1.88,40.89,40.89,0,0,1-8.09.78H321a25.23,25.23,0,0,1-4.21-.29,6.12,6.12,0,0,1-3.52-1.53,4.91,4.91,0,0,1-.93-3.27,28,28,0,0,1,.27-3.82c.18-1.31.43-2,.76-2,.12,0,.21.38.27,1.13a3.33,3.33,0,0,0,.87,2q1.62,1.72,7.88,1.73c2.28,0,4.11-.06,5.47-.17q9.86-.81,16.12-4.57a14.51,14.51,0,0,0,4.63-4,14.22,14.22,0,0,0,2-4.28l.84-3.3a22.18,22.18,0,0,1,1.33-3c.52-1,.86-1.71,1-2a3.46,3.46,0,0,1,.6-.78v.87c-.2.85-.34,1.51-.42,2l-1.26,6.08c-.24,1.65-.43,3.17-.54,4.54S352,508,352,508.73Z" transform="translate(-139.84 -194.49)"/><path class="cls-3" d="M356.87,487.93a58.29,58.29,0,0,1,5.66-4.74q3.84-3,7.69-6c1.85-1.46,3.61-3,5.3-4.45q1.8-1.62,4.75-4.4c3-2.78,4.51-4.2,4.51-4.28a1.11,1.11,0,0,1-.12.52,9.73,9.73,0,0,1-1.15,2.43,20.94,20.94,0,0,1-1.62,2.43q-1,1.21-2.07,2.4c-.75.79-1.34,1.4-1.78,1.82-.6.58-1.62,1.49-3.07,2.72q-1.62,1.39-4.87,4.06-2.28,1.84-4.09,3.18-2.4,1.78-4.81,3.53l-4.15,3.12c-.6.47-1.17.9-1.71,1.3s-.85.56-.93.44a16.08,16.08,0,0,1,1.08-2.32A8.1,8.1,0,0,1,356.87,487.93Z" transform="translate(-139.84 -194.49)"/><path class="cls-3" d="M303.36,510.19c.84-.84,1.34-1.37,1.5-1.56a8.87,8.87,0,0,0,1.51-2.46,18.93,18.93,0,0,0,1.05-3.87,22.67,22.67,0,0,0,.45-3.74q0-1.56,0-3.27c0-1.13.09-2.3.21-3.5s.06-1.75.06-2a1.22,1.22,0,0,0-.06-.47l-.3.12-2.16,5.15a4.46,4.46,0,0,0-.3,1.53c0,.68-.06,1.46-.06,2.35l.06,3.88a9.22,9.22,0,0,1-.6,3.7,6.56,6.56,0,0,1-.7,1.13,2.55,2.55,0,0,1-.69.66Z" transform="translate(-139.84 -194.49)"/><path class="cls-3" d="M310.56,485.11a60.8,60.8,0,0,1,5.66-4.75q3.84-2.94,7.69-6c1.85-1.46,3.61-2.95,5.3-4.45q1.8-1.62,4.75-4.4c3-2.78,4.51-4.21,4.51-4.28a1.14,1.14,0,0,1-.12.52,9.38,9.38,0,0,1-1.15,2.43,20.94,20.94,0,0,1-1.62,2.43q-1,1.22-2.07,2.4c-.75.79-1.34,1.4-1.78,1.82-.6.58-1.62,1.49-3.06,2.72-1.09.93-2.71,2.28-4.88,4.05q-2.28,1.86-4.09,3.19-2.4,1.79-4.81,3.53l-4.15,3.12c-.6.46-1.17.9-1.71,1.3s-.85.55-.93.44a16.08,16.08,0,0,1,1.08-2.32A8.1,8.1,0,0,1,310.56,485.11Z" transform="translate(-139.84 -194.49)"/><path class="cls-3" d="M303.35,510.18l-.36.29c-.69.35-1.14.57-1.36.67a2.91,2.91,0,0,0-.66.4c-.22.17-.49.42-.81.72a1.52,1.52,0,0,1-.72.24,1.8,1.8,0,0,0-.81.26,8.28,8.28,0,0,0-1.09.84,3.73,3.73,0,0,1-1.17.75,2.22,2.22,0,0,1-.69,0c-.26,0-.55,0-.87-.08-.68,0-1.59.85-2.71,2.55s-2.45,2.54-4,2.54c-1.8,0-3.07-1-3.79-3.06a6.69,6.69,0,0,1-.3-1.48,14.52,14.52,0,0,1-.12-1.59l2.53-4.52a5.68,5.68,0,0,0,.66,2.95,3.87,3.87,0,0,0,3.61,1.8,4.11,4.11,0,0,0,2.4-.7l2.59-1.85a9.91,9.91,0,0,0,1.62.12,2.12,2.12,0,0,0,1.45-.7q.36-.41.78-.81a.58.58,0,0,0,.72.12,2.54,2.54,0,0,0,1.26-.93c.2-.27.4-.56.6-.86a1.77,1.77,0,0,0,.85.11l.36-.17c.08.19.16.39.24.61a1.84,1.84,0,0,1,.12.66,1.38,1.38,0,0,1-.12.52Z" transform="translate(-139.84 -194.49)"/><path class="cls-3" d="M294.44,483.81a2.43,2.43,0,0,1-.09,1.24,8.8,8.8,0,0,1-.66,1.51,5.53,5.53,0,0,1-1.23,1.53,1.32,1.32,0,0,1-.79.46,2.09,2.09,0,0,1-.81-.52c-.42-.34-.8-.64-1.14-.89a10.38,10.38,0,0,1-.87-.73.93.93,0,0,1-.36-.58c.24-.5.42-.88.54-1.15.4-.85.7-1.47.9-1.85q.54-.87,1.08-1.8l.36-.52a2,2,0,0,0,.37.29l.48.29a11.44,11.44,0,0,1,1.68,1.5,2.65,2.65,0,0,1,.54,1.22Zm6.2-.35h0a2.48,2.48,0,0,1-.1,1.25,9.08,9.08,0,0,1-.66,1.5,5.53,5.53,0,0,1-1.23,1.53,1.34,1.34,0,0,1-.78.47,2.23,2.23,0,0,1-.81-.52c-.42-.35-.81-.65-1.15-.9a8.77,8.77,0,0,1-.87-.72c-.24-.24-.36-.43-.36-.58.24-.51.42-.89.54-1.16.4-.85.7-1.47.9-1.85.37-.58.73-1.18,1.09-1.8l.36-.52a2.29,2.29,0,0,0,.36.29c.12.08.28.18.48.29a11.35,11.35,0,0,1,1.68,1.51,2.69,2.69,0,0,1,.55,1.21Zm-3.13-7.17h0a2.61,2.61,0,0,0-.54-1.22,11.09,11.09,0,0,0-1.69-1.5l-.48-.29a3.05,3.05,0,0,1-.36-.29l-.36.52c-.36.62-.72,1.21-1.08,1.79-.2.39-.51,1-.9,1.85l-.55,1.16a.93.93,0,0,0,.36.58c.25.23.54.48.88.75l1.14.9a2.11,2.11,0,0,0,.81.49,1.31,1.31,0,0,0,.78-.46,5.53,5.53,0,0,0,1.24-1.53,9.15,9.15,0,0,0,.66-1.51A2.43,2.43,0,0,0,297.51,476.29Z" transform="translate(-139.84 -194.49)"/><path class="cls-3" d="M286.45,508.73c-.32,1-.64,2-1,2.95s-1,1.57-1.57,1.57c0-.47.22-2.48.66-6.05s.81-6.3,1.09-8.19q.06-.22,1-2.37t1.44-3.24l.24-.12a2.77,2.77,0,0,1-.06.93l-.24,1.5-1,7.06c-.2,1.43-.34,2.67-.42,3.71S286.45,508.27,286.45,508.73Z" transform="translate(-139.84 -194.49)"/><path class="cls-3" d="M280.64,511.87l-.85,2.14a12.42,12.42,0,0,1-1.29,2.17,5.67,5.67,0,0,1-1.23,1.33,9.56,9.56,0,0,1-1.81.78c-.44.16-.86.31-1.26.47-1,.3-1.6.52-1.92.63a8.45,8.45,0,0,1-1.93.41l-.24-.12c0-.27.72-.85,2.17-1.73l2.34-1.62q.6-.41,1.32-1a14.13,14.13,0,0,0,1.54-1.44,4.85,4.85,0,0,0,1.11-1.8,1.51,1.51,0,0,1,.06-.34l-1.56.11a2.57,2.57,0,0,1-1.81-.67,1.61,1.61,0,0,1-.6-1.47,5,5,0,0,1,.3-1.1c.16-.42.52-1.2,1.08-2.32a14.16,14.16,0,0,1,1.09-1.85c.52-.69,1-1,1.5-1a2.82,2.82,0,0,1,2.11,1,3.41,3.41,0,0,1,.9,2.38,8.24,8.24,0,0,1-.12,1.39l-.21,1.21c-.06.35-.15.76-.27,1.25A7.16,7.16,0,0,1,280.64,511.87Z" transform="translate(-139.84 -194.49)"/><path class="cls-3" d="M270.44,504.16a14.64,14.64,0,0,1-.3,2.31c-.2,1.08-.4,2-.6,2.84l-.73,2.83c-.4,1.08-.72,1.87-1,2.38a17.69,17.69,0,0,1-1,1.79,4.39,4.39,0,0,1-.93,1.07,10.07,10.07,0,0,1-1.63,1l-2.16.87a12.37,12.37,0,0,1-1.41.35,10.48,10.48,0,0,1-1.42.23c-.2,0-.32-.07-.36-.2a.61.61,0,0,1,.12-.49,6.14,6.14,0,0,1,1.53-1.45c.83-.62,1.64-1.22,2.44-1.79.92-.81,1.61-1.45,2-1.92a12.69,12.69,0,0,0,1.8-2.37,7.33,7.33,0,0,0,.51-1.18c.22-.6.57-1.58,1.05-2.93l.72-2.08c.09-.31.21-.68.37-1.13s.36-.66.6-.66A1.24,1.24,0,0,1,270.44,504.16Z" transform="translate(-139.84 -194.49)"/><path class="cls-3" d="M258.77,504.6a14.64,14.64,0,0,1-.3,2.31c-.2,1.08-.4,2-.6,2.84l-.72,2.83c-.4,1.08-.73,1.88-1,2.38a17.69,17.69,0,0,1-1,1.79,4.21,4.21,0,0,1-.93,1.07,11,11,0,0,1-1.62,1l-2.17.87a13.24,13.24,0,0,1-1.41.34,8.67,8.67,0,0,1-1.42.23c-.2,0-.32-.06-.36-.2a.62.62,0,0,1,.12-.49,6.06,6.06,0,0,1,1.54-1.45l2.43-1.79c.93-.81,1.61-1.45,2-1.91a13.38,13.38,0,0,0,1.8-2.37,8.05,8.05,0,0,0,.51-1.19l1.06-2.92.72-2.08c.08-.31.2-.69.36-1.13s.36-.67.6-.67A1.29,1.29,0,0,1,258.77,504.6Z" transform="translate(-139.84 -194.49)"/><path class="cls-3" d="M262.91,491.5a2.47,2.47,0,0,1-.09,1.25,9.08,9.08,0,0,1-.66,1.5,5.39,5.39,0,0,1-1.24,1.53,1.34,1.34,0,0,1-.78.47,2.23,2.23,0,0,1-.81-.52q-.63-.53-1.14-.9a8.77,8.77,0,0,1-.87-.72.9.9,0,0,1-.36-.58c.24-.5.42-.89.54-1.16.4-.85.7-1.46.9-1.85.36-.58.72-1.18,1.08-1.79l.36-.53a1.83,1.83,0,0,0,.36.29c.12.08.28.18.48.29a11,11,0,0,1,1.69,1.51A2.57,2.57,0,0,1,262.91,491.5Z" transform="translate(-139.84 -194.49)"/><path class="cls-3" d="M254.38,486.55a8.27,8.27,0,0,1-.36,1.36c-.16.44-.43,1.06-.81,1.85s-.61,1.24-.69,1.36q-.48.69-.84.69l-.46-.32a.72.72,0,0,0-.39-.14,4.71,4.71,0,0,0-1.92.58,10.44,10.44,0,0,0-2.47,1.73,16.19,16.19,0,0,0-2.43,2.49,3.58,3.58,0,0,0-.81,1.51,1.6,1.6,0,0,0,.42,1l1.08.52c.28.12.53.21.75.29a2.19,2.19,0,0,1,.63.35,2.84,2.84,0,0,1,1,2.54,21.15,21.15,0,0,1-1,6,21.62,21.62,0,0,1-2.7,5.87,20.46,20.46,0,0,1-2,2.31,13.05,13.05,0,0,1-2.46,2,10.59,10.59,0,0,1-5.84,1.62c-2.56,0-4.43-.81-5.59-2.43a7.59,7.59,0,0,1-1.26-2.57,10.16,10.16,0,0,1-.37-2.58,19,19,0,0,1,.25-3,20.8,20.8,0,0,1,.72-3,37.51,37.51,0,0,1,1.86-4.69c.72-1.5,1.31-2.71,1.75-3.64l1.38-2.84c.16-.31.33-.61.51-.92s.33-.47.45-.47c.28,0,.42.18.42.53a1.39,1.39,0,0,1-.12.63c-.24.58-.43,1.05-.57,1.42s-.43,1-.87,1.88q-.36.69-1.08,2.31c-.24.54-.48,1.09-.73,1.62a20.26,20.26,0,0,0-1.74,6.6,4.45,4.45,0,0,0,1.71,3.68A7.69,7.69,0,0,0,234.6,514a11.43,11.43,0,0,0,5-1.16,10.38,10.38,0,0,0,3-2.11,11.78,11.78,0,0,0,1.84-2.35,4.05,4.05,0,0,0,.63-2c0-.35-.28-.61-.84-.79s-1-.28-1.2-.34a4.88,4.88,0,0,1-.85-.32,3.5,3.5,0,0,1-1.38-1,2.85,2.85,0,0,1-.48-1.74,11,11,0,0,1,1.14-4.25,22,22,0,0,1,3.19-5.06,31.3,31.3,0,0,1,3.07-3.3c.48-.43,1.1-.92,1.86-1.48a18.31,18.31,0,0,1,2.23-1.42,6.44,6.44,0,0,1,2.1-.86,1.28,1.28,0,0,1,.42.34A.48.48,0,0,1,254.38,486.55Z" transform="translate(-139.84 -194.49)"/></g></svg>