<svg id="Layer_1" data-name="Layer 1" xmlns="http://www.w3.org/2000/svg" viewBox="0 0 342.86 344.06"><defs><style>.cls-1{fill:#f29200;}</style></defs><path class="cls-1" d="M204.76,127.9q28.74,0,57.49,0c10.94,8.16,22,16.2,33.4,23.69-6.81-7.67-14.18-14.86-20.42-23,9.35,0,18.77-.89,28.09.2,5.19,3.32,7.92,9.16,12.1,13.53-1.47-4.63-3.3-9.13-5-13.67,6.65-.13,13.34-.8,20,0,2.69.11,3.31,3.19,4.22,5.18,4.08,11.22,8.77,22.2,12.8,33.44-12.58,5-22.67,14.65-30.15,25.71-37.5-21.65-75.49-42.47-112.47-65m-79.25,2c13.65,0,27.29,0,40.93,0a18.78,18.78,0,0,1,8.79,2.17C222,153.47,269,174.24,315.6,195.89c-6.35,12.74-7.71,27.35-6.41,41.36-61.4,15.82-122.44,33-183.79,49-.07-14.74,0-29.49,0-44.23,38.71-4.7,77.22-10.95,116-15.13-11.86-2.2-24-2-35.94-3-26.56-1.57-53.08-3.77-79.67-4.79-.79-12.33-.42-24.69-.18-37,32.27,4.5,64.63,8.37,96.92,12.73a232,232,0,0,0,24.8,2.65c-40.4-11.45-80.69-23.29-121.09-34.76-2-10.85-.45-21.89-.7-32.83m215.9.05c6.37-.08,12.75-.12,19.12.28a49.45,49.45,0,0,0,3.58,11.33,86.78,86.78,0,0,1,.22-11.63c5.68,0,11.36-.08,17-.14-.11,4.78-.52,9.54-.63,14.32,2.48-4.37,3.49-9.33,4.81-14.12,6.71-.11,13.43-.08,20.14-.07-3.72,12.12-9,23.68-13.14,35.67a72.71,72.71,0,0,0-42.78.17c-2.45-12-5.75-23.83-8.36-35.81m73.07.25c7.91-.47,15.83-.26,23.76-.26-6,11.77-14,22.36-20.2,34,10.89-11,21-22.83,31.7-34.05,5.91,0,11.81,0,17.72-.08.28,5.35,1.19,10.81,0,16.11-.11,1.28-1.29,2-2.12,2.78-11.19,9.12-22.52,18.07-33.83,27,12.67-4.4,23.84-12,36.31-16.92.15,8.39.16,16.79,0,25.18-13.37,4.26-26,10.78-39.69,14-7-13.61-18.4-25.18-32.8-30.82,5-13.06,13.24-24.44,19.21-37M429.74,201c12.84-2.3,25.27-6.46,38.15-8.59q.08,8.48-.21,16.95c-6.83,1.82-13.67,3.6-20.48,5.48,6.83,1.79,13.82,2.88,20.7,4.46,0,5.64,0,11.28-.1,16.93-4.9.23-9.8.39-14.69.74a159.35,159.35,0,0,0,14.9,6.39c-.23,7.52-.05,15-.34,22.56q-19.28-7.9-38.42-16.09c6.19-15.51,6-33.15.49-48.83M125.56,312.22c61.84-23.56,123.26-48.23,185-72.13a65.57,65.57,0,0,0,25.12,36.49q-45.93,77.87-91.8,155.75c-7.45,12.82-14.73,25.74-22.84,38.15-16.1.9-32.22.4-48.33.16,32.31-48.55,66.63-95.74,98.74-144.42C246,351.33,220.88,376.8,195.51,402c-23.44,23.2-47.3,46-70,69.95-.12-25.29-.62-50.59.18-75.87,3.48-3.55,7.57-6.39,11.5-9.4l95.33-74.62c5.54-4.34,11.34-8.41,16.23-13.51-22.46,12.05-45.6,22.79-68.23,34.51-18.31,9.31-36.62,18.63-55.11,27.57-.08-16.14-.29-32.28.11-48.41m302.06-58.76c13.27,8.22,27,15.73,40,24.35.6,7.64.23,15.31.08,23-8.3-3.59-16.3-7.84-24.29-12.07,7.49,11.49,16.77,21.74,24,33.37,1,9.74.21,19.58.32,29.36-13.63-10.23-24.67-23.43-38.1-33.89,11.76,22.58,25.87,43.88,37.64,66.44,1.19,25.91.41,51.9.44,77.85a12.62,12.62,0,0,1-1.28,6.65C441,407.41,415.89,346.21,390.05,285.3c7.17-3.52,14.74-6.57,20.89-11.8,6.95-5.4,11.9-12.78,16.68-20m-88.77,25.18c14.14,8.52,31.41,10.66,47.5,7.71,15.22,61.46,32.68,122.34,47.77,183.83-12.64-.55-25.34,1-37.94-.6-7.38-34.38-14.47-68.82-21.61-103.25-1.17-5.46-2-11-4-16.25.12,4.91.45,9.83.21,14.76-.63,12-.33,24.06-.58,36.09-.3,23-.83,45.95-.9,68.93-12.95.34-25.92.72-38.87,0,2.23-38.28,5.66-76.47,8.12-114.73l1.23-.47-1.14-.44c-12.08,38.24-22.1,77.09-33.36,115.56-15.62.87-31.26.32-46.89.33,6-15.9,12.67-31.52,19.35-47.13C298.29,375,318,326.54,338.85,278.64Z" transform="translate(-125.18 -127.89)"/></svg>