<svg id="Layer_1" data-name="Layer 1" xmlns="http://www.w3.org/2000/svg" viewBox="0 0 453.38 441.24"><defs><style>.cls-1{fill:#2f3394;}</style></defs><path class="cls-1" d="M251.64,104.21c4.26-3.24,9.43-5.85,14.93-5.56,5.33,0,10.37,2.68,13.95,6.5,6.23,6.47,13,12.44,19.2,18.89,5,4.24,9.25,9.21,14.11,13.57A23.61,23.61,0,0,1,316,140c-13,.53-26.06-.06-39.07.29-4,.42-7.95.22-11.91.25L203.52,202c-5.47,5.37-10.71,11-16.41,16.1-11.23,11.2-22.41,22.45-33.66,33.63,0-17.11,0-34.22,0-51.33,7.48-7.07,14.56-14.56,21.94-21.73,6.57-5.85,12.33-12.56,19-18.33,7.74-7.95,16-15.4,23.67-23.36,7.44-6.65,14.19-14,21.39-20.93,4.3-3.73,8-8,12.23-11.88M99.48,155.43c5.89,0,11.78-.07,17.66,0,5.28.53,10.59.23,15.88.31,12.92,0,25.84-.11,38.76.08-3.92,5-9,9-13.43,13.53-7.25,7.45-15,14.35-22.2,21.84-.14,12.87.36,25.75-.36,38.61q0,31.82,0,63.62c-.11,6.47.27,12.93-.32,19.38-.06,11.59,0,23.17,0,34.75q-18.37-18.3-36.69-36.66c.15-9.77-.32-19.54.35-29.28V220.1c.12-7.59-.29-15.2.33-22.77.05-14,0-27.94,0-41.9M266.84,165c2.9-2.8,5.68-5.7,8.56-8.53H433.34q0,35.68,0,71.39c-7.35-6.52-14-13.82-21-20.64-5.2-4.52-9.85-9.62-14.77-14.43q-59.94,0-119.85,0c-13-.09-25.94.2-38.89-.14,3.58-4.12,7.62-7.79,11.43-11.69,5.85-5,10.84-10.91,16.63-16m70.65,44.14c17.24-.18,34.49,0,51.74-.08,5.74,6,11.94,11.44,17.7,17.38,4.44,4.34,8.65,8.92,13.36,13q14.54,14.52,29.06,29.06c8.15,7.52,15.76,15.59,23.69,23.33,4.58,3.92,8.61,8.44,13,12.59,5.17,5.46,8.22,13.69,5.57,21.05-1.84,5.46-6.47,9.17-10.6,12.89-10.25,10.21-20.46,20.49-30.72,30.7,0-12.27,0-24.54,0-36.81-.46-4.54-.3-9.1-.34-13.66-4.79-4-8.74-8.92-13.56-12.92-6.62-6.76-13.62-13.11-20.23-19.88-5-4.21-9.22-9.22-14.12-13.51-3.35-3.13-6.44-6.51-9.77-9.64-5-4.23-9.19-9.28-14.15-13.53-6.48-6.68-13.44-12.84-19.92-19.51-5.19-4.49-9.63-9.77-14.85-14.21a44.68,44.68,0,0,1-5.83-6.24m-83.7,16.27c26.25-3.22,53.77,4.38,74.3,21.16,19.23,15.37,32.35,38.42,34.79,63,3.06,26.36-6.35,53.61-24.41,73a98.44,98.44,0,0,1-68.39,31.35c-4.62-.1-9.25.22-13.84-.31a99.28,99.28,0,0,1-45.73-16.2c-19.38-13-34.19-33.13-39.64-56-2.69-10.19-3-20.86-2.23-31.32,2.5-26.13,16.93-50.67,38.13-66a98.84,98.84,0,0,1,47-18.64M44.56,306.7c12.3-12.23,24.49-24.57,36.83-36.75.25,12.69,0,25.39.13,38.08a119,119,0,0,1,.32,12.24c5.26,5.41,10.94,10.39,16.17,15.85,4.2,3.62,8,7.68,11.95,11.54,4.94,4.29,9.19,9.31,14.19,13.55,6,6.2,12.47,12,18.5,18.16,4.35,3.7,8.17,8,12.32,11.89,3.84,3.31,7.19,7.12,10.89,10.58,4.48,3.74,8.22,8.27,12.62,12.1,3.3,3,6.27,6.32,9.53,9.36a49.24,49.24,0,0,1,6.12,6l-.25.8c-17,.17-34,0-51,.09-2.17-2.16-4.3-4.36-6.62-6.36-5.57-5.27-10.69-11-16.48-16-7.63-7.6-15.22-15.24-22.84-22.84-10.94-10-20.85-21.15-31.84-31.13C59.81,348.48,54.61,343.05,49,338c-4.22-3.82-7.82-8.55-9.32-14.12a18.2,18.2,0,0,1,4.84-17.18m349-17.53c9.37,9.48,19.24,18.44,28.61,27.91,2.83,2.7,6,5.11,8.38,8.24.76,2.21.26,4.61.39,6.9.11,7.17-.3,14.34.31,21.48.09,6.9,0,13.81,0,20.71.68,8.75.17,17.54.36,26.32.66,8.51.16,17.06.34,25.59.68,8.52.16,17.07.35,25.6.77,9.56-.06,19.17.51,28.74-4.43,0-8.87,0-13.3,0-9.23.71-18.51.14-27.76.39-10.15.87-20.38-.33-30.51.71-.14-.25-.43-.73-.58-1,7.77-7.85,15.79-15.47,23.28-23.58q5.85-5.82,11.67-11.66a93.29,93.29,0,0,0-.28-10.17c-.31-9,.3-18-.42-27,0-6.68,0-13.36,0-20-.68-8.76-.17-17.55-.37-26.33-.84-9.9.2-19.88-.64-29.79-.09-7.13,0-14.27,0-21.42-.62-7.18-.21-14.4-.34-21.6m-42,124.62c8.75-9.4,18.05-18.27,27.08-27.4.1,6.38-.27,12.78.32,19.14.08,10.67,0,21.35,0,32l-26,26c-6.86,7-14.11,13.55-20.91,20.6-5.28,5.56-11.13,10.52-16.44,16.06-8.21,8.16-16.29,16.48-24.73,24.4-4.81,4.39-8.69,10-14.69,12.9-5.35,2.72-12,3.27-17.45.44-3-1.19-5-3.78-7.48-5.78-6.9-6.69-13.75-13.43-20.78-20-4.38-4.6-9.29-8.65-13.58-13.35,16.81-1.09,33.69-.19,50.51-.94q42.07-42.07,84.16-84.14M97.06,407.47c4.12,4,8,8.25,12.38,12.06q11.9,11.85,23.76,23.75,58.38,0,116.74,0c4.37,0,8.76-.17,13.12.3,9.57.21,19.15-.19,28.71.2-5,5.41-10.55,10.28-15.75,15.51-3.59,3.83-7.72,7.08-11.29,10.92-3.09,3.3-6.6,6.15-9.73,9.4q-32.26,0-64.53,0c-2.31,0-4.6-.38-6.9-.36q-43.26,0-86.5,0,0-35.89,0-71.79" transform="translate(-39.2 -98.63)"/></svg>