<svg id="Layer_1" data-name="Layer 1" xmlns="http://www.w3.org/2000/svg" viewBox="0 0 238.76 201.72"><defs><style>.cls-1{fill:#289925;}</style></defs><path class="cls-1" d="M281.4,238.38c30.75-5.58,63.79,4.81,86.22,26.49a247.34,247.34,0,0,0-38.34,60.41c-1.95,4.32-3.37,8.87-5.75,13-6.91-13.15-16-25.53-28.42-33.95a62.8,62.8,0,0,0-33-11.28,20.43,20.43,0,0,0-5,.77c2.32,4.8,5.36,9.23,7.23,14.25,5.43,13.95,7.82,28.81,12.05,43.13,3.9,13.69,9.48,27.11,18.07,38.56a100.56,100.56,0,0,0,26.58,24.45c1.47.95,4.15,2.47,5,0,1.18-5.63,1.35-11.45,2.59-17.09,6.3-32.41,20.14-63.21,39.21-90.09,15.69-21.75,35.43-41.38,59.89-53,2.59-1.1,5.16-2.76,8.09-2.6,0,3.28-2.5,5.82-3.64,8.75C424.82,276.36,421,293.85,416.63,311c-5.64,22.28-10.8,45-20.81,65.78a108.57,108.57,0,0,1-50.27,50.9c-21.68,10.51-47,13.77-70.47,8.27a100.8,100.8,0,0,1,6.32-197.59Z" transform="translate(-197.16 -236.89)"/></svg>