<svg id="Layer_1" data-name="Layer 1" xmlns="http://www.w3.org/2000/svg" viewBox="0 0 156.21 156"><defs><style>.cls-1{fill:#00a652;}.cls-2{fill:#f7941f;}</style></defs><path class="cls-1" d="M251.91,334.2c15.27-15,30.3-30.29,45.58-45.31,5.82,5.56,11.41,11.36,17.14,17,3.52-2.79,6.88-5.91,11.18-7.47,0,5.92-1.25,12.14,1.15,17.78,1.61,4.05,5,6.93,8,9.94,13.46,13.58,27.08,27,40.51,40.62-5.53,6.13-11.86,11.49-17.27,17.73,3.16,3.1,6,6.63,7.49,10.88-7.83-.66-16.95-1.52-23.08,4.51-15.18,14.89-30.1,30-45.21,45-5.86-5.59-11.78-11.16-17.14-17.23,14.13-14.58,28.6-28.84,42.89-43.26a23.62,23.62,0,0,1,22.2-6.54c4.09.72,7.59,3,11.2,4.92-13.86-14.53-28.48-28.33-42.52-42.69a23.73,23.73,0,0,1-5.68-21.23c.7-3.66,2.64-6.87,4.15-10.23-13.79,13.59-27.34,27.42-41.07,41.08a22.7,22.7,0,0,1-16,6.81c-11.48.4-22.19-7.59-26.41-18,7.74.67,16.78,1.62,22.88-4.28m-32.65,32.56c5.78-5.6,11.34-11.43,17.16-17,14.66,14.32,29.06,28.89,43.62,43.31a23.72,23.72,0,0,1,6,23.26c-2.29,8.66-9,15.64-17.11,19.14.28-7.73,1.62-16.79-4.36-22.88-11.9-12.13-24-24-35.95-36.14-3.1-3.26-6.59-6.15-9.36-9.7Z" transform="translate(-219.26 -288.89)"/><path class="cls-2" d="M291.79,342.22a25.69,25.69,0,0,1,19.87,4.22,25.37,25.37,0,0,1,9.56,27.11c-3.11,11.44-14.92,19.85-26.81,18.28-12.15-1-22.45-11.94-22.56-24.14-.66-11.88,8.26-23.24,19.94-25.47Z" transform="translate(-219.26 -288.89)"/></svg>