<svg id="Layer_1" data-name="Layer 1" xmlns="http://www.w3.org/2000/svg" viewBox="0 0 200.48 270.73"><defs><style>.cls-1{fill:#2c241a;}.cls-2{fill:#fff6b1;}.cls-3{fill:#e30612;}.cls-4{fill:#f7a70b;}.cls-5{fill:#fef481;}</style></defs><path class="cls-1" d="M292.87,293.9c2.69-1.95,3.75-5.15,5.12-8,.88,2.53,1.63,5.32,3.85,7.05,10.69,8.81,24.93,11.12,36.46,18.48a54.23,54.23,0,0,1,14.19,11.92c5.34,6.54,8.14,14.78,13.72,21.14,2.76,3.26,6.48,5.41,9.92,7.86-3.44,2.47-7.49,3.79-11.45,5.14,2.22,2,5.54,4.73,8.57,2.89.64-1.49.9-3.11,1.46-4.63,1.69-.66,3.12.56,4.5,1.34.33,1.63.68,3.26,1.07,4.89,4.25.71,5.06,5.1,5.52,8.68l-1.52,2.13a46.92,46.92,0,0,1,3.34,6.55c-1.13,2.67-2.12,5.46-3.95,7.75-.12,1.06-.23,2.12-.34,3.19,3.87,2.58,3.34,7.35,3.19,11.39,2.2-1.86,2.91-5.77,5.82-6.43,2.72,1.73,3.17,5.35,3.83,8.25.73,2.23-.84,4.15-1.69,6.08,1.1,1.87,2.95,3.56,2.91,5.89.61,2.55-2,3.83-3.52,5.29-.56,2-.48,4.71-2.88,5.42a14.19,14.19,0,0,0-6.79,5.68c3.18.5,3,3.62,3.75,6a36.47,36.47,0,0,0,3.1,3c1.91-.57,3.93-2.2,5.95-1.06a18.47,18.47,0,0,1-1.36,9.65c0,1.27,1.3,3.08-.23,3.91a41,41,0,0,1-4.23,1.89,8.46,8.46,0,0,1,1.13,9.46,28.25,28.25,0,0,1-4.47.78c-1.91,4.46-8.48,1.85-10.11,6.7a33.63,33.63,0,0,1,.35,7.09,64.56,64.56,0,0,1,6.64-1.36c2.36,3-.08,6.35-1,9.42-1.1,1.79-2.53,3.35-3.69,5.11l-3.67-1.07a35.46,35.46,0,0,0,1.14,6.37,14.37,14.37,0,0,1-2.68,3.1c-.5,1.73-1,4.27-3.4,3.76-5.82-.75-11.21,2.25-15.57,5.8,1.18,1.13,2.69,2.26,2.64,4.09.63,2.35-1.89,3.57-3.12,5.13.39,4.16-4.76,5.66-3.94,10,2.72.48,5.46.89,8.16,1.46a28.17,28.17,0,0,1-1.06,3.46c-1.12.31-2.26.56-3.41.76a20.59,20.59,0,0,1-3.79,3c-1.15-.18-2.27-.51-3.39-.8-.69,3-3.27,4.72-5.62,6.32-6.24-.67-12.95-2.5-18.91.45l1.86.83c-.42.81-1.24,2.42-1.66,3.22,7-1.09,14.72-2.31,21.26,1-3.63.63-7.32.43-11,.85,1.49,2.27,3.26,4.34,5,6.46a41.89,41.89,0,0,0-13.57-1.06c-4,.09-8.76.93-12.12-1.86-1.13-1.42,1.28-2.32,1.84-3.4-4.36-.35-9.41-.29-12.21-4.31a24.25,24.25,0,0,0-7.7.11L293,544.65c-2.67,4.31-8,4.25-12.45,4.74,1,1,1.91,2,2.84,3.06-7.35,5.32-16.88,3.46-25.21,2.28l4.24-3.61c-3.4-1.9-7.35-2.64-10.52-4.94,6.85-.16,13.69,1.72,20.54.41-.54-1.27-1.07-2.55-1.59-3.83a10.83,10.83,0,0,1,5.31-1,34,34,0,0,0,15.61-1.92c-8.43-.79-16.85,1.73-25.33,1-10.2-.23-19-5.92-27-11.67-2-1.84-4.79-1.38-7.29-1.32,3-4.15,7.83-6.25,12.82-6.64-.69-2-1.3-4.1-1.88-6.17a73.66,73.66,0,0,1-22.81-14.6c-4-3.6-4.77-9.09-7.12-13.64-.89-2.12-3.33-2.53-5.16-3.48,4.06-2.46,9-2.06,13.27-.38.5-3,1.11-6.06,1.62-9.09a52.9,52.9,0,0,1-17.49-17.37c-2.46-3.89-2.73-8.59-3.72-13-.46-2.72-2.85-4.26-4.64-6.07A19.06,19.06,0,0,1,210,440c.83-2.45,1.77-4.87,2.65-7.29-5.33-4.83-9.59-11.13-10.81-18.31-1.67-7.23,1.23-14.5-.11-21.76a105.84,105.84,0,0,1,7.88,10.72,35.9,35.9,0,0,1,5.93-8.23c-2.36-3.09-4.34-6.63-4.66-10.58-1.15-10.24,3.64-19.74,7.47-28.9,3.6,1.84,6.57,5.25,5.94,9.59a47.84,47.84,0,0,1,10.45-8.78c-4.05-2.12-8.53-4-11.21-7.9,4.8-1.82,8.21-5.87,11.1-9.94C239,332,242.84,325,248.35,319.3a56.35,56.35,0,0,1,21.51-14.44c7.91-3.06,16.22-5.69,23-11m5-2.36c-7.13,8.78-18.69,11.53-28.68,15.72a54.78,54.78,0,0,0-20.92,15.05c-7.76,8.69-11.78,20.5-21.6,27.36,3.17,2.1,6.59,3.77,9.9,5.63,4.75,2.53,7.64,7.35,12.24,10.08,6.8-10.46,15.57-20,26.73-25.81a47.13,47.13,0,0,1,38.75-3c14.09,5.12,25,16.35,32.92,28.79a30.54,30.54,0,0,0,8-5c4.9-4.36,11.6-5.39,17.46-7.91-2.76-2-5.65-3.9-7.87-6.52-5.76-6.56-8.58-15.07-14.16-21.75-5.35-6.5-12.66-11-20.09-14.76-11.18-5.29-24.17-8.34-32.71-17.87m-11.95,45.89c-14.48,4.24-26.2,15-34.34,27.4-15,23-19.81,51.76-15.5,78.64,3.18,20.09,11.4,39.92,25.87,54.5q36.3,0,72.57-1c11.25-11.58,18.52-26.53,22.61-42,6.71-25.77,4.87-53.89-6.13-78.22-6.41-13.92-16.11-26.86-29.53-34.67a45.26,45.26,0,0,0-35.55-4.62m-53.23,35.4a20.63,20.63,0,0,1,11.46-3.66,98.38,98.38,0,0,1-8.51,16.67c-3.12,4.88-8.43,7.63-13.55,10q.27,3.29.46,6.57c2.62-1.95,5.29-3.82,8-5.71-1.15,5.25,1.17,10.62-.37,15.82-2.61,8.68-7.85,16.56-8.83,25.71a68.68,68.68,0,0,0,7.29-10.54c1.18,3.94-.72,8.1.81,12,1.58,4.39,3.05,9,2.26,13.74-.37,6.28-3.25,12-4,18.21,1,2.81,3.54,4.82,5.07,7.35,1.27-3.87,3.58-7.3,4.68-11.25,2,3.31,3.11,7.06,4.23,10.75,1.26,4.25,4,7.86,5.14,12.17a36.44,36.44,0,0,1,.43,17.88c2.35,1,4.66,2.12,7,3.29-1-4.36-.09-8.87-1.12-13.24,2.66,1.89,4,4.91,5.87,7.46,2.87,3.23,7.38,4.57,10,8.13,3.33,5,4.35,11,6.47,16.48.55,2.1,3.1,2.41,4.57,3.63-3.76-2.87-1.92-7.72-2.13-11.67.16-3.94,5-2.53,7.57-2.57,4.27.63,8-2,12.05-2.54,3.78.24,7.1,3,11,2.31,3.23.1,7.1-1.27,9.88.92a12.55,12.55,0,0,1,.13,8.83,42.3,42.3,0,0,0-7.06,6.24c4.51-.44,7.42-3.64,9.56-7.26.3-2,.33-4.09,1.68-5.67,1.72-1.82,1.55-4.41,2.31-6.63,1.61-1.18,3.37-2.15,4.94-3.4,1.68-1.55,4.41-1.14,5.85-3,1.23-1,2.31-3,4.15-2.44,1.57.14,1.77,1.93,2.46,3a18,18,0,0,0,6.24-12.82c-.31-2.38-1.66-4.46-2.46-6.7,1.74-2.38,3.58-4.76,6.36-6-.59-2.17-.66-4.5,1.07-6.19,2.63-2.51,1.86-7.18,5.59-8.63a62.87,62.87,0,0,0,5.19,6.12,20.11,20.11,0,0,0,3.89-9.66c.54-4.86-3.67-8.41-4.45-12.95.6-2.9,1.44-6,4.52-7.09-1.11-1.52-2.26-3-3.37-4.55a33.78,33.78,0,0,1,3.66-2.73c.36-2-.68-5.11,2-5.68,1.74-.8,3.12,1.52,4.64,2.18-2.13-4.91-6.95-8.86-6-14.71-1.11-.85-2.22-1.71-3.27-2.63,1.32-2.13,1.24-4.48.84-6.84,2.62-3.75,1.16-8.33-.53-12.13,1.18-.46,2.28-1.64,3.63-1.39a41.64,41.64,0,0,1,3.64,3.87q1.62-2.25,3.22-4.52a28.84,28.84,0,0,0-4.27-4.82c-2.12-1.74-5.07-1.47-7.44-2.64a28.26,28.26,0,0,1-2.93-4.18c-3.31-2.08-7.54-5.58-5.45-9.93-1.63-3-3.58-6-4-9.37l-1.08-1.18-3.37,1.88c14,24,17.74,53.2,12.7,80.32-3.79,19.79-12.42,39.27-27.28,53.23-9.67,9.22-22.67,15.42-36.2,15.21-14.91,0-28.88-7.76-38.79-18.55-13.51-14.6-21.23-33.76-24.43-53.21-4.17-26.19,0-54.08,13.71-77-4.57-2.61-7.5-7.16-11.84-10.07-2.83,4.8-3,10.43-3.33,15.82m139-9.56c1.37,2.77,4.77,3.15,6.79,5.22,1,1.72-.3,3.7-.54,5.48,4.06,5,1.48,11.69,1.48,17.46l2.44-1.3c.14-1.21.29-2.41.45-3.62a60.87,60.87,0,0,0,3.79-7.08,46.31,46.31,0,0,1-2.79-5.87c.14-2.55,1.24-5.31-.17-7.7-1.34-1.59-3.62-2.35-4.38-4.41-.79-1.72-1.5-3.47-2.31-5.18-.78,2.84-2,5.58-4.76,7m-159.46,18.2c-.1,4.7,1.41,9.61,5.09,12.73.93-5.92.25-12,1.76-17.88.87-4.39,3.66-8.27,3.66-12.85,0-2.41-2.06-4.05-3.35-5.86-3.6,7.49-7,15.41-7.16,23.86m140.17-16.64c3.13,1.41,6.62,1.36,9.91,2.13a69.6,69.6,0,0,0-.46-8.66c-3.38,1.84-6.27,4.4-9.45,6.53m10.93-6.23a37.59,37.59,0,0,1,.25,9.42c1.2,1.13,2.38,2.29,3.55,3.46-.84,1-1.69,2-2.54,3,1,2.44,3.4,3.29,5.48,4.51a38.1,38.1,0,0,1,.7,4.12c2.55,2.65,5.43,5,7.37,8.2,0-4.64.69-9.27.29-13.92-3.22-1.95-1.9-5.26-.89-8.07-2-1.06-4.07-1.91-5.94-3.13-.77-1.13-1.2-2.45-1.95-3.6a58.34,58.34,0,0,1-6.32-4m-140,10.78c-3.4,5.95-3.7,13-4,19.65.85,1.24,1.67,2.51,2.48,3.78,2.59-3.46,5.4-6.82,7.23-10.77,3.47-7.11,1.7-15.32,4-22.75-3.57,3-7.45,5.9-9.7,10.09M354,367.24a80,80,0,0,0,4.58,8.63c-.49.95-1,1.9-1.45,2.85a22.34,22.34,0,0,0,6,5.79c1.33,2,2.53,4.68,5.33,4.78,3.5.5,6.08,3,8.66,5.17-.91-6.06-8.25-8.21-8.65-14.46a8.07,8.07,0,0,1-5.52-6.24c.55-.62,1.67-1.85,2.22-2.46A17.12,17.12,0,0,0,354,367.24m-120.59,7.39c-1.11,1.79-1.47,3.91-2.21,5.86-1.61,4.91-5,8.87-7.88,13.07a34.38,34.38,0,0,0,8-5.05c5-4.91,7.58-11.61,10.49-17.83-3,.83-6.38,1.4-8.41,3.95m147.27,18a45.38,45.38,0,0,1-5.62,9.49,39.65,39.65,0,0,1,3.52,3.58,18.37,18.37,0,0,1-3.92,3c.72,2.69,1.92,5.21,2.79,7.84a16.32,16.32,0,0,1-1.86,3.94c1.14,1.45,2.55,2.75,3.29,4.47.65,3.42.13,6.93.37,10.38a32.46,32.46,0,0,0,3.26-7.79c1-3.91,3.13-7.35,4.79-11-1.57-2.88-2.44-6.09-.24-8.91-3.31-3.43-1.89-8.12-2-12.33-.28-1.9-2.55-5-4.36-2.68m-170.33,13.9c-1.1,6.54,1.24,13,3.34,19.05,1.21,1.07,2.38,2.18,3.53,3.32-.3-12.3,6.3-24.27,2.57-36.56-3.44,4.48-8.39,8.33-9.44,14.19m176.11-2.93a35.25,35.25,0,0,1,2.1,3.75,39,39,0,0,1-1.33,4.22c.51,2.22,2.05,4.55.84,6.8-1.62,3.64-3.56,7.15-4.73,11,2.36-2.05,5.12-3.51,7.68-5.26,1-1.66,1.26-3.79,2.73-5.18.74-1.12,2.36-1.85,2.27-3.36-.69-2.18-2.14-4-2.95-6.12a32.87,32.87,0,0,1,1.9-4.3,50.77,50.77,0,0,0-2.53-8.71,67.33,67.33,0,0,1-6,7.18m-182.64-5.86c-.61,4.84-1.43,9.74-.8,14.62a27.7,27.7,0,0,0,10.54,18.67c-1-5.78-4-11-4.7-16.87-.49-3.13,0-6.32-.45-9.44-1-2.62-2.95-4.73-4.59-7m164.27,1.1a34.58,34.58,0,0,1,1.66,10.82c-.46.7-.91,1.41-1.36,2.12a10,10,0,0,1-.61,6.23l2.91,2c.18,2.31-.32,4.9,1.13,6.91a44,44,0,0,1,5.39,10.9,63.78,63.78,0,0,0,.4-10.43c0-2.78-2.48-4.59-3.54-7a38.24,38.24,0,0,1,1.77-4c-1.13-2.76-2.88-5.59-2.35-8.69a31.07,31.07,0,0,1,3.08-2.37,81.59,81.59,0,0,1-8.48-6.56m-146.16,8.55c-1.22,9-5.07,18.34-2.05,27.36,2.27-6.8,5.21-13.35,7.89-20,2.05-4.73,1.26-9.94.67-14.88-2.6,2.05-6.5,3.65-6.51,7.51m-10.61,39.06c1.78,8.49,6.9,15.84,12.28,22.47-.44-6.19.06-12.37.12-18.54-.17-8-4.67-14.84-8.5-21.55-1.12,5.92-5.29,11.38-3.9,17.62m12.22-6.1c.57,4,2,8,1.76,12.09-.31,6.13-.62,12.29.2,18.4,2.79-7.69,5.6-15.86,4.45-24.14-1.14-4.51-3.06-8.86-3-13.61-1.53,2.17-3.78,4.36-3.38,7.26m153.31-1c.23,1.28.39,2.57.5,3.88a58.56,58.56,0,0,0-5.77,4.9l2.63,3.47-3.61,1.83c.78,4.95,2.33,9.8,2.49,14.82-.67,2.89-2.94,5.12-4,7.88,5.2-2.38,7.43-8.22,10.08-12.92,1.5-1.88,4-2.7,5.39-4.67-.1-1.67-.46-3.31-.49-5,1.15-1,2.47-1.82,3.64-2.81,1.15-2.92,1.4-6.11,1.76-9.21-2.66-1.91-3.82-4.9-4.13-8.08-2.92,1.83-5.58,4.05-8.49,5.89M367,442.07c.76,1.52,3.11,3.1,1.94,5a44.61,44.61,0,0,0-4.07,6.42c1.61,3.59,3.93,6.95,4.63,10.89.5,5.12-2.09,9.78-4.76,13.94,3.2-2.51,5-6.32,6.64-9.93.29-5.35-2.14-10.42-2.27-15.74.84-.58,1.71-1.12,2.6-1.64-.6-1.07-1.19-2.14-1.77-3.22a44,44,0,0,1,6-5.55,12.8,12.8,0,0,0-4.71-7.77c-1.62,2.56-.65,6.51-4.25,7.62m-165.55-3.75c2.71,6.35,2.19,13.87,6.56,19.51,4.15,5.65,9.06,11.11,15.44,14.28-5.56-8.66-13-16.93-13.94-27.66.49-4.56-4.95-5-8.06-6.13m189.63,4.07c-.52,3.1-1.12,6.18-1.67,9.27-1.29.91-2.59,1.79-3.89,2.68.31,2.15,1.64,5.05-.82,6.43-2.77,1.88-5.33,4.09-6.43,7.38,2.45-.64,5.25-.75,7.16-2.62,1.62-1.7,3.95-2,6.15-2.41.55-3-.65-5.71-2-8.25,1.74-1.11,3.55-2.12,5.35-3.14l-1.21-2.09a23.45,23.45,0,0,0,2.18-8.92c-1.6.55-3.19,1.1-4.78,1.67M224.53,471.23c0,5.88-3.43,12-.57,17.65,3.65,7.44,9.92,13.1,15.92,18.64-1.56-5.4-2.17-11-3.11-16.49-1.62-7.85-7.08-14-12.24-19.8m10,9.12c1,3.7,3.21,7,3.81,10.81.84,5,1.49,10,2.62,14.9,1.65.52,3.32,1,5,1.46,1-7.29.82-15.07-2.79-21.67-2.51-4.51-3.9-9.5-5.37-14.41-1.39,2.81-3.76,5.58-3.26,8.91m119,5.14a44.58,44.58,0,0,0-5.83,5.58c.81,2.08,2.13,4.07,2.25,6.36-.16,3.11-1.33,6.05-2,9.06,4.35-3.81,3.23-10.15,6.77-14.39l-1.85-3.29c1.43-2.22,2.41-4.7,3.84-6.91a34.71,34.71,0,0,1,4.88-.67c.48-1.2,1.65-2.31,1.42-3.68-1.35-2.14-3.14-4-4.66-6-.87,5-5.56,8.59-4.82,13.95m15-7.77c-2.82.84-4.6,3.31-6.86,5a34.84,34.84,0,0,1-4.19.56,44.91,44.91,0,0,1-2.83,5.79c.72,1.07,1.42,2.15,2.14,3.23-4,3.3-2.66,9-5.84,12.78-2.7,4.1-6.81,7-9.42,11.19,4.41-2.74,7.34-7.23,11.72-10a54.08,54.08,0,0,0,9-7.5,15.42,15.42,0,0,1,.29-5c2.58-1.2,5.51-.34,8.26-.56.58-3.3.47-6.69,1.25-9.95.39-2.06,2.91-2.07,4.41-2.94.11-2.31.2-4.63.23-6.94-2.57,1.72-5.11,3.56-8.14,4.37m5,5.5c-.5,3.54-.33,7.24-1.62,10.63-2.28,1.77-5.47.59-8.15.83-.14,1.78,1.12,4.1-.57,5.43-5.11,5.51-12.2,8.7-17,14.57,2.89-1,6-1.95,8-4.37,4.55-4.85,11.25-8.24,18-7.19,1-2,2.19-3.93,3.27-5.9-.13-2.37-1.28-5.06.44-7.15a33.2,33.2,0,0,1,3.73.12,21.72,21.72,0,0,0,4.75-9.82l-1.17-.83c-3.49.49-6.58,2.31-9.77,3.68m-161.1-.41c4.23,5.41,4.49,13.15,10,17.65,6.1,5.21,12.89,9.87,20.48,12.62-2.61-3.74-6.37-6.39-9.52-9.61-4.88-4.89-9.73-10.21-11.89-16.92-.85-4-6-3.09-9.07-3.74M263,499.07c1.62,1.37,3.26,2.72,4.89,4.08,19.51.25,39-.5,58.5-.54,3.11.06,4.92-2.89,7.15-4.57-23.51.39-47,1.11-70.54,1m6.31,5.23c2.57,1.36,4.89,4,8.05,3.71,14.7-.07,29.42-.11,44.1-.93a29.06,29.06,0,0,0,5.55-3.52c-19.23.28-38.47.82-57.7.74M255,503.64c.11,2.7-.38,5.69,1.15,8.11,1.18,1.78,3,3,4.5,4.48,4.73,4.17,7.75,9.93,12.74,13.84-1.31-4.66-2.62-9.38-4.88-13.68-1.67-3.38-5.27-4.95-8.13-7.11-2.16-1.5-3.71-3.65-5.38-5.64m-12.77,4.6c1.52,3.71,2.6,7.57,3.79,11.4,1.19,4.19,5.17,6.66,8.83,8.51,7.47,3.58,15.67,5.23,23.71,7-3.09-1.81-6.24-3.61-8.72-6.23-4.89-5.05-8.54-11.48-14.77-15.08a84.67,84.67,0,0,0-12.84-5.62m35.48.94a45,45,0,0,0,41.53-.83c-13.84.3-27.69.8-41.53.83m54,4.17q-2.74,2-5.59,3.87a13.68,13.68,0,0,1-2.9,7.51,26,26,0,0,1-3.62,8.72c2-1.22,4.18-2.22,5.79-4a31.72,31.72,0,0,0,2.57-5.62l3.65-.54c.63-1.75.66-4.06,2.46-5.1,1.42-1,3.17-.21,4.73-.19.53-1.11,1.08-2.21,1.63-3.3-.21-2.15-.31-4.3-.59-6.44-2.6,1.9-4.7,4.65-8.13,5m9.8-.39c1.36.33,1.84-.2,1.45-1.6-1.36-.34-1.84.2-1.45,1.6m-.82,4.64-1.32,3.3-3.58-2.17c-1.91,1.55-2.47,3.9-3,6.19-1.21.07-2.41.13-3.6.21-1,2.26-1.67,4.89-3.77,6.45-4,3.48-9.51,4.08-14.4,5.67,4.29-.14,8.67-.08,12.85-1.17,4.34-1.6,8.36-4.08,12.95-5l2,3.45c3.34-.46,3.05-3.95,4.48-6.2,2.09,0,4.3,1.7,6.29.61.74-2.51,1.53-5,3.58-6.81.14-2.82,2.05-4.81,4-6.61-.22-.83-.65-2.48-.86-3.31-5.12,2-10.08,4.89-15.67,5.39m-52.38,3.76c-3,.17-6-.07-9-.09-.1,3.33-.17,6.65-.19,10a55.21,55.21,0,0,1,10.13,5.92l2.61-2.89c-3.13-3.41-6.29-6.79-9.66-9.95.27-.27.81-.8,1.09-1.06,1.81,1.81,3.64,3.62,5.44,5.44,2.42-1.19,4.89-2.62,7.67-2.61,3.58,0,7,1.23,10.33,2.39,2.58-1.29,5-2.85,7.64-4.06-1.2,2.58-3.78,3.82-6.16,5.08-1.92.92-2.71,3-3.86,4.69l3.36,2.52c3.24-2.8,6.3-5.79,9.6-8.51a31.57,31.57,0,0,0,.06-6.94,60,60,0,0,0-10,0c-3.52.26-6.55-1.95-9.94-2.41-3.09.59-5.88,2.32-9.05,2.5m-52.4,4.14c6.87,3.54,12.66,9,20,11.59,10.13,4,21.15,1.68,31.68,1.3-7.72-1.73-15.62-2.67-23.19-5-7-2.11-14.37-4.79-19.15-10.67a35.41,35.41,0,0,0-9.37,2.81m53.83,4.29c.91,1.06,1.84,2.11,2.78,3.16,3.6-.23,7.31-.82,10.86.11.65-1.19,1.29-2.37,1.94-3.54-5-1.95-10.82-2.9-15.58.27m54.18.3c-.38,1.9-.29,4.62-2.68,5.18-2.42,1.3-4.37-.77-5.85-2.4-4.21,1.52-8.08,3.9-12.41,5.07-4.56.77-9.23.55-13.78,1.36a137.25,137.25,0,0,1,16.15,2.25c5.49-.54,11.1-.85,16.45.88a21.26,21.26,0,0,0,5.61-6.64c1.27.19,2.51.55,3.76.86a18.39,18.39,0,0,1,7.29-4.2c-2.65-.55-5.31-1.06-8-1.61a24,24,0,0,1-6.58-.75M294.83,534c-1.19.88-2.36,1.81-3.52,2.74.76,2.73,1.62,5.52,3.55,7.69a53.47,53.47,0,0,1,7.38-.17c1.94-1.87,2.62-4.59,3.65-7-1.72-1.27-3.46-2.49-5.26-3.64a9.82,9.82,0,0,1-5.8.36m9.84,7.39c5.61,2.43,11.81,2.17,17.78,2.23,0-.31.1-.94.13-1.25-4.3-1-8.72-1-13.08-1.5a9,9,0,0,0-4.83.52M272,543.15a18.81,18.81,0,0,0,5.36,6.2c3.4-2,7.49-1.6,11.15-2.74,1.83-.87,4-2.73,3-5-6.37,1.91-13,1.52-19.53,1.53m31.91.15c.74,1.67,1.4,3.72,3.31,4.4,3.76,1.17,8.09.32,11.41,2.81a26.66,26.66,0,0,0,5.71-5.36c-6.84-.35-13.68-.46-20.43-1.85m-45.82,4.29a32.66,32.66,0,0,1,5.05,3.12c-.44,1.09-.93,2.15-1.46,3.21,6.5.34,13.45,1.63,19.46-1.66a41.52,41.52,0,0,1-7.82-4.68c-5,1.13-10.18.74-15.23,0m64.27,1.75a42.47,42.47,0,0,1-8.11,3.86c6.88,2.17,14.08-.23,21.07,1.14-1.43-2-2.8-4.25-.4-6.12-4.19.36-8.35,1-12.56,1.12Z" transform="translate(-197 -285.89)"/><path class="cls-2" d="M297.84,291.54c8.54,9.53,21.53,12.58,32.71,17.87,7.43,3.75,14.74,8.26,20.09,14.76,5.58,6.68,8.4,15.19,14.16,21.75,2.22,2.62,5.11,4.51,7.87,6.52-5.86,2.52-12.56,3.55-17.46,7.91a30.54,30.54,0,0,1-8,5c-7.89-12.44-18.83-23.67-32.92-28.79a47.13,47.13,0,0,0-38.75,3c-11.16,5.84-19.93,15.35-26.73,25.81-4.6-2.73-7.49-7.55-12.24-10.08-3.31-1.86-6.73-3.53-9.9-5.63,9.82-6.86,13.84-18.67,21.6-27.36a54.78,54.78,0,0,1,20.92-15.05c10-4.19,21.55-6.94,28.68-15.72m-1.34,6.59c.1.51.31,1.55.41,2.07,1.27-.57,2.54-1.15,3.8-1.74l-4.21-.33M296.3,317c1.11.95,2.34,1.76,3.45,2.71-1.32,3.8-5.7,6.53-9.66,5.15-3.49-3.23-.58-8.25-.09-12.11a20.83,20.83,0,0,0-2.11,13.55c.78,3.16,4.92,3.72,7.35,2.17,3.78-2.49,5.46-7.38,4.8-11.75-1-1.67-2.34-3.14-2.76-5.09,3.75.31,4.4-3.11,4.42-6l-2.81,1.9c-.32-2.11-.56-4.22-.84-6.34-.48,5.29-1,10.57-1.75,15.82M280,307.17c-.48,4.93,1.2,9.64,2.71,14.24.18-4.9-1.35-9.6-2.71-14.24m-14.34,8c.27,4.76,2.21,9.17,4.33,13.36-.45-4.72-2.37-9.1-4.33-13.36m65.78,3.07,1.62,2a4.11,4.11,0,0,0,2.79-4.56q-2.24,1.23-4.41,2.57m-56.2,5.06c-.12,3-1.7,5.5-2.8,8.16,1.23-1.2,3.39-2,3.41-4,.22-3.59,1.53-7,1.65-10.6a13.56,13.56,0,0,0-2.26,6.43m27.11,1c1.66,2.52,4.54,3.75,7.17,5,5.8,2.54,12.66,4.14,18.59,1-1.28,2.52-3.82,4.86-3.45,7.94,2,1.62,3.75-.83,5.51-1.61l-2.12-1.29c-.3-4.67,4.21-8,6.77-11.46,5.53.39,10.93,1.67,16.39,2.51-3.62-2.88-8.52-2.74-12.89-3.22-4.87-.86-7.29,4.39-10.72,6.81-8.47,0-18.21-2.4-23.57-9.43a27.47,27.47,0,0,0-1.68,3.76m-42.59-2.82c.68,3.81,3.75,6.55,4.72,10.23.07,4.3-3.84,9-8.41,8.21-2.58-1.89-2.93-5.33-4.14-8.05.7,3.33,1.32,6.86,3.44,9.64,1.07,1.48,2.95,2.69,4.84,2.13,3.48-.95,5.62-4.66,5.53-8.14a21.88,21.88,0,0,0-6-14m21.69,7.56-3.58-.38q-.19,2.06-.36,4.11l3,.23c.14-.73.42-2.19.57-2.92l3.2.73c.19-.86.58-2.58.78-3.44l-2.8-1.43c-.21.77-.62,2.33-.82,3.1M335,340.92a16.39,16.39,0,0,0,5-1.43l-2.31-2.95c1.76-3.34,4.07-6.33,6-9.54-3.94,3.74-8.36,8.22-8.75,13.92m-78.58-11.11c0,1.31,0,2.63.07,3.94l3.32.1c0-1.34,0-2.68-.09-4q-1.65-.07-3.3,0m76.31,16.69a33.28,33.28,0,0,0,3.26-1.66,28.17,28.17,0,0,0-.23-3.31c-1.85,1.19-4.65,2.23-3,5Z" transform="translate(-197 -285.89)"/><path class="cls-3" d="M296.5,298.13l4.21.33c-1.26.59-2.53,1.17-3.8,1.74-.1-.52-.31-1.56-.41-2.07M296.3,317c.74-5.25,1.27-10.53,1.75-15.82.28,2.12.52,4.23.84,6.34l2.81-1.9c0,2.9-.67,6.32-4.42,6,.42,1.95,1.77,3.42,2.76,5.09.66,4.37-1,9.26-4.8,11.75-2.43,1.55-6.57,1-7.35-2.17A20.83,20.83,0,0,1,290,312.73c-.49,3.86-3.4,8.88.09,12.11,4,1.38,8.34-1.35,9.66-5.15-1.11-.95-2.34-1.76-3.45-2.71M280,307.17c1.36,4.64,2.89,9.34,2.71,14.24-1.51-4.6-3.19-9.31-2.71-14.24m-14.34,8c2,4.26,3.88,8.64,4.33,13.36-2.12-4.19-4.06-8.6-4.33-13.36m65.78,3.07q2.18-1.34,4.41-2.57a4.11,4.11,0,0,1-2.79,4.56l-1.62-2m-56.2,5.06a13.56,13.56,0,0,1,2.26-6.43c-.12,3.6-1.43,7-1.65,10.6,0,2-2.18,2.79-3.41,4,1.1-2.66,2.68-5.2,2.8-8.16m27.11,1a27.47,27.47,0,0,1,1.68-3.76c5.36,7,15.1,9.43,23.57,9.43,3.43-2.42,5.85-7.67,10.72-6.81,4.37.48,9.27.34,12.89,3.22-5.46-.84-10.86-2.12-16.39-2.51-2.56,3.49-7.07,6.79-6.77,11.46l2.12,1.29c-1.76.78-3.55,3.23-5.51,1.61-.37-3.08,2.17-5.42,3.45-7.94-5.93,3.14-12.79,1.54-18.59-1-2.63-1.24-5.51-2.47-7.17-5m-42.59-2.82a21.88,21.88,0,0,1,6,14c.09,3.48-2.05,7.19-5.53,8.14-1.89.56-3.77-.65-4.84-2.13-2.12-2.78-2.74-6.31-3.44-9.64,1.21,2.72,1.56,6.16,4.14,8.05,4.57.83,8.48-3.91,8.41-8.21-1-3.68-4-6.42-4.72-10.23m21.69,7.56c.2-.77.61-2.33.82-3.1l2.8,1.43c-.2.86-.59,2.58-.78,3.44l-3.2-.73c-.15.73-.43,2.19-.57,2.92l-3-.23q.17-2.05.36-4.11l3.58.38M335,340.92c.39-5.7,4.81-10.18,8.75-13.92-2,3.21-4.28,6.2-6,9.54l2.31,2.95a16.39,16.39,0,0,1-5,1.43m-78.58-11.11q1.65,0,3.3,0c0,1.33.07,2.67.09,4l-3.32-.1c0-1.31-.11-2.63-.07-3.94m76.31,16.69c-1.62-2.74,1.18-3.78,3-5a28.17,28.17,0,0,1,.23,3.31,33.28,33.28,0,0,1-3.26,1.66m-46.47,32.95c1.29,2.62,2.47,6.46,6,6.54,2.58.51,4.21-1.87,5.86-3.4,1.42,1.59,2.74,3.91,5.23,3.54,3.19-.18,4.2-3.59,5.69-5.82,1,3.08.5,7.44-2.89,8.8-2.73,1.38-5.72.1-8.37-.82-4,1.78-8.91,1.85-11.86-1.8a69,69,0,0,1,.3-7m6.33,14a59.63,59.63,0,0,1,5.4-4.63c1.59,1.65,3.84,2.83,5,4.85.18,16.17-.65,32.36-.48,48.54,14.84-12,17.44-35.64,6.62-51.1a35.27,35.27,0,0,1,12,16.63,34.46,34.46,0,0,1-3.32,29.17c-2.86,5-7.1,8.91-11.47,12.52,5,2.05,10.42,2.53,15.79,2.6-6.48,3.77-14.2,2.36-21.32,2.62-.92,1.65-1.84,3.29-2.75,4.94a35.1,35.1,0,0,0-3.79-4.85c-6.83-.76-15.07,1.62-20.59-3.67,5.23.36,10.72.76,15.61-1.55-6.06-5.8-12.19-12-14.73-20.29-5.1-13.45,0-29.88,12-37.91-11.55,15-9,39.33,6.66,50.61.07-16.16-.81-32.33-.58-48.48M261.33,408.3c4.5-8.61,12.82-15,21.95-18-7.09,7-14.53,14.67-16.58,24.84-2.73,11.25,1.7,22.35,5.58,32.73-12.13-8.53-17.76-26-10.95-39.53m52-17.75c9,3.34,17.12,10,21.24,18.82,6.39,13.6.22,31.07-12.3,38.85,2.65-6.63,5.9-13.14,6.81-20.31a34.41,34.41,0,0,0-5.34-24.85c-2.81-4.69-6.95-8.33-10.41-12.51Z" transform="translate(-197 -285.89)"/><path class="cls-4" d="M371.64,363.27c2.77-1.42,4-4.16,4.76-7,.81,1.71,1.52,3.46,2.31,5.18.76,2.06,3,2.82,4.38,4.41,1.41,2.39.31,5.15.17,7.7a46.31,46.31,0,0,0,2.79,5.87,60.87,60.87,0,0,1-3.79,7.08c-.16,1.21-.31,2.41-.45,3.62l-2.44,1.3c0-5.77,2.58-12.5-1.48-17.46.24-1.78,1.58-3.76.54-5.48-2-2.07-5.42-2.45-6.79-5.22m-159.46,18.2c.12-8.45,3.56-16.37,7.16-23.86,1.29,1.81,3.34,3.45,3.35,5.86,0,4.58-2.79,8.46-3.66,12.85-1.51,5.85-.83,12-1.76,17.88-3.68-3.12-5.19-8-5.09-12.73M354,367.24a17.12,17.12,0,0,1,11.17,4.06c-.55.61-1.67,1.84-2.22,2.46a8.07,8.07,0,0,0,5.52,6.24c.4,6.25,7.74,8.4,8.65,14.46-2.58-2.17-5.16-4.67-8.66-5.17-2.8-.1-4-2.75-5.33-4.78a22.34,22.34,0,0,1-6-5.79c.48-1,1-1.9,1.45-2.85a80,80,0,0,1-4.58-8.63m-120.59,7.39c2-2.55,5.45-3.12,8.41-3.95-2.91,6.22-5.52,12.92-10.49,17.83a34.38,34.38,0,0,1-8,5.05c2.85-4.2,6.27-8.16,7.88-13.07.74-1.95,1.1-4.07,2.21-5.86m153.05,29a67.33,67.33,0,0,0,6-7.18,50.77,50.77,0,0,1,2.53,8.71,32.87,32.87,0,0,0-1.9,4.3c.81,2.12,2.26,3.94,2.95,6.12.09,1.51-1.53,2.24-2.27,3.36-1.47,1.39-1.7,3.52-2.73,5.18-2.56,1.75-5.32,3.21-7.68,5.26,1.17-3.83,3.11-7.34,4.73-11,1.21-2.25-.33-4.58-.84-6.8a39,39,0,0,0,1.33-4.22,35.25,35.25,0,0,0-2.1-3.75m-182.64-5.86c1.64,2.25,3.57,4.36,4.59,7,.44,3.12,0,6.31.45,9.44.69,5.85,3.69,11.09,4.7,16.87A27.7,27.7,0,0,1,203,412.4c-.63-4.88.19-9.78.8-14.62m164.27,1.1a81.59,81.59,0,0,0,8.48,6.56,31.07,31.07,0,0,0-3.08,2.37c-.53,3.1,1.22,5.93,2.35,8.69a38.24,38.24,0,0,0-1.77,4c1.06,2.38,3.52,4.19,3.54,7a63.78,63.78,0,0,1-.4,10.43,44,44,0,0,0-5.39-10.9c-1.45-2-.95-4.6-1.13-6.91l-2.91-2a10,10,0,0,0,.61-6.23c.45-.71.9-1.42,1.36-2.12a34.58,34.58,0,0,0-1.66-10.82m-146.16,8.55c0-3.86,3.91-5.46,6.51-7.51.59,4.94,1.38,10.15-.67,14.88-2.68,6.64-5.62,13.19-7.89,20-3-9,.83-18.35,2.05-27.36m1.61,33c-.4-2.9,1.85-5.09,3.38-7.26,0,4.75,1.89,9.1,3,13.61,1.15,8.28-1.66,16.45-4.45,24.14-.82-6.11-.51-12.27-.2-18.4.29-4.13-1.19-8.06-1.76-12.09M367,442.07c3.6-1.11,2.63-5.06,4.25-7.62a12.8,12.8,0,0,1,4.71,7.77,44,44,0,0,0-6,5.55c.58,1.08,1.17,2.15,1.77,3.22-.89.52-1.76,1.06-2.6,1.64.13,5.32,2.56,10.39,2.27,15.74-1.65,3.61-3.44,7.42-6.64,9.93,2.67-4.16,5.26-8.82,4.76-13.94-.7-3.94-3-7.3-4.63-10.89a44.61,44.61,0,0,1,4.07-6.42c1.17-1.88-1.18-3.46-1.94-5m-165.55-3.75c3.11,1.16,8.55,1.57,8.06,6.13.93,10.73,8.38,19,13.94,27.66-6.38-3.17-11.29-8.63-15.44-14.28-4.37-5.64-3.85-13.16-6.56-19.51m189.63,4.07c1.59-.57,3.18-1.12,4.78-1.67a23.45,23.45,0,0,1-2.18,8.92l1.21,2.09c-1.8,1-3.61,2-5.35,3.14,1.39,2.54,2.59,5.26,2,8.25-2.2.4-4.53.71-6.15,2.41-1.91,1.87-4.71,2-7.16,2.62,1.1-3.29,3.66-5.5,6.43-7.38,2.46-1.38,1.13-4.28.82-6.43,1.3-.89,2.6-1.77,3.89-2.68.55-3.09,1.15-6.17,1.67-9.27m-156.54,38c-.5-3.33,1.87-6.1,3.26-8.91,1.47,4.91,2.86,9.9,5.37,14.41,3.61,6.6,3.8,14.38,2.79,21.67-1.67-.47-3.34-.94-5-1.46-1.13-4.92-1.78-9.93-2.62-14.9-.6-3.83-2.84-7.11-3.81-10.81m119,5.14c-.74-5.36,3.95-8.93,4.82-13.95,1.52,2,3.31,3.87,4.66,6,.23,1.37-.94,2.48-1.42,3.68a34.71,34.71,0,0,0-4.88.67c-1.43,2.21-2.41,4.69-3.84,6.91l1.85,3.29c-3.54,4.24-2.42,10.58-6.77,14.39.67-3,1.84-5.95,2-9.06-.12-2.29-1.44-4.28-2.25-6.36a44.58,44.58,0,0,1,5.83-5.58m19.93-2.27c3.19-1.37,6.28-3.19,9.77-3.68l1.17.83a21.72,21.72,0,0,1-4.75,9.82,33.2,33.2,0,0,0-3.73-.12c-1.72,2.09-.57,4.78-.44,7.15-1.08,2-2.29,3.87-3.27,5.9-6.78-1.05-13.48,2.34-18,7.19-2.06,2.42-5.14,3.37-8,4.37,4.77-5.87,11.86-9.06,17-14.57,1.69-1.33.43-3.65.57-5.43,2.68-.24,5.87.94,8.15-.83,1.29-3.39,1.12-7.09,1.62-10.63m-161.1-.41c3.05.65,8.22-.26,9.07,3.74,2.16,6.71,7,12,11.89,16.92,3.15,3.22,6.91,5.87,9.52,9.61-7.59-2.75-14.38-7.41-20.48-12.62-5.51-4.5-5.77-12.24-10-17.65M255,503.64c1.67,2,3.22,4.14,5.38,5.64,2.86,2.16,6.46,3.73,8.13,7.11,2.26,4.3,3.57,9,4.88,13.68-5-3.91-8-9.67-12.74-13.84-1.53-1.45-3.32-2.7-4.5-4.48-1.53-2.42-1-5.41-1.15-8.11m76.74,9.71c3.43-.39,5.53-3.14,8.13-5,.28,2.14.38,4.29.59,6.44-.55,1.09-1.1,2.19-1.63,3.3-1.56,0-3.31-.82-4.73.19-1.8,1-1.83,3.35-2.46,5.1l-3.65.54a31.72,31.72,0,0,1-2.57,5.62c-1.61,1.73-3.81,2.73-5.79,4a26,26,0,0,0,3.62-8.72,13.68,13.68,0,0,0,2.9-7.51q2.85-1.85,5.59-3.87M235.9,525.5a35.41,35.41,0,0,1,9.37-2.81c4.78,5.88,12.12,8.56,19.15,10.67,7.57,2.36,15.47,3.3,23.19,5-10.53.38-21.55,2.73-31.68-1.3-7.37-2.59-13.16-8.05-20-11.59m108,4.59a24,24,0,0,0,6.58.75c2.65.55,5.31,1.06,8,1.61a18.39,18.39,0,0,0-7.29,4.2c-1.25-.31-2.49-.67-3.76-.86a21.26,21.26,0,0,1-5.61,6.64c-5.35-1.73-11-1.42-16.45-.88a137.25,137.25,0,0,0-16.15-2.25c4.55-.81,9.22-.59,13.78-1.36,4.33-1.17,8.2-3.55,12.41-5.07,1.48,1.63,3.43,3.7,5.85,2.4,2.39-.56,2.3-3.28,2.68-5.18Z" transform="translate(-197 -285.89)"/><path class="cls-5" d="M363.28,358.6a58.34,58.34,0,0,0,6.32,4c.75,1.15,1.18,2.47,1.95,3.6,1.87,1.22,4,2.07,5.94,3.13-1,2.81-2.33,6.12.89,8.07.4,4.65-.31,9.28-.29,13.92-1.94-3.17-4.82-5.55-7.37-8.2A38.1,38.1,0,0,0,370,379c-2.08-1.22-4.52-2.07-5.48-4.51.85-1,1.7-2,2.54-3-1.17-1.17-2.35-2.33-3.55-3.46a37.59,37.59,0,0,0-.25-9.42m-140,10.78c2.25-4.19,6.13-7.1,9.7-10.09-2.28,7.43-.51,15.64-4,22.75-1.83,3.95-4.64,7.31-7.23,10.77-.81-1.27-1.63-2.54-2.48-3.78.29-6.67.59-13.7,4-19.65m157.44,23.29c1.81-2.29,4.08.78,4.36,2.68.13,4.21-1.29,8.9,2,12.33-2.2,2.82-1.33,6,.24,8.91-1.66,3.62-3.83,7.06-4.79,11a32.46,32.46,0,0,1-3.26,7.79c-.24-3.45.28-7-.37-10.38-.74-1.72-2.15-3-3.29-4.47a16.32,16.32,0,0,0,1.86-3.94c-.87-2.63-2.07-5.15-2.79-7.84a18.37,18.37,0,0,0,3.92-3,39.65,39.65,0,0,0-3.52-3.58,45.38,45.38,0,0,0,5.62-9.49m-170.33,13.9c1-5.86,6-9.71,9.44-14.19,3.73,12.29-2.87,24.26-2.57,36.56-1.15-1.14-2.32-2.25-3.53-3.32-2.1-6.09-4.44-12.51-3.34-19.05m1,39.92c-1.39-6.24,2.78-11.7,3.9-17.62,3.83,6.71,8.33,13.54,8.5,21.55-.06,6.17-.56,12.35-.12,18.54-5.38-6.63-10.5-14-12.28-22.47m165.53-7.09c2.91-1.84,5.57-4.06,8.49-5.89.31,3.18,1.47,6.17,4.13,8.08-.36,3.1-.61,6.29-1.76,9.21-1.17,1-2.49,1.8-3.64,2.81,0,1.67.39,3.31.49,5-1.38,2-3.89,2.79-5.39,4.67-2.65,4.7-4.88,10.54-10.08,12.92,1.06-2.76,3.33-5,4-7.88-.16-5-1.71-9.87-2.49-14.82l3.61-1.83-2.63-3.47a58.56,58.56,0,0,1,5.77-4.9c-.11-1.31-.27-2.6-.5-3.88M224.53,471.23c5.16,5.8,10.62,11.95,12.24,19.8.94,5.51,1.55,11.09,3.11,16.49-6-5.54-12.27-11.2-15.92-18.64-2.86-5.66.56-11.77.57-17.65m144,6.49c3-.81,5.57-2.65,8.14-4.37,0,2.31-.12,4.63-.23,6.94-1.5.87-4,.88-4.41,2.94-.78,3.26-.67,6.65-1.25,9.95-2.75.22-5.68-.64-8.26.56a15.42,15.42,0,0,0-.29,5,54.08,54.08,0,0,1-9,7.5c-4.38,2.78-7.31,7.27-11.72,10,2.61-4.17,6.72-7.09,9.42-11.19,3.18-3.77,1.85-9.48,5.84-12.78-.72-1.08-1.42-2.16-2.14-3.23a44.91,44.91,0,0,0,2.83-5.79,34.84,34.84,0,0,0,4.19-.56c2.26-1.7,4-4.17,6.86-5M242.19,508.24A84.67,84.67,0,0,1,255,513.86c6.23,3.6,9.88,10,14.77,15.08,2.48,2.62,5.63,4.42,8.72,6.23-8-1.79-16.24-3.44-23.71-7-3.66-1.85-7.64-4.32-8.83-8.51-1.19-3.83-2.27-7.69-3.79-11.4M341.5,513c-.39-1.4.09-1.94,1.45-1.6.39,1.4-.09,1.93-1.45,1.6m-.82,4.64c5.59-.5,10.55-3.34,15.67-5.39.21.83.64,2.48.86,3.31-2,1.8-3.88,3.79-4,6.61-2.05,1.78-2.84,4.3-3.58,6.81-2,1.09-4.2-.57-6.29-.61-1.43,2.25-1.14,5.74-4.48,6.2l-2-3.45c-4.59.92-8.61,3.4-12.95,5-4.18,1.09-8.56,1-12.85,1.17,4.89-1.59,10.36-2.19,14.4-5.67,2.1-1.56,2.74-4.19,3.77-6.45,1.19-.08,2.39-.14,3.6-.21.51-2.29,1.07-4.64,3-6.19l3.58,2.17,1.32-3.3m-52.38,3.76c3.17-.18,6-1.91,9.05-2.5,3.39.46,6.42,2.67,9.94,2.41a60,60,0,0,1,10,0,31.57,31.57,0,0,1-.06,6.94c-3.3,2.72-6.36,5.71-9.6,8.51l-3.36-2.52c1.15-1.65,1.94-3.77,3.86-4.69,2.38-1.26,5-2.5,6.16-5.08-2.62,1.21-5.06,2.77-7.64,4.06-3.33-1.16-6.75-2.41-10.33-2.39-2.78,0-5.25,1.42-7.67,2.61-1.8-1.82-3.63-3.63-5.44-5.44-.28.26-.82.79-1.09,1.06,3.37,3.16,6.53,6.54,9.66,9.95l-2.61,2.89a55.21,55.21,0,0,0-10.13-5.92c0-3.33.09-6.65.19-10,3,0,6,.26,9,.09M294.83,534a9.82,9.82,0,0,0,5.8-.36c1.8,1.15,3.54,2.37,5.26,3.64-1,2.39-1.71,5.11-3.65,7a53.47,53.47,0,0,0-7.38.17c-1.93-2.17-2.79-5-3.55-7.69,1.16-.93,2.33-1.86,3.52-2.74M272,543.15c6.54,0,13.16.38,19.53-1.53,1,2.26-1.19,4.12-3,5-3.66,1.14-7.75.71-11.15,2.74a18.81,18.81,0,0,1-5.36-6.2m31.91.15c6.75,1.39,13.59,1.5,20.43,1.85a26.66,26.66,0,0,1-5.71,5.36c-3.32-2.49-7.65-1.64-11.41-2.81-1.91-.68-2.57-2.73-3.31-4.4m-45.82,4.29c5.05.73,10.21,1.12,15.23,0a41.52,41.52,0,0,0,7.82,4.68c-6,3.29-13,2-19.46,1.66.53-1.06,1-2.12,1.46-3.21a32.66,32.66,0,0,0-5.05-3.12m64.27,1.75c4.21-.09,8.37-.76,12.56-1.12-2.4,1.87-1,4.11.4,6.12-7-1.37-14.19,1-21.07-1.14a42.47,42.47,0,0,0,8.11-3.86Z" transform="translate(-197 -285.89)"/></svg>