<svg id="Layer_1" data-name="Layer 1" xmlns="http://www.w3.org/2000/svg" viewBox="0 0 205.78 229.35"><defs><style>.cls-1{fill:#050007;}.cls-1,.cls-2{fill-rule:evenodd;}.cls-2{fill:#981210;}</style></defs><path class="cls-1" d="M121,94.41c-1.85-12.5-4-16.54-11.47-27.09,10-14.78,15.67-35.35,19.67-52.59,4.06,17.5,9.53,37.63,19.68,52.59-7.46,10.55-9.63,14.59-11.47,27.09-5-4.73-11.38-4.73-16.41,0Z" transform="translate(-26.35 0)"/><path class="cls-2" d="M117.27,218.58V158.42c-29.4-12-33.39-30.69-33.39-57.77,11.85,4.82,16.18,10.07,21.61,18.84,1.46-8,3.44-13.93,7.83-20.44,14.16,14.52,13.6,56.87,13.6,63.37v66.93H26.35V79.1c0-14.53,3.11-37.79,21.06-41.06l4.75,6.42c-17.26,6.13-16.45,28.9-16.45,44.1v130Z" transform="translate(-26.35 0)"/><path class="cls-1" d="M92.45,99.11c-9-12.2-15.5-3.86-15.22,12.37-5.88-47.45-17-71.6-42.18-92,32.89,6.08,59,29,77.5,73.72-7.59-3.55-18.29-4-20.1,5.94Z" transform="translate(-26.35 0)"/><path class="cls-1" d="M81.75,36.71c.36-8.67,4.3-20.9.78-27-3.29-5.71-10.17-3-13.15-.23C61,7.3,55,15.28,59.71,21.18c5.34,6.75,13.41,6.93,22,15.53Z" transform="translate(-26.35 0)"/><path class="cls-2" d="M115.06,41.59,104.42,64c-6-9.66-10.57-15.65-18.31-23.26,3.09-8.81,5.6-19.34,5.82-28.33a147.34,147.34,0,0,0,23.13,29.2Z" transform="translate(-26.35 0)"/><path class="cls-1" d="M115.92,34.56c-3.62-7.22-13.29-14.91-17.21-22.49-2.19-4.25-.59-11.3,10.34-9.49,2.44-4.1,10.79-3.17,12.62,1.8,3.52,9.59-2.44,22.32-5.75,30.18Z" transform="translate(-26.35 0)"/><path class="cls-2" d="M141.21,218.58V158.42c29.4-12,33.4-30.69,33.4-57.77-11.85,4.82-16.18,10.07-21.62,18.84-1.46-8-3.43-13.93-7.82-20.44-14.16,14.52-13.61,56.87-13.61,63.37v66.93H232.13V79.1c0-14.53-3.11-37.79-21-41.06l-4.75,6.42c17.26,6.13,16.44,28.9,16.44,44.1v130Z" transform="translate(-26.35 0)"/><path class="cls-1" d="M166,99.11c9-12.2,15.5-3.86,15.22,12.37,5.88-47.45,17-71.6,42.18-92-32.9,6.08-59,29-77.5,73.72,7.59-3.55,18.29-4,20.1,5.94Z" transform="translate(-26.35 0)"/><path class="cls-1" d="M176.74,36.71c-.36-8.67-4.3-20.9-.79-27,3.3-5.71,10.18-3,13.16-.23,8.39-2.19,14.33,5.79,9.67,11.69-5.34,6.75-13.41,6.93-22,15.53Z" transform="translate(-26.35 0)"/><path class="cls-2" d="M143.43,41.59,154.07,64c6-9.66,10.57-15.65,18.31-23.26-3.09-8.81-5.6-19.34-5.82-28.33a147.71,147.71,0,0,1-23.13,29.2Z" transform="translate(-26.35 0)"/><path class="cls-1" d="M142.57,34.56c3.61-7.22,13.29-14.91,17.2-22.49,2.2-4.25.6-11.3-10.33-9.49-2.44-4.1-10.8-3.17-12.62,1.8-3.52,9.59,2.44,22.32,5.75,30.18Z" transform="translate(-26.35 0)"/></svg>