<svg id="Layer_1" data-name="Layer 1" xmlns="http://www.w3.org/2000/svg" viewBox="0 0 372.31 430.27"><defs><style>.cls-1{fill:#fff;}.cls-2{fill:#f0c239;}</style></defs><path class="cls-1" d="M398.46,410.86c-4.26-6.15,1.73-16.67,9.54-15.23-1.35,2.66-5.17,1.77-6.95,4-1.41,1.72-1.07,4.41.09,6.17,1.42,1.35,3.46,1.69,5.23,2.43-2.08,2-4.89,4.68-7.91,2.65m5.07-9.83c.43-1.11,1.79-1.34,2.66-2,0,1.77,0,3.55.11,5.32,2.62,0,3.51-2.48,4.43-4.49a25.19,25.19,0,0,1,8.21.46c-3.71,1.89-7.28,4.12-11.17,5.63-2.27-.17-5.44-2.33-4.24-4.92Z" transform="translate(-110.25 -172.89)"/><path class="cls-2" d="M121.74,173.07c49.36-.37,98.74,0,148.11-.16,26.69.12,53.39-.22,80.08.17-.44,2.67-1,5.31-1.51,8q-112.64.21-225.27,0c-.55-2.64-1-5.29-1.41-8m2.18,12.25c5.3-.32,10.62-.21,15.93-.2h193c4.95,0,9.91-.07,14.86.16-3.79,23.4-7.38,46.83-11,70.25-8.31-.31-14.34-8.26-15.14-16,2.16-3.26,5.33-6,6.38-9.88s1.25-8,2.17-11.93c1-4.57,3.59-8.61,4.82-13.13a13.32,13.32,0,0,0-4.37,2.43,81.25,81.25,0,0,0-11.79,12.31c-5.12-5.55-10.29-11.17-16.44-15.6-.33,3.92,2.57,7,3.6,10.62,2.24,5.43,1.5,11.58,3.91,17,1.33,3,3.8,5.34,5.42,8.2a18,18,0,0,1-11.61,15.61c-6.32,1.54-13.79.91-18.51-4-3.5-3.07-3.5-8.56-7.5-11.16-1.39,6.94,3.32,13.29,8.88,16.85,9.61,6,24,2.79,29.31-7.49,2.75-3.55,1.75-8.06,2-12.2a12.14,12.14,0,0,1,2.37,2.38c-.3,3-1.25,6.27.58,9,2.87,6,8.88,9.66,15.13,11.36-.28,2-.55,3.92-.83,5.87-51.39.29-102.79,0-154.18.13-14.72-.14-29.44.29-44.15-.22-.31-2-.61-4-.9-6,5.09-2.29,10.19-5.3,12.84-10.43,2.14-3.05,1.6-6.87.75-10.26.87-.52,1.74-1,2.62-1.55-.12,3.57-.79,7.44,1.21,10.66a20.22,20.22,0,0,0,18.62,11.72c10.42.71,21.3-8.64,20.38-19.42l-2.57.93c-1.73,6.1-5.6,12.14-12,14-5.14.95-11.07,1.18-15.48-2.1-4.88-3.27-7.53-9-8-14.77a16.12,16.12,0,0,0,5.81-7c2.3-5.15,1.71-11,3.64-16.27,1.21-3.79,3.35-7.21,4.37-11.07a13.36,13.36,0,0,0-4.1,2.34,165,165,0,0,0-12.91,13c-4.52-5.6-9.41-11.28-15.78-14.81.83,4.57,3.3,8.6,4.45,13.07,1.13,4.18,1.23,8.57,2.45,12.72,1.14,3.6,4.17,6.06,6.15,9.16a18.81,18.81,0,0,1-13.07,16c-3.77-23.4-7.73-46.78-11.21-70.22m25.86,7.92c-.91,4.11-.13,8.31-.27,12.46-1.39-2.76-1.68-6.2-3.79-8.51l-3.4-.22c-.15,4.78,3.46,8.34,6.3,11.75l3.2-1.57c.71-3.83,2-7.63,1.82-11.57,0-2.08-2.45-1.79-3.86-2.34m40.82,2.23c.1,4.08,1.16,8.1,1.05,12.21l2.47.08c-.12-4.12.73-8.17.86-12.26.05-2.62-4.23-2.58-4.38,0m42.21-1.95c-1.3,4.54.07,9.17,1,13.63l3.33,1.41c3-3.17,6.44-6.75,6.32-11.43l-3.73-.15c-1.28,3.19-2.41,6.44-3.67,9.64.08-4.26.51-8.51.42-12.78-1.23-.08-2.46-.19-3.68-.32m42.18-.17c-1.55,4.7.74,9.46.66,14.22,1.65-.06,3.81,1.25,5.05-.36a23,23,0,0,0,5.37-9.65l-3.59-.91c-2,3.1-2.88,6.73-4.34,10.09-.25-3.76.56-7.45.76-11.18-.21-2-2.44-1.75-3.91-2.21m41.25.55c-.28,4.51.85,8.9,1.67,13.3l3.21,1.75c2.88-3.32,5.71-6.88,6.78-11.24l-3.26-1.29c-2.24,2.76-2.93,6.32-4.45,9.45-.35-4.16.72-8.35-.18-12.47l-3.77.5M153.3,208.27c4-2.18,6.42-6.58,7-11l-3.7-.47c-1.75,3.6-3.3,7.38-3.33,11.46m30.26-10.78c1.33,4.29,3.37,9,7.59,11.13-.58-4.19-1.56-8.4-4-12l-3.6.82m14.09.66a35.07,35.07,0,0,0-3.14,10.48c4.15-2.34,6.71-6.89,7.62-11.46-1.44.16-3.78-.9-4.48,1m27.81-.83c.77,4.31,3.06,8.69,6.95,10.92.2-4.1-1.51-7.86-3.31-11.43l-3.64.51m42-.19c.95,4.21,2.86,9.79,7.52,10.92a35.81,35.81,0,0,0-3-9.83c-.69-1.82-3.07-.84-4.5-1.09m41.83.14c.79,4.36,3.15,8.77,7.1,11a24.47,24.47,0,0,0-3.32-11.47l-3.78.47M138.11,199c-.68,1.14-1.36,2.28-2.05,3.42a38.5,38.5,0,0,0,11.06,9c-2-4.74-4.65-9.47-9-12.39m24.21.72c-2.57,3.67-5.58,7.21-6.72,11.65,3.61-2.42,7.3-4.94,10.05-8.35.07-1.13.09-2.26.07-3.4l-3.4.1m15.78-.13a11.32,11.32,0,0,0,1.27,5.3l-3.06,0c1.69,4.3,3.91,8.41,5,12.91.85,4,1,8.07,2.21,12,1,3.7,3.74,6.49,6.16,9.32a13.73,13.73,0,0,1,5.95-.06c2.05-1.95,4.18-3.94,5.42-6.54,2.25-4.54,2.13-9.73,3.28-14.57,1.07-4.64,3.55-8.77,4.88-13.32-6.87,3-11.24,9.54-16.4,14.7-4-5-9.36-8.87-13.17-14.08a71.27,71.27,0,0,1,7.8,5.83c0-.59.05-1.77.06-2.35a39.9,39.9,0,0,0-6.18-8.77c-1.09-.15-2.17-.25-3.26-.3m26.06.1c-2.67,3.37-5.3,6.84-6.87,10.89a23.7,23.7,0,0,0,9.65-7.12c1.15-1.09.06-2.64-.1-3.9l-2.68.13m16-.13c-.12.68-.37,2-.49,2.73.71,1,1.44,2,2.16,3.06l-4.12-.87c2,5,4.65,9.86,5.75,15.21.75,3.63.48,7.49,2.07,10.91,1.4,3.56,4.34,6.25,5.7,9.81a18.37,18.37,0,0,1-11.6,14.68c-5.6,1.26-12.17,1.17-16.76-2.75-4.33-3.15-5.53-8.6-8.11-13-.83,1.85-1.72,3.87-1,5.91A21.13,21.13,0,0,0,208,259.12c6,1.24,12.58.71,17.6-3,4.44-2.63,6.37-7.6,9-11.75,2.34,4.48,4.66,9.37,9.21,12,4.89,3.45,11.17,3.83,16.91,2.9a20.93,20.93,0,0,0,14.66-13.18c.73-2.77.18-5.65.12-8.46,1.57.56,3.56,2.39,4.89.41,5.19-4.1,6.41-10.9,7.14-17.08.57-5.79,3.55-10.9,5.59-16.24l-3.22.37c.53-1.19,1.08-2.38,1.62-3.57-.27-.45-.81-1.36-1.09-1.81l-2.33-.15c-2.79,3.29-5.46,6.8-6.8,11,3-1.4,5.52-3.51,8.27-5.29-.73,2.06-2.48,3.43-4,4.85a95.58,95.58,0,0,0-8.82,9.18c-3.59-4.17-7.87-7.69-11.18-12.1,2.29,1.36,4.48,2.87,6.77,4.24-1.27-4.46-4.39-7.95-7-11.68l-3.5-.1a15.4,15.4,0,0,0,1.63,5.94c-1.29-.64-2.59-1.27-3.89-1.88,1.41,4.39,3.84,8.38,5.08,12.84,1.61,5.05,1.15,10.62,3.53,15.46,1.31,2.87,3.94,4.91,5.24,7.77-.8,7.55-6.67,15.1-14.58,15.86-4.39.41-9.2.31-13-2.29-4.68-2.73-7.19-7.94-8.41-13-.36-2,1.83-3.1,2.85-4.52,3.71-3.77,4.3-9.31,5.06-14.29.56-6,3.5-11.32,5.72-16.79l-3.24.36c.61-1.26,1.22-2.51,1.82-3.76-1.08-.57-2.09-2.06-3.46-1.5-3.6,3-6,7.21-7.6,11.53,2.94-1.87,5.71-4,8.5-6.08l.08,1.59a55.41,55.41,0,0,0-12.55,12.47c-4-4.79-8.86-8.81-12.86-13.6,2.95,1.73,5.58,3.91,8.44,5.76-1.24-4.48-4.42-7.95-7-11.71l-3.18-.19m83.81,0a32.87,32.87,0,0,0,0,3.44,45.23,45.23,0,0,0,10.17,8.41c-1-4.54-4.45-7.88-6.84-11.71L304,199.6m18.68,11.75a45.64,45.64,0,0,0,10.93-8.88c-.69-1.14-1.37-2.29-2-3.44-4.36,2.88-6.87,7.66-8.9,12.32m-175.56-.07a14.19,14.19,0,0,0,4.52,5.41,21.28,21.28,0,0,0,3.17-4.28,6.28,6.28,0,0,0-2-3.29c-2.2-.6-3.92,1.14-5.65,2.16m43.66-2.51c-.33,1.48-1.46,2.93-1.09,4.49a35.9,35.9,0,0,0,3.22,3.76c1.18-1.77,3.47-3.28,3.44-5.57-.85-2.44-3.43-2.45-5.57-2.68m39.72,3.54,3.65,4.26c1.56-1.3,3-2.69,4.47-4.13-1.34-1.36-2.23-4.15-4.61-3.35-1.73.12-2.37,2.17-3.51,3.22m43.9-2.44c-2.59,2.23.33,5,1.73,6.87,1.55-1.38,3.05-2.82,4.5-4.29-1.16-2.25-3.85-5-6.23-2.58m41.49.47c-2.13,2.37.89,4.51,2.25,6.3,1.51-1.4,3-2.86,4.43-4.34-1.38-2.17-4.61-5.08-6.68-2m-177.77,60c1.91-.15,3.83-.28,5.76-.31h167c7.61.16,15.25-.39,22.83.38.09.71.26,2.13.34,2.84q-98.13.12-196.27,0l.32-2.92m.12,5.43q97.68,0,195.34,0c-7.86,48.71-15.32,97.48-23,146.21-3.8,18.29-5.41,37.83.75,55.8,3.73,11.58,12.47,21.71,23.92,26.14,8.8,3.36,17.12,8.47,23.11,15.84,3.25,4.08,5.78,9.14,5.3,14.5-.09,5-4.11,9.37-8.79,10.73-4.84.86-10,1-14.57-1.1-11.41-4.17-24.83-6.45-36-.38-7.23,3.51-12.21,11.48-11,19.61,1.88,12.55,13.14,22.82,25.57,24.39,54.55,0,109.11-.06,163.66,0q0,4.86,0,9.72c-18.2.56-36.42.08-54.63.24-105.78-.06-211.56.13-317.34-.09a96.14,96.14,0,0,1,.1-9.9q68.63,0,137.24,0c5.23-.07,10.51.38,15.68-.63a10.57,10.57,0,0,0-3-1.26c-23.18-2.89-44.55-15.78-59.13-33.86-16.28-19.9-25-44.81-29.91-69.76-11.3-68.74-22-137.54-33.27-206.27M224,332.3c-.06,8.94-.41,17.88-.19,26.81a112.93,112.93,0,0,1,12.83-1.85c2.76-7.36,5.16-14.85,8-22.19,1-2.2,1.43-5.06-.54-6.87-3.29-3-8.12-2.42-12.23-2.39-3.69-.07-8.2,2.23-7.84,6.49m-22.9,4.23c-1.77,2.2-1.1,5.16.14,7.44,3.31,6.63,6.47,13.35,9.75,20,3.77-1.32,7.28-3.23,10.9-4.89-.38-8.8,0-17.63-.63-26.41-.57-3.89-5.27-3-8.08-2.67-4.44,1.09-9.11,2.89-12.08,6.53M251,330.35c-2.48,1.13-3.14,3.92-4,6.23-2.36,6.92-5.34,13.63-7.45,20.65,3.78.88,7.56,1.8,11.39,2.52,4.53-4.67,8-10.18,12.26-15.1,2-2.44,4.57-5.38,3.21-8.79-2.62-5.37-9.94-8-15.37-5.51m16.32,13.46c-4.88,5.25-9,11.18-13.54,16.71a85.76,85.76,0,0,1,7.08,7.68c5.66-2.92,11.31-5.88,16.87-9,3.09-1.73,6.05-5,5.56-8.76a16.52,16.52,0,0,0-7.17-9.35c-3.17-1.24-6.67.25-8.8,2.72m-79.44,2.56c-3.64,3.15-4.67,8-4.89,12.63,5.88,5.58,12.4,10.45,18.2,16.12,2.63-2.93,5.13-6,7.74-8.92-2.66-8-7.08-15.16-10.5-22.79-3.65.19-7.55.7-10.55,3m-16.66,27.5c2.58,2.68,6.3,3.84,9.56,5.51,5.32,2.26,10.16,5.64,15.81,7.06,1.28-3,2.45-6,3.55-9.07-4.52-4.27-9.44-8.07-14-12.24-2.22-1.73-4.3-4.11-7.24-4.45-6.61-1-10.63,8.06-7.64,13.19m49.6-9.6c-3.85,1.82-3.41,6.85-2,10.14A29.09,29.09,0,0,0,230,387.87c3.09-.35,5.84-2,8.75-3-.3-5.26-2.75-10.16-2.58-15.47a53.58,53.58,0,0,0-.44-7.7c-5.06.15-10.28.56-15,2.59M239.52,363c-.51,7.22-1.42,15.59,3.39,21.65,3.34.61,6.75.18,10.12.1a33.5,33.5,0,0,1,4.29-14.42c-3.81-5.8-11.16-7.95-17.8-7.33m-37.24,17.79c-1.22,3.58,2.28,6.51,4.83,8.43,5,3.24,10.53,6.63,16.65,6.55a49.6,49.6,0,0,0,4.41-5.58c-3.09-3.26-6.64-6.13-9.14-9.9-2.28-3.42-4.14-7.09-6.21-10.63-5.34,1.36-8.56,6.34-10.54,11.13m-33-1c-3,1.86-3.77,5.61-4.15,8.87-.28,2.22-.09,5,2.05,6.29,6,2.37,12.57,2.13,18.79,3.54,3.08.7,6.22,1.15,9.34,1.63.08-3.5.29-7,.4-10.48-6.19-3-12.53-5.7-18.85-8.41-2.4-.89-5-2.24-7.58-1.44m31.28,7.41c-1.91,5.4-1.63,11.29-.4,16.8.69,2.57,1.77,5.36,4.19,6.77,6.51.73,12.94-1.05,19.42-1.29-.14-3.73-.18-7.47-.09-11.2-8.47-1.73-17.12-4.48-23.12-11.08m32.05,5c-4.49,3.45-6,9.71-4.66,15.07.76,3.65,3.31,6.53,5.79,9.18,4.55,4.82,8.66,10,13.21,14.84,16.87,17.6,33.5,36.39,42.83,59.24,6.66,17.07,8.34,35.69,8.07,53.88,3.33-2.26,6.68-4.68,10.68-5.6,5.48-1.73,11.33-1.29,16.95-.57-3.75-8.55-5.29-17.81-7.89-26.72-5.71-18.54-12.33-37-22-53.85-11.55-18.23-26.12-34.42-36.66-53.32-2.87-5.05-4.48-10.69-5.77-16.32-7.05-.77-14.69-.15-20.59,4.17m-62.33,9.62c-3,2.87-2.82,7.53-2.17,11.3,1,3.21,4.93,3,7.64,3.06,8.39-.35,16.78-.3,25.18-.31-2-4.29-4.31-8.45-5.58-13a157,157,0,0,0-17.59-1.86c-2.49-.08-5.21-.45-7.48.85m37.57,11.7c-3.63,4.45,1.89,11.72,7.18,10.35,5.62-.56,11-2.43,16.6-3.24-2.41-3-4.63-6.14-7.28-8.91-5.57-.56-10.95,1.63-16.5,1.8m-22.11,5.69c-4,.36-8.24.2-11.89,2.13-1.78.54-1.6,2.56-1.33,4a13,13,0,0,0,5.7,7.53c10.1-.76,20-3.56,29.66-6.43a91.57,91.57,0,0,1-6.36-9.06c-5.33-.12-10.49,1.47-15.78,1.83m31.48,6.77c-1.56.5-3.74,1.39-3.37,3.42.17,4.49,4.85,8.93,9.47,7.39,6-1.59,12.13-2.85,17.9-5.2a81.31,81.31,0,0,0-7.33-8.72c-5.63.64-11.12,2-16.67,3.11m-27.78,8.24c-2.6.87-6,.89-7.57,3.46-.56,3.3,1.5,6.68,4.29,8.33,2.41,1.8,5.31,0,7.84-.54,7.19-2.36,14.52-4.25,21.77-6.44a18.11,18.11,0,0,1-6.59-9.47c-6.7,1-13.11,3.3-19.74,4.66m39.7,3.48c-2,.68-5.11,1.37-5,4-.55,3.29,2.2,6.22,5.07,7.34,2.91.08,5.6-1.31,8.39-1.94,4.8-1.48,9.85-2.16,14.42-4.35-2.77-2.73-4.84-6.42-8.32-8.28-5,.26-9.74,2-14.54,3.18m-28.86,8.92c-2.74.84-6,.92-8,3.34-1.61,4.33,2.57,9.85,7.2,8.49,8.63-2.38,17.26-4.8,25.75-7.65-3.6-1.9-5.21-5.64-5.82-9.47-6.48,1.44-12.78,3.5-19.16,5.29m35.28,3.54c-3.14,2.32-1.74,7.5,1.18,9.37,2.83,1.12,5.95.27,8.78-.43q7.86-2.44,15.78-4.74a43.08,43.08,0,0,0-7.75-9.06c-6,1.73-12,3.18-18,4.86M205,459.48c-4.09.64-3.83,5.92-1.77,8.47,1.88,2.8,5.71,2.09,8.47,1.35,7.52-2.17,15-4.44,22.53-6.62a27.66,27.66,0,0,1-5.68-9.51c-8,1.35-15.72,4.17-23.55,6.31m38.79,2.9c-1.76,3.06-.65,7.94,2.89,9.23,2.48.92,5.11-.16,7.53-.8,5.39-1.83,11-3,16.25-5.23a89.64,89.64,0,0,0-7.61-8.89,120,120,0,0,0-19.06,5.69M211.39,472c-.06,2.58-1,5.69,1,7.81,1.9,2.6,5.54,1.81,8.24,1.26,7.69-2.13,15.25-4.71,23-6.65-2.95-2.68-4.89-6.17-6.65-9.69-8.62,2.1-17.08,4.79-25.59,7.27M252,473.75c-.93,3.28-.88,7.23,2.22,9.36,3.09,1.14,6.44.28,9.4-.86,4.8-1.83,9.95-2.6,14.58-4.85a75,75,0,0,0-5.91-9.7c-6.79,1.92-13.46,4.25-20.29,6.05m-31.83,10c-1.73,3.33-.6,7.87,2.93,9.49,3.37.79,6.63-.89,9.83-1.72,6.08-2,12.43-3.26,18.36-5.74a13.28,13.28,0,0,1-3.95-10.32c-9,3-18.3,5-27.17,8.29m40.11,2c-3.84,2-1.88,7.3.91,9.35,3.06,1.43,6.48.31,9.47-.75,4.12-1.49,8.4-2.47,12.55-3.83l.89-1.33c-.85-3.46-2.85-6.47-4.49-9.59-6.39,2.25-13,3.77-19.33,6.15m-29.15,8.69c-1.62.64-3.75.88-4.55,2.67-1.33,2.76.47,6,2.73,7.69,2.13,1.31,4.73.52,7,0,7.43-2.27,14.91-4.4,22.39-6.52-2.68-3-4.71-6.63-4.46-10.79-7.57,2.71-15.37,4.71-23.08,7m37.75,2.84c-2,.55-4.92,1.37-4.7,4-.74,4.39,4.1,8.93,8.36,7q8.08-2.64,16.19-5.21a37.76,37.76,0,0,0-3.1-10.6c-5.71,1.16-11.13,3.34-16.75,4.82M235.11,507.6c-4.43,1.11-3.37,7.88-.07,9.75,2.72,1.28,5.78.35,8.53-.31,7.22-2.24,14.5-4.3,21.75-6.43-1.53-1.34-3.28-2.52-4.39-4.26-.81-1.8-.84-3.83-1.18-5.75-8.31,2-16.38,4.84-24.64,7M269.48,512c-2.82,3.7.42,10.62,5.36,9.64,5.85-.71,11.24-3.48,17-4.73-.52-3.79-1.37-7.52-2.15-11.26-6.66,2.33-13.61,3.81-20.2,6.35M241,520.41c-1.66.73-4.16.86-4.45,3.09-.81,3.35,1.38,8.12,5.27,8,3.44-.08,6.66-1.48,9.95-2.34,5.51-1.81,11.24-3,16.58-5.3a14.59,14.59,0,0,1-4.22-10.33c-7.65,2.49-15.39,4.67-23.13,6.87m34.59,3.81c-1.54.68-3.81,1.18-3.67,3.3-1.06,4.26,3.27,9,7.65,7.55,4.68-1.28,9.2-3.09,13.85-4.5-.38-3.77-1-7.51-1.6-11.23-5.33,1.89-10.82,3.25-16.23,4.88M245,533.59c-1.95.71-5.27,1.12-5.1,3.85-.6,3.21,1.67,6.2,4.42,7.58,2.38.34,4.64-.71,6.88-1.35,7.12-2.32,14.41-4,21.5-6.45a12.12,12.12,0,0,1-5.22-10c-7.61,1.7-14.89,4.58-22.48,6.4m31.11,5c-5.91,1.92-1.79,11.83,3.76,10.75,4.66-1.05,9-3.14,13.65-4.4.13-3.88.16-7.75.08-11.63-5.84,1.71-11.76,3.22-17.49,5.28m-23.74,7.24c-3.8,1.1-7.75,1.82-11.2,3.85.27,2.33-.32,5.09,1.45,7,1.47,1.47,3.55,2.91,5.72,2.08,8.81-2.52,17.59-5.13,26.37-7.76-1.46-1-3.14-1.81-4.25-3.22-1.09-2-1.17-4.35-1.65-6.52-5.58,1.18-10.95,3.12-16.44,4.6m24.08,7c-4.62,2-2,8.77,1.84,10.18,3.24.79,6.4-.78,9.4-1.78,1.31-.58,3.11-1,3.4-2.69a93.48,93.48,0,0,1,2.72-10.94c-5.68,2.08-11.74,3-17.36,5.23m-31.76,9.45c-5.39,2.21-1.74,10.63,3.24,10.6a20.67,20.67,0,0,0,5.24-1.21c7.2-2.4,14.71-3.85,21.74-6.78-3.57-2-5-5.72-5.21-9.62-8.42,2-16.63,4.85-25,7M360.38,381.9c8.56-5.65,19.22-7.08,29.24-5.94A23.5,23.5,0,0,1,400,380c-2.94,1.64-4.89,4.35-6.69,7.11-3.77.71-4.24-4.92-7.63-5.59-4.48-.74-9,.83-13,2.7-3,1.51-6.13,4.28-5.6,7.95a16.37,16.37,0,0,0,8.34,11.75c1.21.56,3.11,2.1,1.29,3.22-4.84,4.47-9.33,10.75-7.34,17.7.86,3.21,4.74,2.67,7.3,3.26-.12.81-.23,1.62-.34,2.44a67.41,67.41,0,0,0-6.3,3.7c1,4.15,4.52,6.54,7.93,8.64-2.24.23-4.48.42-6.71.62.26,2.25.21,4.82,2,6.54,2,2.68,5.48,3.29,8.59,3.78-1.62,1.27-4.38,2-4.31,4.48,2.07,4.74,8.08,3.28,12.22,3.68-1,1.54-2,3.09-3,4.67,3.78,1.09,7.72,1.29,11.6,1.84,2.71,22.26,4.1,44.65,6.68,66.92.49,6.65.79,13.36,2.26,19.9a67.08,67.08,0,0,0-19-4.41c-6.71-1.51-13.58-1.6-20.42-1.85,2.17-7.12,3.5-14.82,1.25-22.11A31.56,31.56,0,0,0,355,509.14c-11.19-7-25.43-9.21-34.6-19.33-6.08-6.15-7.9-15.08-8.05-23.43.53-19.34,7.78-38,18.43-54,8-11.76,17.59-22.7,29.57-30.49m41.73,1.63c2.63-1.51,6-.51,8,1.57,5.25,5,13.22,7.48,16,14.73-4.38-2.95-8.81-5.81-13.36-8.47a12.38,12.38,0,0,0-11.68-1.78c-5.23,3.08-7.56,9.12-12.06,13-2.91,1.6-6.7,1.37-9.77.29a16.2,16.2,0,0,1-8.22-12.16c2.49-3.3,6.44-6,10.76-5.41,4.3-.1,6.78,4,9.27,6.82,4.32-2,7.12-6,11-8.57M394,407.37c.12-6.73,5.18-15.09,12.8-14.23,2.38-.19,3.48,2.17,4.76,3.72,4.78.12,10,1.22,12.52,5.78-4,.45-8.41.62-11.78,3.19-3.66,2.33-5.64,6.49-9.26,8.84-4.44,1.61-9.8-2.53-9-7.3m4.43,3.49c3,2,5.83-.65,7.91-2.65-1.77-.74-3.81-1.08-5.23-2.43-1.16-1.76-1.5-4.45-.09-6.17,1.78-2.21,5.6-1.32,6.95-4-7.81-1.44-13.8,9.08-9.54,15.23m5.07-9.83c-1.2,2.59,2,4.75,4.24,4.92,3.89-1.51,7.46-3.74,11.17-5.63a25.19,25.19,0,0,0-8.21-.46c-.92,2-1.81,4.46-4.43,4.49-.07-1.77-.08-3.55-.11-5.32-.87.66-2.23.89-2.66,2M375,414.39c3.38-4.91,9-7.76,14.61-9.28-2.72,14-.49,29.21,7.39,41.23,3,4.7,7.42,8.16,11.33,12a15.83,15.83,0,0,1-11.54,6.51l-1.55-1.22c.76-2.36,1.8-4.61,2.71-6.91-4.35.71-8.65,1.82-13.07,2,2.19-3.45,5.58-6.57,5.29-11-3.77,1.46-7.91,2.23-11.88,1,3-3,7.35-5.31,7.83-9.9-3.52-.38-7-.86-10.48-1.58,3.05-4,7.23-7.85,7-13.33a32.85,32.85,0,0,1-9.54-.63c.17-3,0-6.35,1.87-8.93m41.24-7.58c3.37-1.71,7.28-1.2,10.92-1-4,1.25-8.78.64-12.07,3.69-4.69,4-3,11.37-7.31,15.72-2.36,2.93-6.41,2.69-9.74,2.12.13-2.26-.69-5,1.08-6.81,2.55-2.82,6-4.66,8.81-7.15,2.75-2.2,5.1-5,8.31-6.58m6.19,1.88c7-2.77,13.57,2.26,20.45,2.85a34.1,34.1,0,0,1-2.07,9.24c-3.33-2.21-4.59-6.3-7.7-8.72s-7.07-2.51-10.68-3.37m-2.55,6.7c3.49-2.81,9.41-3.18,12.47.47,2.43,2.58,3.31,6.12,4,9.5-4.39,1-8.73,2.17-13,3.51-4.94,1.5-10.16,1.08-15.24,1.4,4.57-4.45,6.58-11,11.75-14.88m4.6,16.69c4.78-.62,8.89-3.27,13.42-4.73a34.67,34.67,0,0,1-7.7,12.61c-1.78-1.84-3.25-4.74-6.23-4.43-6-.24-12.8-.7-18,2.87-3.94,3.18-1.89,9.82,2.77,11a25.82,25.82,0,0,0,11.17-.06c3.26-2,5.44-5.43,8.86-7.29-1.8,3.92-5,7.16-5.9,11.48-.71,2.13-.75,4.66-2.4,6.36-2.17,2.67-6.2,2.22-9.08,1.14-1.41-2-1.55-4.51-2.59-6.65-2.66-2.3-6.06-4-7.71-7.22-2.16-3.59-1.61-9.08,2.32-11.22,6.42-3.71,14.11-2.25,21.08-3.85m-16,8.24c4.36-2.51,9.71-2.15,14.41-.91,2,.28.78,2.83.93,4.1-4.81-2.37-10.06-2.93-15.34-3.19M314,549.45c8.8-4.59,19.19-2.22,28.18.56,5.3,2,11.05,1.24,16.55,2.09,8,1.59,16.22,1.12,24.21,2.77a82.23,82.23,0,0,1,23.17,4c5.69,2.14,11.8,2.43,17.82,2.23,4.75.16,8.23-4,12.92-4.24,3-.45,5.54,2.11,8.56,1.83,2,.06,4.33-.52,5.86,1.11,1.63,2.19,2.49,4.85,4.08,7.07,2.7,2,6.62,2.38,8.57,5.39a46.26,46.26,0,0,1,5.43,10.9l-3.47.19c-4.7-5.32-9.52-10.53-13.93-16.1a27.14,27.14,0,0,0-4.16-4.14,27.14,27.14,0,0,0,2,7.16c-2.75-2.54-5.23-5.34-7.95-7.9-1.33-1.59-3.58-1-5.38-1.23-.58,5,5,7.51,4.82,12.32-4.91-.25-8.65-3.76-13.15-5.28a53.35,53.35,0,0,0-17.27-2.39c-4.22.14-7.81-2.39-11.75-3.46a120,120,0,0,0-25.66-3.64c-9.47-1.5-19.08-.66-28.62-1.16-6.79-.18-13.08-3.44-19.86-3.59-3.68.54-7.71,1.31-10.47,4-3.78,4.2-2.8,11,.72,15,3.27,3.7,8.29,5.11,13,5.94,9.54.9,19.11,0,28.66.17s19.28-1.55,29-1.34c6.87-.35,13.74,0,20.61.26l-1.11-2.13c-5.18-2.28-10.94-2.56-16.51-2.73q-23.46-.46-46.93-.16c-5.3.06-11.72,1.45-15.8-2.88-2.34-1.92-3-6-.61-8.15,6.51-2.16,13.48-.45,20.11.21,10,2.06,20.41.71,30.46,2.68A198.05,198.05,0,0,1,402,569.32c11.21,2.42,24,.71,33.49,8.39a12.61,12.61,0,0,0,10,3.57c.09-2.67.28-5.32.58-8a92,92,0,0,1,9.56,3.12c3.85,1.35,6,5.17,7.55,8.72-44.45.61-88.93,0-133.38-.08-7.23-.75-15-2.05-20.64-7-5.22-4.44-7.09-12.11-5.19-18.58,1.45-4.77,5.67-8,10-10M110.25,602.34c.47-2.65,3.59-2,5.57-2.27q170,0,340,0c8.87.23,17.78-.56,26.6.57,0,.6.08,1.8.11,2.4-122.58.18-245.16,0-367.73.11-1.51-.21-3.39.35-4.58-.82" transform="translate(-110.25 -172.89)"/></svg>