<svg id="Layer_1" data-name="Layer 1" xmlns="http://www.w3.org/2000/svg" viewBox="0 0 253.69 217.85"><defs><style>.cls-1{fill:#004b7f;}</style></defs><path class="cls-1" d="M231.36,254c25.79-.23,51.58,0,77.37-.11a9.44,9.44,0,0,1,4.82,1.24,9.58,9.58,0,0,0,2,4.32c6.84,9.34,11.22,20.13,14.92,31,6.47,25.07,2.93,53.22-11.87,74.82-1.73,2.6-3.21,6.54-6.89,6.61-23.8-.16-47.6.09-71.39-.12,3.3-1.83,7.17-2.28,10.5-4.08,10.6-5.18,19.88-13.78,24.78-24.62,5-8.71,6.58-18.89,7.4-28.76a41.26,41.26,0,0,0-2.85-17.64c-3.48-8-7.63-15.86-13.51-22.39-9.29-10.25-22.1-16.65-35.28-20.3m-36.81,32.11c17.36,0,34.75.42,52.11-.28,8.37.17,16.74-.5,25.12-.05-3.18,2-6.79,3-10.12,4.64-14.08,7-27.1,17.56-33.82,32.07-9.83,20.86-4.75,47.86,12.69,63.14a45.82,45.82,0,0,0,14,10.85c30.26.25,60.54,0,90.81.11-.09-.62-.26-1.85-.35-2.47.15.7.46,2.09.62,2.79,10.47-6.22,19.91-14.62,25.74-25.45,6.85-12.06,8.16-26.81,4.47-40.09-4.36-16.65-16.58-30.36-31.33-38.79-3.79-2.09-7.51-4.51-11.8-5.45l-1.45-1.49c16.15,0,32.33.43,48.47-.25,8.63.14,17.25-.5,25.89-.22,4.84,6.07,8.3,13,12.33,19.61a17.58,17.58,0,0,0,1.71,4.36,105.56,105.56,0,0,1,7.1,33.33c.18,17.35-4.07,34.9-13.07,49.81-.48,1.31-2.59,2.79-.52,4-3.84.44-5.16,5-7.21,7.74-4.06.6-8.17.31-12.25.35q-98,0-196,0c-16-17.88-25.65-41.93-24.51-66.07.34-11.92,4.3-23.44,9.61-34,3.37-6.41,7-12.77,11.79-18.22m-.66,117.46h0M274,424.08a30.76,30.76,0,0,1,26.61-13.62c4,0,7.79,1.32,11.63,2.24,5.36,3.08,10.49,6.84,13.57,12.35a30.49,30.49,0,0,1,3.89,22.39c-.36,1.76-1,3.56-.47,5.38-2.64,1.67-3.38,5-5.37,7.22-5.38,6.62-13.36,11.77-22.15,11.6a29.44,29.44,0,0,1-22.59-7.72c-11.45-9.42-13.26-27.71-5.12-39.84" transform="translate(-173.06 -253.89)"/></svg>