<svg id="Layer_1" data-name="Layer 1" xmlns="http://www.w3.org/2000/svg" viewBox="0 0 287.84 286.77"><defs><style>.cls-1{fill:#009aae;}</style></defs><path class="cls-1" d="M308.45,266.51a41.07,41.07,0,0,1,23.24-13.62c-2.93,2.8-6.52,5.5-7,9.85-1.2,6.83,3.94,12.43,8.49,16.79,17.17,17.16,34.24,34.42,51.45,51.54,5.24,5.14,10.21,10.77,13.24,17.53,3.51,7.51,5,16.35,2.38,24.38-2.41,8.78-10,16.1-19.16,17.44-6.55,1.39-13.17-.35-19.4-2.32-5.44-1.78-11.63-1.94-16.78.78-6.24,3.1-11,8.35-16,13.05q-32.67,32.83-65.33,65.66c-10.71,10.81-22.15,21.5-36.3,27.62a73.73,73.73,0,0,1-28.13,6.2c2.89,5.21,6.44,10.64,12.36,12.69,8.19,2.69,17,.37,24.65-3,15.14-7.27,28.24-18.13,39.89-30.11Q305,452,334.1,423.14c8.68-9.07,19.66-17.35,32.64-18.1,16.88-1.68,33.54,10.61,37.82,26.84-3.17-3.09-7-5.95-11.68-5.8-7.79,0-13.85,5.62-18.85,11-24.45,24.26-48.56,48.86-73.16,73,3,2.77,6.71,5.11,10.92,5.13,6.74.62,12.9-3.23,17.45-7.85q22.18-22.38,44.45-44.65c5.67-5.67,11.14-11.75,18.16-15.79,6.52-3.88,14.32-6.41,21.95-5,14.14,2.74,25.29,15.8,27,29.88-2.4-2.59-4.75-5.85-8.56-6.23-5.95-1-11,3-15,6.91Q389,500.52,360.84,528.77c-13.44,12.82-36,14.05-50.79,2.77a34.5,34.5,0,0,1-12.29-18.18c-11.58,11.57-25.92,20.82-42,24.43-13.73,3.5-28.89,2.19-41.38-4.7s-21.24-19.2-24.88-32.74c-11.07-2.58-21.42-8.76-27.94-18.21-7.83-11.38-10.2-26.07-7.38-39.5,2.6-13.87,9.45-26.55,17.82-37.76,1.72-2.22,3.25-4.74,5.74-6.19,3.85-5.5,8.75-11.1,15.64-12.54a23.41,23.41,0,0,1,17.95,2.43c-3.26-5.79-4.43-12.91-2-19.22A23.22,23.22,0,0,1,226,354.23c5.18-.73,10.82-.79,15.48,1.94,10,4.74,15.3,17.46,11.56,27.91a23.58,23.58,0,0,1-20.17,15.85c-4.62.55-9.05-1.14-13.19-3a25.47,25.47,0,0,1,1.72,18.48,23.42,23.42,0,0,1-15,15c-6.69,1.95-14.36,1.08-20.06-3.07a22.81,22.81,0,0,1-9.86-18.6c-.23-3,1-5.81,1.15-8.75l-.83.11c-9.87,13.9-18.76,29.41-20.48,46.7-.9,8.73,2.57,18.61,10.73,22.82,8,4.93,18,3.74,26.46.63,12.68-4.85,23.93-12.85,33.87-22q35.23-35.28,70.46-70.59c9.72-9.41,23.47-15.64,37.19-13.35,10,1.17,17.27,8.86,25.74,13.5,3.18,1.44,7.25,3.69,10.5,1.22,1.57-.87,1.13-2.87,1-4.34-1.49-5-5.2-8.89-8.78-12.51q-24-24-48.1-47.94c-6.55-6.47-12-14.45-13.93-23.58-1.66-8.62,1.4-17.63,7-24.2Z" transform="translate(-153 -252.89)"/></svg>