<svg id="Layer_1" data-name="Layer 1" xmlns="http://www.w3.org/2000/svg" viewBox="0 0 445.05 444.37"><defs><style>.cls-1{fill:#29166f;}</style></defs><path class="cls-1" d="M71,320.93q72.78,0,145.53,0,0,103.17,0,206.35a84.4,84.4,0,0,1,11.36-26,80.11,80.11,0,0,1,35-29c23.82-10.31,52.73-7.73,74.24,6.82a78.87,78.87,0,0,1,33.65,48.72c.22-39.18,0-78.38.1-117.56-.12-5.4.23-10.82-.16-16.21-3.22-12.26-9-24.1-17.75-33.35-10.31-11-25.05-17.11-39.89-18.74-10.51-1.32-21.12-.52-31.61.61,25-12.28,52.61-19,80.37-21,11.89-1,23.82-.46,35.73-.62A118.14,118.14,0,0,1,515.42,425.54c.87,6.57.57,13.21.61,19.82q0,159.93,0,319.87H370.86V645.7c-.09-27.77.18-55.56-.14-83.33-5.66,26.8-26.61,49.54-52.65,57.83a79.18,79.18,0,0,1-101.53-57.65q0,59.51,0,119c.1,3.6-.21,7.23.14,10.82,2.89,10.51,7.51,20.69,14.35,29.23A60.09,60.09,0,0,0,262.59,742c13,3.5,26.63,3.59,39.86,1.85.44.3.88.61,1.31.94-10.13,4.44-20.39,8.72-31.11,11.57a232.91,232.91,0,0,1-50.13,8.48c-10.52.79-21.07.29-31.61.43a118.12,118.12,0,0,1-113.47-80,114,114,0,0,1-5.76-26.84c-.94-12.64-.61-25.32-.66-38q0-149.73,0-299.47M304.77,743.71h0" transform="translate(-71 -320.89)"/></svg>