<svg id="Layer_1" data-name="Layer 1" xmlns="http://www.w3.org/2000/svg" viewBox="0 0 437.53 431.12"><defs><style>.cls-1{fill:#7cd0f5;}.cls-2{fill:#02aae8;}.cls-3{fill:#006fb8;}</style></defs><path class="cls-1" d="M308.07,139.39c1.39-1.31,3.34-4.14,5.39-2.37,15.83,18.89,27.52,41.5,32.29,65.78,4.5-1.83,8.44-4.79,12.89-6.73,29-14.62,60.12-24.55,91.53-32.54,1-.24,2.05-.34,3.1-.48a294.37,294.37,0,0,1-4.95,43.81,253.53,253.53,0,0,1-15.08,52.38c-.93,2.28-2.12,4.49-2.49,7,35.1.74,69.33,10.94,101.4,24.68l.32.62c-22,28-45.86,54.94-73.82,77.22-3.44,2.89-7.26,5.32-10.6,8.34,21.47,18.11,36.57,42.74,46.86,68.65-32,13.56-65.18,25-99.64,30.14a149.23,149.23,0,0,1,.76,29.28A169.14,169.14,0,0,1,390.27,535c-.76,2.26-1.06,4.74-2.39,6.77-18.69-1.67-37.38-4.1-55.6-8.71a137.2,137.2,0,0,1-16.83-5.13,16.21,16.21,0,0,0-3.75-.87,114.23,114.23,0,0,1-21.36,29.77c-3.67,3.64-7.22,7.46-11.4,10.54-1.07.59-2.29,0-3.19-.62-13.69-8.92-27.22-18.41-38.49-30.33a66.08,66.08,0,0,0-4.76-4.71c-10.95,7.59-23.6,12.3-36.46,15.48a31.53,31.53,0,0,1-4.54.6c-6.66-10.8-12.79-22-17-34-1.26-2.9-1.55-6.23-3.29-8.92-12.88,1.33-25.93-.49-38.3-4.14-2-11.28-2-22.81-1.47-34.22.4-2.84.4-5.79,1.25-8.53,6.79,2.16,13.84,3.73,21,3.39,6,.26,12-.7,17.92-1.53-2.61,14.77-4,30.22.16,44.86,14.35-1.4,26.57-9.94,38-18,4.35,14.87,10.52,29.48,20.13,41.76,1,1.21,2.38,2.92,4.1,1.91,7.11-4.78,12.3-11.83,16.87-19,4.15-6,7-12.72,10.17-19.25,13.53,13.71,29.19,25.75,47.1,33.13a15.29,15.29,0,0,0,3.86.84,74.27,74.27,0,0,0,6.21-27.2,139.16,139.16,0,0,0-1.61-29.27c25.48,6.16,52.09,10.11,78.21,6-2.32-15.09-10-28.67-19-40.77-4.68-6.57-10.24-12.44-15.58-18.46a329,329,0,0,0,41.78-14.13,212.79,212.79,0,0,0,45.44-25.12c-8.11-7.81-18.3-13.11-28.54-17.58-15.67-6.19-31.94-11.13-48.65-13.47,0-.3.1-.88.13-1.18,9.28-8.91,18.42-18,26.59-28,10.28-12.19,20-24.95,27.41-39.14,2-3.79,4.24-7.48,5.49-11.6-8.1-.5-16.19.22-24.23,1-12.34,1.34-24.35,4.59-36.29,7.79-11.47,3.26-22.67,7.33-33.75,11.7A259.4,259.4,0,0,0,346.42,240c.93-8.43,1.68-17,.78-25.45-.35-3.81-.51-7.68-1.8-11.32A198.06,198.06,0,0,0,311,227.85a321.52,321.52,0,0,0-36.32,36.56c-2.6-8.05-4.57-16.36-8.28-24-5.09-11.57-11.24-23.58-21.89-30.94A188.78,188.78,0,0,0,226,243.7a248.49,248.49,0,0,0-12.56,37c-12.87-10.26-27.94-19.6-44.91-19.8a99.73,99.73,0,0,0-2.4,26.86,216.94,216.94,0,0,0,3.46,33.13c-13.94-.54-28.69.36-41.12,7.32-1.51.55-1.11,2.36-.9,3.6,3.34,12.86,10.55,24.3,18.41,34.85.8,1.36,3.06,2.74,2,4.5-11.83,6.76-23.93,14.48-31.2,26.37,4.44,4.94,9.32,9.6,15.23,12.76,5.83,3.71,12.23,6.33,18.58,9-8.34,11.46-15.63,24.3-17.81,38.48C124,454.33,116,449,108.53,443.29c-2.86-2.12-5.26-4.82-8.2-6.83a128.54,128.54,0,0,1,16.1-39c-2.52-3.92-5.71-7.36-8-11.43a154.73,154.73,0,0,1-13.48-27.2,62.46,62.46,0,0,1,7-8.65c5.3-5.52,10.57-11.16,16.8-15.66,2.51-1.83,5.13-3.5,7.63-5.33,0-3.29-1-6.45-1.51-9.68-2.8-15.45-3-31.23-2.49-46.88a49.54,49.54,0,0,0,5.49-2.27,101.85,101.85,0,0,1,40.39-9.63c4.74-24.84,14.2-48.43,24.17-71.56,12.67,1,25,4.76,36.58,10a94.3,94.3,0,0,1,15.69,9.8c6.39-8.57,12.67-17.29,19.82-25.28,8.64-10.49,18.37-20,27.94-29.63,5.17-4.93,10.22-10,15.62-14.68Z" transform="translate(-94.94 -136.45)"/><path class="cls-2" d="M311,227.85a198.06,198.06,0,0,1,34.37-24.59c1.29,3.64,1.45,7.51,1.8,11.32.9,8.48.15,17-.78,25.45a259.4,259.4,0,0,1-10.73,46.72c11.08-4.37,22.28-8.44,33.75-11.7,11.94-3.2,23.95-6.45,36.29-7.79,8-.82,16.13-1.54,24.23-1-1.25,4.12-3.51,7.81-5.49,11.6C417.09,292,407.34,304.77,397.06,317c-8.17,10-17.31,19.05-26.59,28,0,.3-.1.88-.13,1.18,16.71,2.34,33,7.28,48.65,13.47,10.24,4.47,20.43,9.77,28.54,17.58a212.79,212.79,0,0,1-45.44,25.12,329,329,0,0,1-41.78,14.13c5.34,6,10.9,11.89,15.58,18.46,9,12.1,16.68,25.68,19,40.77-26.12,4.08-52.73.13-78.21-6a139.16,139.16,0,0,1,1.61,29.27,74.27,74.27,0,0,1-6.21,27.2,15.29,15.29,0,0,1-3.86-.84c-17.91-7.38-33.57-19.42-47.1-33.13-3.19,6.53-6,13.26-10.17,19.25-4.57,7.14-9.76,14.19-16.87,19-1.72,1-3.15-.7-4.1-1.91-9.61-12.28-15.78-26.89-20.13-41.76-11.47,8-23.69,16.58-38,18-4.11-14.64-2.77-30.09-.16-44.86-5.94.83-11.89,1.79-17.92,1.53-7.16.34-14.21-1.23-21-3.39l0-.17c2.18-14.18,9.47-27,17.81-38.48-6.35-2.66-12.75-5.28-18.58-9-5.91-3.16-10.79-7.82-15.23-12.76,7.27-11.89,19.37-19.61,31.2-26.37,1.09-1.76-1.17-3.14-2-4.5-7.86-10.55-15.07-22-18.41-34.85-.21-1.24-.61-3.05.9-3.6,12.43-7,27.18-7.86,41.12-7.32a216.94,216.94,0,0,1-3.46-33.13,99.73,99.73,0,0,1,2.4-26.86c17,.2,32,9.54,44.91,19.8a248.49,248.49,0,0,1,12.56-37,188.78,188.78,0,0,1,18.53-34.25c10.65,7.36,16.8,19.37,21.89,30.94,3.71,7.66,5.68,16,8.28,24A321.52,321.52,0,0,1,311,227.85m-50.76,55.23a189.21,189.21,0,0,0-10.83,17.18c-3.4,5.18-5.71,10.94-8.7,16.34-3.18-5.21-5.54-10.92-9.24-15.82-5.18-7.34-11-14.34-18.12-19.85a172.35,172.35,0,0,0-6.13,51.61,18.25,18.25,0,0,1-3.64-1.54,82.46,82.46,0,0,0-30.28-9.6,11.27,11.27,0,0,0-3.62,0c1.47,4.54,2.33,9.24,3.93,13.74a123.39,123.39,0,0,0,11.72,25.89,98.23,98.23,0,0,0-28.7,6.24c-2.49,1.11-5.25,1.82-7.35,3.63,5.86,6.25,12,12.4,19.3,16.94,3,2.1,6.35,3.65,9.36,5.74a115.11,115.11,0,0,0-27.19,25.2,12.58,12.58,0,0,0,2.95,1.31c6.69,1.73,13.48,3.36,20.41,3.58,3.69.07,7.38,0,11.07-.07-2.14,4.88-5,9.42-6.85,14.43-2.59,6.95-5.62,14-6.28,21.41a85.29,85.29,0,0,0,27.06-9.72,53.4,53.4,0,0,1,6.48-3.63c-.34,9.82-.28,19.75,1.79,29.39.77,3.51,1.1,7.17,2.61,10.47a95,95,0,0,0,8.46-7.83c6.81-6.41,12-14.31,16.69-22.35,1.92,1.91,2.69,4.58,4,6.87A124.88,124.88,0,0,0,260,490.91c1.11,1.17,1.83-.81,2.14-1.63,4.41-12.75,7.59-26.17,7.12-39.74l.82-.81c14,9.48,29.88,16,46.15,20.59.2-3.44-.94-6.72-1.7-10a130,130,0,0,0-9-24.61c-1.87-4-4.46-7.57-6.27-11.57,20.24,1.31,40.55-1.62,60.17-6.5a3.83,3.83,0,0,0-1.22-1.91c-12.7-12.3-27.6-22.51-44.07-29,.47-1.37,1.91-1.84,3.06-2.5A220.73,220.73,0,0,0,362,352.39c2.55-2.06,5.35-3.9,7.31-6.58A188.23,188.23,0,0,0,324.7,344c-6.24.22-12.35,1.67-18.57,2.09a47.62,47.62,0,0,1,4.32-6.74,138.87,138.87,0,0,0,10.35-17.82,186.87,186.87,0,0,0,10.78-23.13c1.21-3.76,3.2-7.31,3.66-11.27a274.55,274.55,0,0,0-25.38,12.29c-11.12,6.36-22.09,13.13-31.77,21.56a41.24,41.24,0,0,1,.51-8.94,155,155,0,0,0-2.94-42.38,12.18,12.18,0,0,0-1.45-4.62c-5,5.73-9.22,12.11-13.94,18.08Z" transform="translate(-94.94 -136.45)"/><path class="cls-3" d="M260.27,283.08c4.72-6,8.92-12.35,13.94-18.08a12.18,12.18,0,0,1,1.45,4.62A155,155,0,0,1,278.6,312a41.24,41.24,0,0,0-.51,8.94c9.68-8.43,20.65-15.2,31.77-21.56a274.55,274.55,0,0,1,25.38-12.29c-.46,4-2.45,7.51-3.66,11.27a186.87,186.87,0,0,1-10.78,23.13,138.87,138.87,0,0,1-10.35,17.82,47.62,47.62,0,0,0-4.32,6.74c6.22-.42,12.33-1.87,18.57-2.09a188.23,188.23,0,0,1,44.61,1.85c-2,2.68-4.76,4.52-7.31,6.58a220.73,220.73,0,0,1-44.78,30.82c-1.15.66-2.59,1.13-3.06,2.5,16.47,6.5,31.37,16.71,44.07,29a3.83,3.83,0,0,1,1.22,1.91c-19.62,4.88-39.93,7.81-60.17,6.5,1.81,4,4.4,7.59,6.27,11.57a130,130,0,0,1,9,24.61c.76,3.29,1.9,6.57,1.7,10-16.27-4.57-32.11-11.11-46.15-20.59l-.82.81c.47,13.57-2.71,27-7.12,39.74-.31.82-1,2.8-2.14,1.63a124.88,124.88,0,0,1-20.82-28.24c-1.33-2.29-2.1-5-4-6.87-4.68,8-9.88,15.94-16.69,22.35A95,95,0,0,1,210,486c-1.51-3.3-1.84-7-2.61-10.47-2.07-9.64-2.13-19.57-1.79-29.39a53.4,53.4,0,0,0-6.48,3.63,85.29,85.29,0,0,1-27.06,9.72c.66-7.44,3.69-14.46,6.28-21.41,1.85-5,4.71-9.55,6.85-14.43-3.69,0-7.38.14-11.07.07-6.93-.22-13.72-1.85-20.41-3.58a12.58,12.58,0,0,1-2.95-1.31A115.11,115.11,0,0,1,178,393.61c-3-2.09-6.35-3.64-9.36-5.74-7.32-4.54-13.44-10.69-19.3-16.94,2.1-1.81,4.86-2.52,7.35-3.63a98.23,98.23,0,0,1,28.7-6.24,123.39,123.39,0,0,1-11.72-25.89c-1.6-4.5-2.46-9.2-3.93-13.74a11.27,11.27,0,0,1,3.62,0,82.46,82.46,0,0,1,30.28,9.6,18.25,18.25,0,0,0,3.64,1.54,172.35,172.35,0,0,1,6.13-51.61c7.15,5.51,12.94,12.51,18.12,19.85,3.7,4.9,6.06,10.61,9.24,15.82,3-5.4,5.3-11.16,8.7-16.34a189.21,189.21,0,0,1,10.83-17.18M240.68,318a119.92,119.92,0,0,0-10.29,38.19,73.39,73.39,0,0,0-16.88-18.48c-1.92-1.33-3.6-3.14-5.89-3.79a89,89,0,0,0,6,28.6,16.34,16.34,0,0,0,2.19,4.38L214,366.6A63.32,63.32,0,0,0,186,361.44c5.2,8.23,11.9,15.74,20.23,20.9.08.26.25.78.34,1a70.23,70.23,0,0,0-27.91,10.26c8.84,3.93,18.37,6.66,28.1,6.56a11.59,11.59,0,0,1-1.21,1.31,82.31,82.31,0,0,0-19.47,21.7c10.09-.67,19.87-4,28.73-8.84a77.4,77.4,0,0,0-8.67,30.71,75.64,75.64,0,0,0,22.12-22.56,87,87,0,0,0,7,31.67l.91-.53c4.73-9.82,8.32-20.35,9.07-31.29a81.92,81.92,0,0,0,23.81,25.09,80.72,80.72,0,0,0-7.66-33.82,98,98,0,0,0,36.81,9.19,82,82,0,0,0-26.5-25.61c13.92-1.18,27.44-5.57,40-11.58l.12-.65A98.91,98.91,0,0,0,273,378.11c12.54-8.25,22.81-19.43,32-31.17A116.91,116.91,0,0,0,271.76,358c-2.55,1.16-4.79,2.92-7.46,3.82a111.4,111.4,0,0,0,12.79-39.9,131.85,131.85,0,0,0-28.55,32.19c-.39-12.37-2.67-24.81-7.86-36.11Z" transform="translate(-94.94 -136.45)"/></svg>