<svg id="Layer_1" data-name="Layer 1" xmlns="http://www.w3.org/2000/svg" viewBox="0 0 479.33 479.5"><defs><style>.cls-1{fill:#a88b53;}</style></defs><path class="cls-1" d="M60.93,53q66.38-.13,132.75,0c4-.41,6.27,3.31,8.78,5.69q49.08,49.11,98.15,98.21Q351.29,106,402.19,55.23a5.93,5.93,0,0,1,5.34-2.29c44.21.09,88.41-.08,132.62.08q.18,170.82.05,341.63c-.08,45.8.16,91.61-.12,137.41-24.85.63-49.72.11-74.58.28H115.62c-18.21-.17-36.44.35-54.64-.31q-.23-239.52,0-479m50.51,50.46q-.07,189.15,0,378.32,189.12,0,378.25,0-.12-188.17,0-376.35c.5-2-1.8-2.11-3.1-2-19.69.06-39.39,0-59.08,0a5,5,0,0,0-4.12,1.86c-29,29.12-58.12,58.09-87.1,87.22q25.37,25.29,50.66,50.65a4.06,4.06,0,0,0,3.53,1.33c31.39.25,62.8-.33,94.18.27-14.89,20-30.37,39.54-45.56,59.3-20.45.21-40.91-.1-61.36.15,11.57,11.43,23.13,22.89,34.5,34.52-2.4,3.71-5.77,6.6-8.84,9.71q-50.25,50.38-100.6,100.66l-2.18.34c-28.94-29.07-58-58-87-87.08-32-.19-64,.19-96.07-.2,2.61-5.3,6.81-9.54,10.28-14.26,10.69-14,21.54-27.88,32.26-41.85,1.4-1.66,2.8-4,5.36-3.56,19.7-.06,39.41,0,59.11,0-11.5-11.66-23.22-23.11-34.67-34.81,24.69-25.29,50.05-49.93,74.8-75.16-28.42-28.91-57.37-57.31-85.9-86.12-1.46-1.35-2.92-3.27-5.16-3-20.74,0-41.47,0-62.21,0M227.81,301c-1.58,1.06-1.06,3.11.3,4.08q36.6,36.84,73.4,73.47c24-24.22,48.2-48.26,72.3-72.37.87-1.07,2.75-2.54.92-3.67q-37.05-37.17-74.2-74.24Q264.22,264.64,227.81,301Z" transform="translate(-60.89 -52.89)"/></svg>