<svg id="Layer_1" data-name="Layer 1" xmlns="http://www.w3.org/2000/svg" viewBox="0 0 311.48 378.33"><defs><style>.cls-1{fill:#a7a7a7;}.cls-2{fill:#214b6a;}</style></defs><path class="cls-1" d="M201.24,309c46.42-26.83,100.94-37.75,154.21-35.22q0,26.65,0,53.31c0,20.09,0,40.18,0,60.27-18.5-.4-37,1.23-55.36,3.59-27.83,3.93-55.32,10.82-81.34,21.52-31.35,13-60.7,32.22-82.52,58.5-11.39,13.43-20.4,28.73-27.56,44.78q2.09-31,4.63-61.87c.37-11.68,2.18-23.26,2.54-34.93.53-9.35,1.89-18.64,2-28a12.13,12.13,0,0,1,2.68-7.65c15.34-23.3,35.49-43.19,57.93-59.64A266,266,0,0,1,201.24,309" transform="translate(-108.69 -137.44)"/><path class="cls-2" d="M407.83,159.66c4.58-7.12,8.35-14.7,12.2-22.22.25,40.11.1,80.22.08,120.33a316.64,316.64,0,0,1-64.66,69.34q0-26.66,0-53.31c-53.27-2.53-107.79,8.39-154.21,35.22a266,266,0,0,0-22.74,14.66c-.12-20.44,0-40.88-.08-61.32a312.8,312.8,0,0,0,97.6-10c29.07-7.79,57.1-20.21,81.35-38.17a200.35,200.35,0,0,0,50.46-54.49M282.68,405.58A54.92,54.92,0,0,1,344,446.94c4.15,14.67.87,30.87-7.31,43.56a55.25,55.25,0,0,1-100-17.09c-3.9-14.66-.87-30.85,7.38-43.49,8.62-13.08,23-22.51,38.61-24.34" transform="translate(-108.69 -137.44)"/></svg>