<svg id="Layer_1" data-name="Layer 1" xmlns="http://www.w3.org/2000/svg" viewBox="0 0 353.75 467.02"><defs><style>.cls-1{fill:#df343a;}</style></defs><path class="cls-1" d="M416.78,61.15c24.5-6.59,50.81,13.66,53.42,38.3.9,7.8-1.05,15.66-4,22.82-10,21.8-39.51,31.47-60.5,20-9.17-5.31-17.1-13.48-20.3-23.76-5.25-16-1-35,11.24-46.72,5.49-5.49,12.86-8.43,20.17-10.64m-99,28c25.71-4.87,52,18.41,51,44.42-.75,9-3.34,18.24-9.07,25.41-13.53,17.09-40.48,22.17-58.82,10-8.36-5.77-15.33-14.07-17.81-24.1-4.38-16.44,1.05-35.36,14.16-46.39,5.81-5,13.19-7.64,20.57-9.31m-95,45c23.43-5.29,49.22,12.46,52.46,36.3.91,9.46-.17,19.54-5.15,27.83-9.11,15.39-27.93,24.44-45.64,21.79-9.45-1.31-17.66-6.88-24.49-13.24-16.46-16.94-14.47-47.16,2.87-62.76,5.58-5.07,12.75-8,19.95-9.92m161.87,35.91c37.84-11.54,76.84-19,116.11-23.52q.13,37.46.83,74.89c-56.45,5.94-113.23,16.06-165.55,38.86-.29,1.37-.58,2.75-.86,4.12,16.64,6.38,35,4.48,52,9.41,9.18,3.06,18.55,5.92,26.81,11.1,16.45,9.85,29.8,25.57,34.95,44.21,2.13,7.27,2.38,14.88,2.66,22.4.33,15.29-4.2,30.41-11.72,43.63-8.79,15.51-21.2,28.69-35,39.89-13.09,10.74-27.83,19.21-42.55,27.47-65.82,36.17-139.6,56.21-214,64.39.14-25.29-.73-50.58-.43-75.87,40.68-3.25,81.38-9.23,120.44-21.37,30.9-9.57,60.71-23.22,87.24-41.83,12.13-8.64,23-19.68,29.05-33.48-6-8-15.29-13-25-15.09-11.59-2.6-23.53-2.45-35.33-3,.1-20.94,1.87-41.92.08-62.83a20,20,0,0,0-1.77-6.56c-16,10-32.49,19.63-45.72,33.24-4.49,4.5-8.76,9.82-9.65,16.32a11.1,11.1,0,0,0,5.46,11.65c11.1,6.27,24.09,7.61,36.59,8.38,5.14.2,10.26.86,15.42.79-.24,22.73-.5,45.47-.62,68.2-20.47.57-41.21-.37-61.07-5.72-15.17-4.08-29.78-11-41.7-21.3s-19.42-25.1-22.29-40.49a88.11,88.11,0,0,1,9.33-58.43c9.51-16.44,22.6-30.63,37.48-42.37,12.69-10.06,26.58-18.53,40.86-26.13,31.37-16.47,64-30.8,97.94-41" transform="translate(-147.87 -59.89)"/></svg>