<svg id="Layer_1" data-name="Layer 1" xmlns="http://www.w3.org/2000/svg" viewBox="0 0 417.38 447.63"><defs><style>.cls-1{fill:#19499e;}.cls-2{fill:#fcb913;}</style></defs><path class="cls-1" d="M267.79,150.21c6.91-3.75,13.64-7.83,20.69-11.32,33.7,18.13,67.58,36,101.41,53.85q-101.77,53.56-203.59,107c-1.25.91-3.76,1.16-3.52,3.2q-.1,56,0,112.08c32.8,17.74,65.45,35.77,98.19,53.62-35.35,18.5-70.76,36.88-106.1,55.41-32.32-15.64-64.38-31.88-96.77-47.36-.18-56.21,0-112.43-.08-168.64.12-17.52-.24-35.06.17-52.56,11.93-7,24.31-13.49,36.39-20.35q76.64-42.44,153.2-85m63.6,86.56q33.56-17.49,67.09-35c26.78,12.92,53.35,26.29,80.08,39.28,5.49,2.93,11.34,5.38,16.7,8.41.24,73.64,0,147.31.1,221-69.7,38.4-139.18,77.24-208.84,115.72-1.7,1-3.35-.3-4.85-1C249,567.72,216.2,550.6,183.63,533q103.47-54.51,207-108.86c0-37.42.06-74.83,0-112.24.27-1.44-1.47-1.71-2.33-2.33-31.6-17.13-63-34.64-94.66-51.63l-.87-1.31c13.09-6.18,25.72-13.35,38.65-19.89" transform="translate(-78 -138.89)"/><path class="cls-2" d="M273.78,275.41a6.89,6.89,0,0,1,3.92-1.08,114.21,114.21,0,0,1,25.07.52l1.56.65c9.92,1.57,19.89,4.83,28.27,10.41l2.36.6c.39,1.36,1.78,1.61,2.91,2.14a7.78,7.78,0,0,0,2.86,2.14,91.22,91.22,0,0,1,33.88,50C379,359.35,378,379.41,370.52,397a18.79,18.79,0,0,1-2,4c-5.37,12.91-15.07,23.5-25.63,32.41A127.11,127.11,0,0,1,327,443.37c-7.93,3.17-15.89,6.67-24.51,7.26a8.31,8.31,0,0,1-3.79,1.09,150.44,150.44,0,0,1-19.46.09c-1.54-.14-3.22-.09-4.5-1.08-3.5-.57-7-1-10.58-1.25,0-.28,0-.83.05-1.1-1.79-.29-3.58-.59-5.34-1-1.36-1.42-3.41-1.46-5.17-2-1-1.14-2.59-1.52-4-2.1-10.34-4.75-19.25-12-27.26-20a102.84,102.84,0,0,1-9-11.75,94.62,94.62,0,0,1-13.39-34.43,125.58,125.58,0,0,1,.21-30.14,63.41,63.41,0,0,0,2.19-9.92c1.82-3.16,2.37-6.88,4.24-10a86.4,86.4,0,0,1,16.17-25c4.55-5.18,10.23-9.15,15.59-13.42,8.07-4.43,16-9.74,25.25-11.3,3-1.83,6.69-1.41,10-2Z" transform="translate(-78 -138.89)"/></svg>