<svg id="Layer_1" data-name="Layer 1" xmlns="http://www.w3.org/2000/svg" viewBox="0 0 456.99 460"><defs><style>.cls-1{fill:#2e428d;}</style></defs><path class="cls-1" d="M278.37,81.89H283q2.2,67.41,4.58,134.82c2.62.42,3.78-3.2,5.51-4.73,1.9-3.1,6.28-5,6.16-9q0-60.52,0-121h4.23c6.47.81,13,1.17,19.45,2-1.35,30.7-3,61.39-4.38,92.09-.73,8.79-.43,17.66-1.56,26.42a24.78,24.78,0,0,1,15.14-2.08q5.86-56.51,11.54-113c7.15,1.89,14.21,4.09,21.35,6.05-5.7,39.46-11.81,78.87-17.64,118.31,4.72-.52,9.54-1.08,14.21.2,7.26-37.15,14.53-74.3,22-111.4,7.2,3.7,14.34,7.53,21.47,11.37q-12.45,50.52-25,101c-.79,3.36-1.93,6.65-2.25,10.1l.8,1.27c3.35,1.64,7,2.61,10.21,4.61,10.76-35.95,21.37-71.95,32.35-107.84,6,4.44,11.83,9,17.85,13.4-18,53.09-36.5,106-54.6,159-.66,2.47.2,5,.41,7.48.81,4.54.79,9.2,1.68,13.73l1.16.91c2.23-4,3.61-8.31,5.34-12.49Q424,225.8,454.93,148.57c5.33,5.43,10.42,11.1,15.76,16.52-23.53,51.29-47.38,102.45-71,153.68,2.18,2.83,5.24,6.42,3.41,10.21-2.91,4.65-8.62,6.95-11,12-1.31,3.66-.07,7.56,1,11.13.94-1.47,1.87-2.95,2.71-4.48Q439,264.1,482.24,180.55c4.4,6.65,8.11,13.73,12.39,20.46q-47,81.13-94.27,162.09c1.75,1.39,3.24,3.4,5.49,4,1.53.34,2.37-1.12,3.14-2.14q47.19-72.57,94.57-145c2.5,6.89,5.58,13.69,7.25,20.82-2.41,4.13-5.54,7.79-8.23,11.74q-42,58.47-84.06,117c-2.87,4-7,8.07-5.6,13.48.19,3.06,4.14,2.34,5.27.27,32.76-41.37,65.07-83.12,98-124.33,1.43,8.06,2.95,16.12,4.41,24.18q-59.73,68.57-119.53,137.05c-1,1.48-3.21,3.64-1.13,5.24,1.5.25,3.19.26,4.2-1.1q58.39-59.82,116.76-119.7c0,6.12,0,12.23,0,18.35-.18,1.37.29,3.11-.87,4.15q-55.28,52.22-110.61,104.4c-3,4.68-8,7.3-11.61,11.37q-21,20.48-41.73,41.16c1.49,0,3-.07,4.51-.08q59-52.17,118.21-104.07c13.2-11.43,26-23.31,39.49-34.44-1.24,7.15-2.61,14.29-4,21.43-.52,3.18-3.85,4.56-6,6.54-46.48,36.95-93.21,73.6-139.54,110.73,1.79-.3,3.85.17,5.49-.8,44.43-31.82,88.49-64.21,133.06-95.83-1.89,5.32-4.18,10.49-6.18,15.78-1,2.24-1.62,4.91-3.89,6.24q-33.94,22.46-68,44.82c-14.88,10-30.08,19.5-44.79,29.74a12.57,12.57,0,0,0,5-1.56c18.37-11,37-21.6,55.38-32.52,15.14-8.58,29.88-17.89,45.19-26.17-7.57,14.21-17.67,27-28.76,38.59-3.34,3.66-7.52,6.5-10.61,10.39,2,3.69,5.91,5.77,8.16,9.17.4,20,.05,40,.17,60q-164.16,0-328.33,0c0-19-.11-37.94,0-56.92,2.64-2.42,5.23-4.91,7.83-7.38A312.35,312.35,0,0,1,106.1,442.8a106.57,106.57,0,0,1-9.95-14.88c35.59,18.15,71,36.78,106.46,55.1a22.79,22.79,0,0,0,4,1.14c-4.41-3.37-9.37-5.92-14-8.89Q141.23,444.1,89.92,412.91a7.68,7.68,0,0,1-3.49-3.61c-2.64-5.79-5.22-11.62-7.69-17.49,18.93,12,37.46,24.7,56.27,36.92,27.07,18,54.28,35.74,81.32,53.75a11.36,11.36,0,0,0,5.18,1.67c-4.11-3.61-8.7-6.6-13.06-9.89L72.33,374.62c-2.15-8.31-4.45-16.61-5.81-25.1Q147.84,416.06,228.87,483c1.58,1.28,3.79.78,5.66,1.1-36.84-34.13-74-67.9-111-101.89C103.68,364.07,84,345.72,64,327.78c0-6.87-.13-13.74.11-20.6,8.61,7.88,16.5,16.5,24.9,24.6Q165,407.91,241.06,484l2.8-.12Q170.27,403.51,96.69,323.19c-10.41-11.55-21.17-22.81-31.41-34.49.84-8.43,2.6-16.8,4.16-25.13Q159.21,373.73,249,483.91h3.42Q162.88,364.41,73.12,245.06c2.74-7,5.36-14,8-21,20.16,29.12,39.7,58.68,59.62,88Q198.84,398,256.89,484l3-.07q-85.56-139-171.11-278c4.37-7.3,8.72-14.62,13.13-21.9q47.73,87.11,95.22,174.36a25.87,25.87,0,0,1,7.1-4.3c-8.17-15.83-15.77-32-23.76-47.89-2.93-1.13-6.1-2.16-8.22-4.62-2.28-2.31-2.87-5.6-3.54-8.63-.78-3.82-4-6.46-5.23-10.09-.47-4.83,2-10.18-1.1-14.54-16.68-32.93-32.84-66.13-49.24-99.2,5.1-5.86,9.84-12,15.12-17.74q6.44,14.94,12.83,29.89c1.36-2.76,2.66-6.14,5.79-7.3,2.17-.37,5-.58,6.48,1.42,3.63,4.39,6.7,9.21,10.28,13.64-6.79-17.39-13.43-34.83-20.19-52.22,6-4.71,11.93-9.53,18-14.17,7.31,21.33,14.69,42.63,21.85,64a39.9,39.9,0,0,1,3.4-6.83c1.84-2.41,4.95-3.14,7.62-4.24-5.69-21-11.32-42-17.05-62.92,7.44-3.85,14.86-7.76,22.41-11.41q7.53,37.77,14.91,75.57c.68,4.83,5.86,8,5.4,13.13,0,2.56-2.47,4-4.05,5.65l-3.22-1.31c.71,6.47.72,13,1.39,19.45,1.68,4.06,6.88,4.39,10.66,5a25.74,25.74,0,0,1,14.8,6.47c2.78,2.2,5,5.21,8.37,6.63,2-.53,3.93-1.5,6-1.93,2.51.46,4.66,2,6.92,3.05,5-1.29,9.65-3.59,14.38-5.65,2.94-1.57,3.81,2.57,5.17,4.26.85-1.08,2.24-2,1.9-3.63-.17-6.44-2.57-12.62-2.32-19.1a54.74,54.74,0,0,1,2.49-17.74c-2.46.9-5.53,4.71-8.06,2.28a25.11,25.11,0,0,1-5.67-16.15c-1.83-.24-3.66-.48-5.49-.7,4.86-7.39,1.95-16.43,1.27-24.53-1.63-22.82-3.11-45.65-4.73-68.46,6.19-.47,12.37-1,18.54-1.65M146.17,182.74c-1.22,7.3.86,14.55,2.12,21.7.81,5.4,4.63,9.64,6.14,14.82,2.34,5.5,1.82,11.9,5.14,17,2.65,4.53,6.48,8.15,9.92,12,2.08,2.31,2.17,5.65,2.15,8.59,0,7.93-3.47,15.25-4.55,23-.94,5.6,5.86,7.93,6.06,13.17.37,1.9.71,4,2.36,5.29,3.19,2.71,7.66,2.47,11.42,3.85,5.33,1.8,10.95,4.81,13.34,10.18.6,3.76-.32,7.64.47,11.37,1.21,2.39,2.84,4.58,3.67,7.17,1.49,4.48.81,9.29,1.8,13.86.53,1.85,1.45,4.22,3.69,4.41,4.39-1.38,4.95-8.14,10-8.28,3.09-.4,2.59,4.06,5.13,4.8,3.89,1.05,8.59.17,11.66,3.3,2,1.69,2.48,4.41,3.16,6.82A59.13,59.13,0,0,0,254.72,382c2.24,2.49,5.74,2.91,8.57,4.47,3.72,1.7,6.38,5.32,10.61,6,8.86,2.32,15.26,11.76,25.1,10.45,8.3-2.46,14.81-9.89,23.87-10.05a12.32,12.32,0,0,1,10.39,4.76c4.31,4.76,5.57,11.45,9.78,16.25,1.41,1.79,3.72,2,5.84,1.94,10.43-.12,20.71,1.92,30.95,3.71,5,.75,9.39,3.36,14.32,4.32,2.62-8.75,2.35-18.79,8.62-26.07,3.59-4.77,9.63-6.44,15.33-6.75-2.86-1.19-6.46-1.32-8.49-3.9-2.34-4.69,1-11.47-3.62-15.13-4.32-2.94-9-5.51-12.41-9.57-6.26-6.5-8-16.31-6-24.86,2.72-4.35,8.4-5.62,11.3-9.82,1.07-1.7.85-4.66-1.28-5.41-4.65-1.88-10.63.16-14.54-3.53-3.82-4.81-1.42-11.33-2.81-16.85-1-4-.45-8.08-.32-12.12-.17-4.92-6.65-6.84-6.15-12,0-9.56,9.88-15,11.7-24,.07-2.66-1.08-5.18-1.24-7.83-.55-3.75.52-7.42,1.46-11,.79-1.91-.81-3.71-2.47-4.4-3.75-1.84-7.91-3.34-10.3-7-1.52-.08-3.09.19-4.56-.24-2.92-2.14-5.25-5.1-8.55-6.72-4.49-.49-9.09,1.28-13.53-.13-6.63-1.95-11.48-7.19-16-12.15-2.74.08-5.47.08-8.2.13a16.13,16.13,0,0,1-17.77,1.59,189.06,189.06,0,0,1-13.71,14.59c-1.28,1.52-3.33,1-5.06,1.1,1,2.51,1.78,5.28,1,8a18.6,18.6,0,0,1-7.87,7.34,36.45,36.45,0,0,1-3.13-4.39c-5.19-.36-9.76,2.48-14.74,3.35-2.39.74-4.59-.77-6.88-1.2-3.46.7-7.53,2.18-10.54-.54-4.3-4-8.54-8.82-14.69-9.73-6.07-1.07-12.95-2.11-17.16-7.12-3.54-4.19-.31-10-2.51-14.72-3.54-.34-8.44,1.36-10.78-2.22-1.75-5.75.28-11.86-.61-17.73-.13-1.23-1-3.57-2.69-2.38-4.55,1-5.68,6-9,8.62a36,36,0,0,1-15.06,7.51c-3.16.66-7.29.44-9.12-2.66-3.7-5.79-6.79-12.61-13.15-16a9.43,9.43,0,0,0-2.5,4.87M219,346.57c-1.72,3.25-3.94,6.71-8,7.06-.27,1.43.13,4-2,4.08-3,.25-6.85,1-7.8,4.37.35,3.95,4.4,6.07,5.28,9.8.46,2.16.86,4.47,2.59,6,7.1,7.59,16.53,12.39,25.57,17.26.37,5.83,4.64,10.25,5.91,15.79.82,2.55-1.78,4.49-1.65,7,.61,1.85,2.49,2.86,3.84,4.15a23.79,23.79,0,0,0,2.55,7.69c-.26-3.08-.13-6.91,2.87-8.68,2.84-.6,5,1.91,6.89,3.61,2.21,2.41,5,4.73,5.79,8-1,2.18-2.46,4.11-3.68,6.18,11.6-1.18,23.26-.84,34.89-.66A47.88,47.88,0,0,0,303.6,426.5c1.41-2.6,4.6-1.93,7.06-2.42.2-4.87,4.92-7.58,5.85-12.17a9.76,9.76,0,0,1,5.4-6.78c2-.74,3.72.64,5.36,1.54,0,5.42,0,10.85,0,16.28.13,1.88-.75,3.59-1.43,5.28,2.89,2.63,6.86,3.49,9.89,5.93,1.86,1.28,3.6,3.27,6.11,2.8,19.34-.62,38.69-.17,58-.79a5.43,5.43,0,0,0,6.33-6.69c-3.79-.11-7.8.54-11.29-1.31-3.22-1.65-7-.94-10.31-2-11.52-5.12-24.43-4.08-36.68-5.12-6.33-.38-10.34-6-12.93-11.19-2.37-4.55-4.29-10.75-10.07-11.83-6.84,0-12.88,3.78-18.37,7.46-6.1,2.89-13.44,2.63-19.64.18-3.7-2.55-6.55-6.55-11-7.87-2.37-.6-5.41.44-7-1.89-4.21-4.58-10.12-6.76-15.53-9.49a55,55,0,0,1-10.72-13.15c-4.1-6.64-6.16-14.23-8.84-21.5-2.9-.67-5.9-.56-8.82-1.06-2.51-.46-4.28-2.42-6-4.14m-6,41.1q24.12,45.51,48.15,91.06c1.38,2.17,2,5.83,5.33,5.41-14.09-30.1-28.48-60.07-42.76-90.09-2.8-3.08-7.16-4.29-10.72-6.38m103.48,35.19c-2.83,20.52-5.9,41-8.65,61.54l1.67-1.06c4.58-24.43,8.91-48.93,13.34-73.4a20.18,20.18,0,0,0-6.36,12.92m-66.69,2.42a17.3,17.3,0,0,0,.76,12c6.38,15,12.6,30,18.93,45a2.73,2.73,0,0,0,2.66,1.89c-4.73-13.59-9.5-27.18-14.47-40.69a7.68,7.68,0,0,1-4.68-4.41c.69-2.36,1.44-4.82,1.1-7.31-.52-2.65-2.52-4.63-4.3-6.52m54.33,6.48c-.88,17.41-1.71,34.82-2.78,52.21l2.65-.14c1.21-18.58,3.41-37.09,4.52-55.68-1.81.6-4.64,1.11-4.39,3.61m22,1.93c-4.2,16.91-8.89,33.7-12.76,50.68l2.08-1.06c4.75-15.8,9.09-31.75,13.84-47.56L326,433.69m8.43,6c-5,14.81-10.33,29.51-15.48,44.27l2.57-.13c5.06-14,10.18-27.91,15.51-41.77-.87-.8-1.73-1.59-2.6-2.37m-41.53,3.13c.06,13.66.39,27.34.24,41l4.12.15c.06-14.69-.12-29.38.09-44.07-1.48,1-3,1.84-4.45,2.91M355,441c-8.36,14.32-16.77,28.63-24.86,43.12l2.64-.45c9.21-14,17.71-28.48,26.7-42.63L355,441m11,0c-9.79,14.22-19.31,28.62-29.09,42.85,1.26,0,2.52,0,3.79.07,10.77-14.37,21.76-28.57,32.56-42.93-2.43,0-4.84,0-7.26,0m-19.8,42.92,3.51,0,40.55-43.29c-2.48-.09-5-.09-7.44-.16q-18.45,21.62-36.62,43.47m-3.05-42c-6.3,14-12.74,28-19.11,42l2.64,0c7.09-14.07,14.16-28.15,21.43-42.13-1.66,0-3.31.09-5,.15m-70.32.85c2.92,12.67,5.48,25.43,8.14,38.17.42,1.35.38,3.41,2.45,3.41-1.87-13.91-4.48-27.71-6.62-41.57h-4m9.87,0c1.47,13.71,2.72,27.43,4.21,41.14h2.31c-.55-13.7-1.82-27.36-2.44-41.05l-4.08-.1m-19.1,1c3.9,13.32,8,26.59,11.66,40L278,484c-3.66-13.41-7.26-26.84-10.94-40.24h-3.38m-125.4,47.31c.07,14.61.1,29.21,0,43.82q157.23.27,314.46.06c-.08-14.63-.05-29.27,0-43.9q-157.22,0-314.42,0M218.47,94.79c6.79-2.16,13.49-4.6,20.31-6.67,3.6,28.39,7.3,56.76,10.7,85.17-6.13,0-12.25.08-18.37-.1-4.25-26.13-8.53-52.25-12.64-78.4m37.72,164.28C265.24,250,278.35,245.75,291,246c18.31-.08,36,9.35,47.18,23.69,4.07,5.08,7.45,10.87,8.81,17.3,2.69,12.11,2.08,24.63,1.61,36.94-.07,2.4-.15,5,1.38,7.05,4,5.91,10.71,9.15,17,12.16-2.65,4.68-5.53,9.23-8.26,13.87-5.37-2.2-10.7-4.86-14.9-8.93a41.8,41.8,0,0,1-11-23.18c-1.56-1.13-3.11-2.25-4.65-3.39a44.28,44.28,0,0,0,3.27-11.31c1.89-.3,3.76-.74,5.65-1a61,61,0,0,0-2.17-19.76l-5.11,1.8A37,37,0,0,0,323.49,280l3-3.12a49.84,49.84,0,0,0-15.43-13.39c-1.14,1.5-2.26,3-3.41,4.51-3.21-1.46-6.71-1.9-10.08-2.79a44.43,44.43,0,0,1-.6-5.39c-6.67-.17-13.41-.37-20,1,.19,2.12.44,4.23.69,6.35-3.74,2-7.57,3.89-11.4,5.76-3.35-4.63-6.93-9.09-10.13-13.83M215,266.52c2.53-4.79,5.19-9.5,7.94-14.16,6,1.93,11.15,5.8,16.07,9.66,6.77,5.75,9,15.11,8.79,23.67L252.5,288c-1,3.85-1.75,7.77-2.5,11.69l-5.22,0A57.55,57.55,0,0,0,247,320.94q2.46-.69,4.93-1.35a46.16,46.16,0,0,0,6.14,9.33q-2.34,1.92-4.63,3.89a38.25,38.25,0,0,0,16,13.38l3.25-4c3.38,1.26,6.79,2.45,10.18,3.68.18,1.8.38,3.59.6,5.38a51.87,51.87,0,0,0,20.75-1.32c-.45-1.89-.78-3.81-1.24-5.7,3.91-1.65,7.76-3.43,11.67-5.1,3,4.43,6,8.89,9.23,13.16A56.33,56.33,0,0,1,278,361.12,67.54,67.54,0,0,1,246.71,344c-11.15-12-14.3-29.27-13.88-45.17-.19-6.74,1.35-14-1.62-20.29-3.9-5.68-10.37-8.8-16.24-12m65-1.28q6.57-.23,13.15-.26c0,1.78.08,3.56.11,5.34a66.76,66.76,0,0,1,13.38,3.44c1.11-1.39,2.22-2.79,3.34-4.17a71.33,71.33,0,0,1,10.39,7.74q-2.08,1.95-4.18,3.89a29.65,29.65,0,0,1,8.78,14.3q2.83-.31,5.69-.54c.27,4.21.32,8.43.27,12.65l-4.73.49a45.25,45.25,0,0,1-3.65,14.68c1.3,1,2.6,1.94,3.89,2.93-3.09,3.12-6,6.45-9.16,9.46l-3.07-3.08a33.91,33.91,0,0,1-14.2,8.23l1,3.87c-4.33,1.43-8.93,1.27-13.39.66,0-.77.05-2.3.07-3.07a43.61,43.61,0,0,1-15.47-5.75c-.78,1.19-1.56,2.39-2.35,3.58a61.84,61.84,0,0,1-9.22-7.64c.92-1.25,1.82-2.52,2.74-3.77-3.51-3.68-5.41-8.4-7.1-13.1-1.59-1-3.86-.26-5.68-.53q-.06-6,0-12c1.68-.06,3.36-.09,5-.13a31.71,31.71,0,0,1,4-13.28c-1.38-1.43-2.72-2.9-4.09-4.32a66.68,66.68,0,0,1,8.27-9.18c1.63.77,3.29,1.5,4.94,2.26,3.4-3.24,7.73-5.15,12-7.05-.34-1.88-.58-3.77-.79-5.65m10.73,15.95c-.3,1.61-.62,3.22-.94,4.83-1.7-.95-3.42-1.85-5.15-2.73a9.7,9.7,0,0,0,4.67,5.85c0,2.67-.08,5.34-.25,8-3.35-1.24-6-3.73-8.95-5.57.06,5.15,4.33,8.43,8.42,10.7,0,2.27,0,4.55.05,6.82-4.34-1.19-8-3.85-11.56-6.49.31,3,.57,6.28,2.52,8.76,2,2.81,5.15,4.44,8.18,5.93.07,2.2.09,4.42.06,6.63-6.1-1.54-10.54-6.22-15.07-10.25,1,6,3.87,11.92,8.9,15.53,4,2.77,9.39,4.2,14.09,2.29,7.71-2.42,12.29-10.22,13.51-17.83-4.52,4-9,8.63-15,10.28-.08-2.22-.08-4.44,0-6.65,3.05-1.51,6.24-3.11,8.25-5.95,1.91-2.51,2.22-5.77,2.57-8.79-3.61,2.65-7.31,5.34-11.69,6.55.05-2.29.12-4.58.18-6.86,4.05-2.3,8.27-5.55,8.38-10.66-3.05,1.79-5.65,4.32-9,5.55-.18-2.67-.26-5.35-.19-8a9.58,9.58,0,0,0,4.65-5.9c-1.74.92-3.48,1.83-5.2,2.8q-.45-2.4-.84-4.8l-.51,0M424.94,498.85c0-1.42,1.55-2.09,2.31-3.1l2.65,2.7c-.83.93-1.67,1.84-2.48,2.79-.85-.78-1.72-1.54-2.48-2.39m-42.59-2.17c1.21.77,2.42,1.58,3.62,2.39l2.08-2.87c.88,1.16,2.73,1.93,2.84,3.53a37.78,37.78,0,0,1-2.82,2.84L386,499.66l-3.38,2.56c-1-.94-1.9-1.89-2.84-2.83l2.61-2.71m34.12,5.08c1.06-1,2.13-2,3.23-3a145.31,145.31,0,0,1,.1,16.3c3,1.51,6.42,1.38,9.68.89a41.6,41.6,0,0,0-3.46-4c.91-1.77,1.9-3.49,2.9-5.2,2.43,3.42,3.83,8.12,1.79,12.06a6.88,6.88,0,0,1-6.84,4.23c-2.81.56-4.05-2.39-5.43-4.2-2.05,5.15-8.05,4.15-12.49,4.18-3.09-.08-7.65.59-8.8-3.22-.42-3-1.28-7,1.31-9.2.6,1.83.12,4.78,2.53,5.41,5,.61,10.06.27,15.08,0,.62-4.72,1.35-9.53.4-14.25m-12.32,4.14c.19-3,3.37-4.29,5.76-5.3a4.92,4.92,0,0,1-1.84,4.1c.74,1,2.71,1.62,2.21,3.2.09,2.63-2.64,3.79-4.78,4.22.49-1.28,1-2.54,1.54-3.8a19.82,19.82,0,0,1-2.89-2.42M205.82,502c3.53.1,7.2-.52,10.64.46,4.27,2.07,4.17,8,1.54,11.37,1.9,3.33,1.21,7.23,1.86,10.86-1.38,0-2.75,0-4.12,0-.52-2.8-.1-5.78-1.17-8.45-1.6-.25-3.22-.26-4.83-.35,0,2.9,0,5.81-.06,8.72-1.28,0-2.56,0-3.83.08-.08-7.57,0-15.13,0-22.7m3.88,4.39c0,1.82,0,3.66,0,5.49,2.34-.17,6.55.55,6.26-3.06-.31-3.27-4.06-2.12-6.3-2.43m18.9-3.88a38.59,38.59,0,0,1,3.87-.33c2,7.34,3.66,14.77,5.56,22.14l-4,0c-.36-1.5-.7-3-1.06-4.46h-5c-.34,1.47-.69,2.95-1,4.43l-3.84.17c1.72-7.33,3.41-14.68,5.45-21.92m1.83,6.25c-.5,2.38-1,4.77-1.53,7.14l3.23-.12c-.55-2.35-1.09-4.69-1.7-7m7.72-6.44c4.41-.07,8.81-.12,13.22.07-.09,1.41-.18,2.82-.28,4.24-1.51,0-3,0-4.53-.05,0,6,.19,11.95-.14,17.92l-3.61-.24c0-5.88-.09-11.75.07-17.63l-4.71-.09c0-1.41,0-2.82,0-4.22M306,502c1.21.06,2.42.09,3.64.11,0,2.63,0,5.26.1,7.89,1.84-2.62,3.54-5.34,5.29-8l4.36.1c-1.89,3.27-4.12,6.34-6.09,9.57,2.24,4.29,4.35,8.65,6.51,13l-4.61.05c-1.66-3.14-2.65-6.74-5.21-9.31a73.06,73.06,0,0,0-.34,9.24c-1.23,0-2.45.05-3.67.11-.06-7.58-.08-15.15,0-22.73M357.1,505c1.23-1.15,2.47-2.27,3.75-3.36.45,4.63,0,9.31.61,13.92,3.81,1.48,8.53.83,12.5-.17-2.27-2.07-5.13-1.74-7.37.26.42-2.6.32-6.24,3.32-7.33a89,89,0,0,1,10.78,2.7c-.37,1.52-.74,3-1.1,4.55-.41.23-1.24.67-1.66.89,2.77-.17,5.55-.23,8.31-.55-1.08-1.4-2.23-2.73-3.41-4,.85-1.68,1.73-3.33,2.63-5,3.66,3.67,4.16,10.14.6,14.05s-11.17,2.2-11.49-3.41c-2.15,2.22-4.15,5.49-7.65,5.38-2.91,0-7,.69-8.51-2.55-1.33-5-1-10.25-1.31-15.37m76.84-.09c1.23-1.14,2.46-2.26,3.75-3.33.43,4.45-.18,8.95.5,13.37.28,1.84,2.44,1.11,3.73,1.33a49.3,49.3,0,0,0,5.42-.35,40.68,40.68,0,0,0-3.48-4q1.41-2.64,3-5.18c3.53,4.56,4.07,12.39-1.49,15.58-3.29,1.08-8.82,1.63-10.3-2.41-1.23-4.88-.63-10-1.12-15m-291-1.83c4.28,0,8.56,0,12.84,0l.27,4.36-4.8.16q.06,8.74,0,17.51l-3.84,0c-.09-5.86,0-11.72-.06-17.58l-4.31.11c0-1.51-.06-3-.1-4.53m16.44.06c4.12-.11,8.24-.1,12.36-.05l.18,4.34c-2.9.14-5.81.15-8.71.11,0,1.32,0,2.64,0,4q3.93,0,7.86,0c0,1,0,3.12,0,4.15-2.57,0-5.16-.06-7.73.16-.12,1.59-.12,3.2-.14,4.81,3,0,6,0,9,0,0,1.44,0,2.89,0,4.35-4.29,0-8.57.11-12.85-.15.08-7.26,0-14.51.05-21.76m21.41,17.51c1.05-6,0-12.13.58-18.17l3.86.19c-.11,6.09.46,12.24-.29,18.31-.56,4-6.12,5.53-9,2.89-2-2.09-1.79-5.19-2.1-7.84l3.82-.09c.08,1.79.13,6.5,3.09,4.71m13-17.59,3.84,0c1.95,7.3,3.75,14.65,5.45,22-1.29,0-2.58-.05-3.86-.05-.35-1.41-.71-2.82-1.07-4.22l-5,0c-.35,1.41-.7,2.82-1.06,4.23l-3.8,0c1.86-7.35,3.57-14.74,5.53-22.05m1.8,6.76c-.52,2.18-1,4.39-1.48,6.59l3,.13a56.71,56.71,0,0,0-1.49-6.72m62.51-7c3.22,0,6.52-.44,9.68.38,3.7,1.9,3.09,6.64,1.86,9.9,1.93,3.63,2.35,9.39-1.93,11.52-3.18.52-6.43.2-9.63.2,0-7.34,0-14.67,0-22m3.71,8.29a18.82,18.82,0,0,0,5.35-.08c-.43-1.2.27-3.18-1.15-3.79a16.1,16.1,0,0,0-4.16-.12,21.27,21.27,0,0,0,0,4m-.05,4.47c0,1.74,0,3.49,0,5.24,1.7-.15,3.49.1,5.1-.59.82-1.4.47-3,.22-4.48-1.78-.07-3.56-.12-5.34-.17m16.55-12.62,4.19.18c1.53,7.31,3.56,14.49,5.19,21.77h-3.94c-.31-1.42-.63-2.85-.94-4.25h-5.06c-.36,1.41-.71,2.81-1.05,4.23-1.28,0-2.55,0-3.82,0,1.77-7.32,3.61-14.62,5.43-21.93m2.09,6.65c-.64,2.18-1.19,4.38-1.76,6.59,1.07.06,2.14.17,3.2.32-.5-2.3-.94-4.61-1.44-6.91m8.84-6.48c1.3-.07,2.6-.16,3.9-.26,2,4.37,3.69,8.84,5.51,13.28.54-4.39.27-8.82.37-13.22,1.17.08,2.35.15,3.53.21-.08,7.2,0,14.41,0,21.62-1.17,0-2.34,0-3.5-.06-2.47-4.37-3.85-9.25-6.06-13.75-.17,4.62,0,9.25-.15,13.87q-1.77-.12-3.54-.15c0-7.18,0-14.36,0-21.54M328,506c1-.95,2-1.89,2.95-2.82.91.82,1.82,1.63,2.74,2.47.94-.81,1.89-1.59,2.85-2.37.72,1.06,2.35,1.82,2.31,3.24-.83.92-1.74,1.76-2.64,2.61q-1.27-1.41-2.55-2.79c-.92.89-1.83,1.8-2.74,2.7-1-1-2-2-2.92-3M341.46,509c4.75,2.75,3.12,10.72-1.72,12.66-4.5,1.84-9.73,1.55-14.42.69-4.33-2.29-3.47-8.22-2.17-12.11,2.2,1.24.87,4.92,3.72,5.43,4.84,1.07,9.83.19,14.73.06-.83-.94-1.63-1.89-2.42-2.85.73-1.32,1.44-2.64,2.28-3.88m10,3c1.49,0,1.64,1.77,2.19,2.82,1.49,4.47,2.23,9.94-.55,14.06-2.3,2.82-6.33,1.39-9.16.35,3-2.64,6.2-5,8.74-8.13-1.23-1.43-2.41-2.89-3.67-4.28.79-1.63,1.51-3.28,2.45-4.82m18.42,17.16,3.08-2.93,3.09,3.12-3.1,2.92-3.07-3.11M442.14,527l3,2.63c-1,.94-2,1.88-3,2.84-.77-.87-1.52-1.75-2.22-2.65a30.55,30.55,0,0,1,2.25-2.82" transform="translate(-63.96 -81.89)"/></svg>