<svg id="Layer_1" data-name="Layer 1" xmlns="http://www.w3.org/2000/svg" viewBox="0 0 517.09 505.91"><defs><style>.cls-1{fill:#0a8992;}.cls-2{fill:#706f6e;}</style></defs><path class="cls-1" d="M293.42,47.36H299c5.86.46,12.09,1.35,17,4.87q28.62,21.14,57.33,42.16Q358,146.93,342.57,199.47a95.19,95.19,0,0,0-35.45-9c-17.08-1.12-34.63,1.54-50.1,9Q236,149.18,215,98.9q29.35-23.54,58.73-47c1.73-1.37,3.93-1.84,6-2.39a80.73,80.73,0,0,1,13.65-2.11M101.78,131.05c23.44-6.45,46.93-12.73,70.38-19.13q31.58,44.73,63.1,89.5c-12.13,5.73-22.63,14.5-31.34,24.61C193.51,238.2,185.5,252.65,182,268.34q-52.44-14.91-104.88-29.81-.06-37.68-.2-75.36c.15-3.27,2-6.12,3.32-9,4.87-9.4,11.67-18.65,21.57-23.09M364,208.31q29.12-46.08,58.42-92.06l72.33,21.3c2,.54,3.54,2,5.08,3.34,7.16,6.23,13.49,13.76,16.92,22.7a22.08,22.08,0,0,1,1.72,8q-.87,35.9-1.73,71.81Q464.91,261,413,278.4c-2.3-14.81-8.73-28.75-17.32-40.95-8.34-11.77-19-22.11-31.64-29.14m54,85.22,108.38-11.68q14.22,34.81,28.39,69.64c1,2.2.59,4.65.56,7-.57,10.45-3,21.23-9.28,29.8-1.91,2.74-4.85,4.46-7.43,6.49-17.61,13.38-35.28,26.7-52.86,40.12-30.74-19.71-61.38-39.58-92.08-59.34,9.3-10.11,15.87-22.5,20.15-35.5,4.86-14.91,6.75-31,4.17-46.51M41.32,345.26Q54.4,314.12,67.44,283l109.38,5.24c-4.13,18.8-1.65,38.65,5,56.59a92.9,92.9,0,0,0,15.12,26.55q-44,32.2-87.95,64.43-29.72-23-59.44-46c-2-1.46-2.94-3.79-4.08-5.88-4.72-9.35-8-19.86-6.83-30.44.28-2.91,1.61-5.54,2.72-8.19M210,387.84c8.29,11.49,19.59,20.57,31.92,27.4,13.38,7.35,28.33,12.16,43.65,12.67-3.29,36.19-6.71,72.35-10,108.54q-36.94,7-73.89,14c-2.45.48-4.88-.35-7.24-.9-8.53-2.24-16.91-5.77-23.66-11.55-2.37-2.13-4.75-4.39-6.11-7.32q-15.49-32.24-31.08-64.43,38.19-39.24,76.4-78.46M345.58,421.6c14.09-6.17,27.13-15.19,36.94-27.14q40.07,36.92,80.11,73.86C455.91,482,449,495.49,442.22,509.09c-4.88,9.32-9.2,19-14.34,28.14a63.08,63.08,0,0,1-24.19,14.43c-4.31,1.19-8.89,2.2-13.34,1.22q-34.83-7.23-69.67-14.38-8-54.17-15.9-108.32c14,.34,28-3,40.8-8.58Z" transform="translate(-38.36 -47.36)"/><path class="cls-2" d="M288.91,224a82.65,82.65,0,1,1-32.58,11.19A82.76,82.76,0,0,1,288.91,224" transform="translate(-38.36 -47.36)"/></svg>