<svg id="Layer_1" data-name="Layer 1" xmlns="http://www.w3.org/2000/svg" viewBox="0 0 260.17 260.57"><defs><style>.cls-1{fill:#046b10;}</style></defs><path class="cls-1" d="M242.6,208.94c20.12-.47,40.29-.13,60.43-.27,13.61-1.42,27.34-.4,41-.74,2.34.23,5.19-.65,7.07,1.18,7.95,7.06,15,15,22.75,22.33,15.49,15.5,31.22,30.76,46.76,46.21,2.18,2.21,4.7,4.13,6.43,6.74a32.69,32.69,0,0,1,.22,4.85c-.1,34,.15,68,0,102-1.63,3-4.47,5-6.76,7.51Q386,433.24,351.77,468c-23.25.32-46.51-.26-69.74.51-12,0-24,0-36,0-2.75.18-4.41-2.28-6.25-3.88C216.25,441.38,193,418,169.33,394.94a4.67,4.67,0,0,1-1.75-3.72c-.38-33.32-.18-66.65-.41-100,.07-2.18-.19-4.42.37-6.56,5.86-6.76,12.64-12.64,18.73-19.19,15.32-15.34,30.48-30.86,45.84-46.16,3.51-3.46,6.71-7.25,10.49-10.4m15.74,39.7c-13.16,13.47-26.56,26.72-39.75,40.17-4,4.1-8.31,8-11.85,12.55-.7,1.87-.31,3.94-.41,5.89.24,23-.2,46,.24,68.94,2.74,3.42,6.13,6.22,9.22,9.31,13.77,13.9,27.89,27.44,41.74,41.26,3.52,4.39,9.7,2.32,14.5,2.3,21.18-.17,42.36,0,63.54-.27,17.09-17.92,34.73-35.31,52.21-52.84.3-15.56-.35-31.15.36-46.69-.74-9.54-.05-19.12-.52-28.67-16.35-16.88-33.47-33.15-49.94-50-1.36-1.27-2.54-3.29-4.68-3.1-23.34-.07-46.69,0-70,0-1.58.12-3.51-.26-4.62,1.17m13.16,26.85c8.55-9.37,17.84-18,26.54-27.27,18.56,18.45,36.89,37.13,55.37,55.66,11.08,11.54,22.73,22.54,33.57,34.32-8.31,10.29-18.29,19.08-27.22,28.81-1.8,2.54-5.05,1.71-7.7,1.82-16.31-.07-32.61,0-48.92,0,9.66-10.44,19.9-20.35,29.79-30.59-10.73-11.21-21.86-22-32.69-33.17-9.58-9.85-19.73-19.18-28.74-29.55m-35.9,33.4c1.52-2,4.24-1.24,6.38-1.42,16.74.16,33.48-.24,50.21.21-9.58,10.46-20,20.15-29.51,30.7,2.86,3.84,6.61,6.87,9.83,10.39,16.71,16.65,33.18,33.53,49.83,50.23.46.73,2.11,1.86,1,2.72C314.46,410.37,306,419.45,297,428c-28.57-28.35-56.69-57.14-85.11-85.63-1.32-1.31-2.56-2.7-3.79-4.09,8.54-10.37,18.46-19.47,27.47-29.4" transform="translate(-167.17 -207.89)"/></svg>